<?xml version="1.0" encoding="iso-8859-1"?>
<!-- Generator: Adobe Illustrator 19.0.0, SVG Export Plug-In . SVG Version: 6.00 Build 0)  -->
<svg version="1.1" id="Capa_1" xmlns="http://www.w3.org/2000/svg" xmlns:xlink="http://www.w3.org/1999/xlink" x="0px" y="0px"
	 viewBox="0 0 511.999 511.999" style="enable-background:new 0 0 511.999 511.999;" xml:space="preserve">
<g>
	<path style="fill:#50C4DF;" d="M217.036,415.135h-49.958c0,0-50.313,25.762-50.313,89.365h100.271L256,459.818L217.036,415.135z"/>
	<path style="fill:#50C4DF;" d="M344.921,415.135h-49.958l-38.964,44.682l38.964,44.682h100.271
		C395.234,440.897,344.921,415.135,344.921,415.135z"/>
</g>
<g>
	<path style="fill:#1AA5C4;" d="M249.178,467.641l6.822-7.823l-38.964-44.682h-49.958c0,0-12.277,6.292-24.701,20.319
		C174.071,455.302,210.74,466.458,249.178,467.641z"/>
	<path style="fill:#1AA5C4;" d="M344.921,415.135h-49.958l-38.964,44.682l6.822,7.823c38.438-1.182,75.107-12.338,106.801-32.186
		C357.198,421.427,344.921,415.135,344.921,415.135z"/>
</g>
<rect x="217.039" y="415.13" style="fill:#EFEDEE;" width="77.927" height="89.36"/>
<path style="fill:#D45464;" d="M254.217,60.457c-4.123-14.619-2.681-30.497,4.294-44.53c0.008-0.016,0.016-0.032,0.024-0.048
	c3.702-7.432,12.505-11.22,19.782-5.868c6.281,4.619,6.543,13.145,1.917,18.909c-7.183,8.949-10.116,21.002-8.185,32.261
	L254.217,60.457z"/>
<g>
	<path style="fill:#AD4F45;" d="M445.762,186.769c0,0,18.928,24.768,17.251,65.527h-45.416l-8.392-77.299l17.288-12.418
		L445.762,186.769z"/>
	<path style="fill:#AD4F45;" d="M66.237,186.769c0,0-18.928,24.768-17.251,65.527h45.416l8.391-77.299l-17.288-12.418
		L66.237,186.769z"/>
</g>
<g>
	<circle style="fill:#E6B09F;" cx="76.419" cy="265.1" r="45.02"/>
	<circle style="fill:#E6B09F;" cx="435.579" cy="265.1" r="45.02"/>
</g>
<path style="fill:#D4D2D3;" d="M217.036,464.267c12.719,2.301,25.747,3.491,38.964,3.491s26.244-1.19,38.964-3.491v-49.132h-77.927
	L217.036,464.267L217.036,464.267z"/>
<ellipse style="fill:#FFC4B1;" cx="255.999" cy="265.1" rx="179.58" ry="172.66"/>
<path style="fill:#E6B09F;" d="M106.419,265.103c0-90.497,72.421-164.722,164.581-172.05c-4.947-0.393-9.948-0.604-15-0.604
	c-99.18,0-179.581,77.3-179.581,172.655S156.82,437.759,256,437.759c5.052,0,10.053-0.211,15-0.604
	C178.84,429.825,106.419,355.6,106.419,265.103z"/>
<path style="fill:#C46D61;" d="M385.644,168.837c0,0-49.575,50.826-152.631,46.378c0,0,8.146-14.633,11.111-28.445
	c0,0-51.93,28.719-114.908,14.359c0,0,20.983-20.758,29.396-38.55l17.496-17.792l81.322-8.155l102.344,8.155L385.644,168.837z"/>
<path style="fill:#D85C67;" d="M452.319,153.576c0-96.344-59.38-117.033-142.133-104.226c-35.938,5.562-60.351-1.444-92.592-16.428
	C168.681,10.189,83.474,13.881,57.729,70.376c-11.641,25.546-8.3,57.193,1.778,82.775c0.056,0.142,0.114,0.284,0.174,0.425
	l25.825,9.002l90.602-17.792l81.322-8.155l102.344,8.155l66.721,17.792L452.319,153.576z"/>
<path style="fill:#BD364B;" d="M99.68,153.576c-0.06-0.141-0.118-0.283-0.174-0.425c-10.077-25.581-13.419-57.229-1.777-82.775
	c13.651-29.957,44.022-45.065,76.835-49.262C129,15.532,76.892,28.323,57.729,70.376c-11.641,25.546-8.3,57.193,1.777,82.774
	c0.056,0.143,0.115,0.284,0.174,0.425l25.825,9.002l25.586-5.024L99.68,153.576z"/>
<path style="fill:#D85C67;" d="M445.762,186.769c-2.182,0-4.4-0.417-6.543-1.297c-78.618-32.29-181.833-30.617-182.867-30.589
	c-0.236,0.004-0.477,0.004-0.712,0c-1.028-0.021-104.242-1.7-182.86,30.589c-8.806,3.617-18.881-0.591-22.498-9.398
	c-3.617-8.807,0.59-18.88,9.398-22.498c83.776-34.408,188.198-33.313,196.319-33.174c8.128-0.145,112.544-1.234,196.32,33.174
	c8.808,3.617,13.015,13.69,9.398,22.498C458.981,182.738,452.546,186.769,445.762,186.769z"/>
<path style="fill:#BD364B;" d="M102.793,174.997c-19.402-19.164-7.387-33.751-7.355-33.789
	c-12.108,3.505-24.132,7.594-35.757,12.368c-8.808,3.618-13.015,13.69-9.398,22.498c3.617,8.807,13.691,13.015,22.498,9.398
	c9.709-3.987,19.793-7.455,30.014-10.474C102.794,174.999,102.793,174.998,102.793,174.997z"/>
<path d="M176.106,250.455c-4.142,0-7.5,3.358-7.5,7.5v14.459c0,4.142,3.358,7.5,7.5,7.5c4.143,0,7.5-3.358,7.5-7.5v-14.459
	C183.606,253.813,180.249,250.455,176.106,250.455z"/>
<path d="M335.892,250.455c-4.142,0-7.5,3.358-7.5,7.5v14.459c0,4.142,3.358,7.5,7.5,7.5s7.5-3.358,7.5-7.5v-14.459
	C343.392,253.813,340.034,250.455,335.892,250.455z"/>
<path d="M285.162,266.735c-3.119-2.727-7.857-2.408-10.583,0.71c-4.53,5.183-11.303,8.155-18.581,8.155
	c-7.278,0-14.05-2.972-18.581-8.155c-2.726-3.119-7.464-3.437-10.583-0.711c-3.118,2.726-3.437,7.464-0.711,10.583
	c7.379,8.442,18.268,13.283,29.875,13.283c11.606,0,22.495-4.841,29.874-13.283C288.599,274.199,288.281,269.461,285.162,266.735z"
	/>
<path d="M76.418,317.622c0.203,0,0.41-0.008,0.614-0.011c12.83,40.471,40.087,74.932,75.976,97.811
	c-4.835,3.656-10.79,8.809-16.733,15.608c-12.321,14.098-27.009,38.287-27.009,73.469c0,4.142,3.358,7.5,7.5,7.5h278.469
	c4.142,0,7.5-3.358,7.5-7.5c0-35.183-14.688-59.372-27.01-73.469c-5.006-5.728-10.761-11.082-16.739-15.605
	c35.892-22.878,63.151-57.341,75.981-97.814c0.204,0.002,0.411,0.011,0.614,0.011c28.959,0,52.519-23.56,52.519-52.519
	c0-16.487-7.643-31.216-19.565-40.852c-2.675-14.515-7.423-25.686-11.197-32.856c5.006-2.645,9.061-6.979,11.317-12.472
	c2.51-6.112,2.49-12.837-0.056-18.935c-1.864-4.462-4.927-8.186-8.826-10.853c-0.771-39.777-11.982-69.218-33.36-87.542
	C401.264,40.036,362.87,33.607,309.04,41.938c-10.258,1.587-19.522,2.083-28.305,1.622c1.216-3.649,3.024-7.05,5.348-9.946
	c3.7-4.611,5.396-10.517,4.651-16.204C289.463,7.712,280.793,0,270.979,0c-7.83,0-15.337,4.902-19.149,12.516
	c-0.012,0.024-0.024,0.048-0.036,0.072c-3.681,7.407-6.018,15.403-6.928,23.549c-7.717-2.706-15.625-6.073-24.111-10.017
	c-18.021-8.376-40.335-13.244-62.832-13.707c-24.378-0.502-47.058,4.096-65.591,13.296c-3.71,1.842-5.225,6.343-3.383,10.053
	c1.842,3.71,6.343,5.224,10.053,3.383c36.248-17.995,85.506-13.33,115.431,0.578c15.451,7.181,31.445,13.577,48.246,16.769
	c16.044,3.048,32.555,2.761,48.654,0.27c49.243-7.621,83.693-2.315,105.317,16.22c16.793,14.395,26.149,37.745,27.876,69.504
	c-0.051-0.019-0.103-0.037-0.154-0.056c-0.277-0.103-0.556-0.202-0.834-0.303c-81.002-29.735-174.057-29.434-187.151-29.231
	c-0.144,0.002-0.276,0.004-0.39,0.006c-0.137-0.002-0.303-0.005-0.481-0.007c-11.042-0.159-75.527-0.3-142.865,15.977
	c-13.324,3.22-26.559,6.999-39.486,11.57c-2.847,0.997-5.681,2.03-8.5,3.104c-0.195,0.074-0.392,0.146-0.587,0.22
	c-8.378-25.217-8.279-51.063,0.478-70.279c3.023-6.634,7.102-12.71,12.122-18.058c2.835-3.02,2.685-7.766-0.335-10.601
	s-7.767-2.685-10.602,0.335C59.6,51.705,54.609,59.142,50.906,67.267c-10.523,23.093-10.601,53.803-0.403,83.152
	c-3.081,2.53-5.52,5.787-7.1,9.57c-2.547,6.098-2.567,12.823-0.057,18.936c2.256,5.494,6.311,9.827,11.316,12.472
	c-3.773,7.169-8.519,18.34-11.195,32.854c-11.924,9.634-19.568,24.364-19.568,40.852C23.899,294.062,47.459,317.622,76.418,317.622z
	 M265.218,19.282c0.011-0.022,0.021-0.042,0.029-0.059c1.258-2.525,3.561-4.222,5.73-4.223c2.402-0.001,4.576,2.013,4.883,4.357
	c0.217,1.655-0.322,3.429-1.476,4.868c-4.121,5.134-7.096,11.099-8.788,17.542c-2.029-0.376-4.048-0.807-6.062-1.286
	C259.989,33.162,261.92,25.924,265.218,19.282z M73.461,177.114c-2.341,0.92-4.649,2.147-7.222,2.147
	c-0.021,0-0.041,0.003-0.061,0.003c-6.816,0.019-11.546-7.247-8.936-13.495c2.159-5.167,13.223-8.382,13.311-8.416
	c81.664-30.851,180.996-29.526,185.317-29.453c0.087,0.001,0.175,0.001,0.263,0c4.313-0.077,103.406-1.466,185.204,29.412
	c4.849,1.83,11.196,3.134,13.419,8.456c1.003,2.401,1.01,5.048,0.022,7.455c-2.011,4.895-7.82,7.314-12.71,5.31
	c-10.046-4.118-20.327-7.649-30.737-10.729c-7.891-2.331-15.872-4.394-23.83-6.225c-0.06-0.015-0.116-0.039-0.176-0.053
	c-56.054-12.904-110.169-14.125-126.824-14.166c-7.307-0.017-14.616,0.02-21.921,0.225c-32.441,0.91-64.411,4.197-96.296,10.267
	c-14.012,2.667-27.942,5.887-41.617,9.952C95.712,169.27,77.561,175.474,73.461,177.114z M248.596,180.755
	c-2.354-1.753-5.521-1.968-8.095-0.555c-0.317,0.175-32.253,17.448-75.153,17.448c-7.171,0-14.299-0.483-21.307-1.441
	c6.256-7.135,14.215-17.073,19.501-26.794c32.128-4.932,64.496-7.147,96.99-7.051c12.3,0.037,58.336,0.873,108.194,10.563
	c-5.363,3.795-12.589,8.347-21.677,12.874c-20.326,10.124-54.4,22.191-101.342,22.19c-0.312,0.005-0.572,0-0.854-0.001
	c2.432-5.58,5.103-12.659,6.603-19.645C252.072,185.473,250.952,182.509,248.596,180.755z M147.131,441.406
	c7.863-9.122,15.838-14.899,20.142-17.666c13.39,6.959,27.581,12.296,42.263,15.903V497h-37.744v-33.403c0-4.142-3.357-7.5-7.5-7.5
	c-4.142,0-7.5,3.358-7.5,7.5V497h-32.275C125.953,475.843,133.542,457.17,147.131,441.406z M224.536,442.708
	c10.389,1.704,20.936,2.55,31.463,2.55c10.523,0,21.077-0.851,31.463-2.55V497h-62.927L224.536,442.708L224.536,442.708z
	 M344.727,423.741c4.297,2.762,12.253,8.526,20.101,17.619c13.614,15.773,21.216,34.461,22.654,55.64h-32.276v-33.403
	c0-4.142-3.358-7.5-7.5-7.5s-7.5,3.358-7.5,7.5V497h-37.744v-57.358c2.973-0.731,9.078-2.489,9.194-2.524
	C323.092,433.694,334.162,429.23,344.727,423.741z M315.304,420.148c-0.141,0.049-0.281,0.099-0.422,0.148
	c-37.837,13.246-80.033,13.232-117.867-0.034c-0.075-0.026-0.15-0.053-0.226-0.079c-52.53-18.532-93.116-60.988-107.354-113.534
	c-4.61-17.014-6.346-34.819-5.144-52.403c1.585-23.191,8.336-45.972,19.566-66.316c1.22-2.211,2.494-4.387,3.815-6.54
	c11.912-3.414,24.01-6.216,35.891-8.518c-8.771,12.118-19.477,22.78-19.623,22.924c-1.946,1.925-2.688,4.757-1.938,7.39
	s2.876,4.646,5.545,5.255c12.247,2.792,24.965,4.208,37.801,4.208c28.243,0,51.814-6.707,66.422-12.223
	c-2.681,6.369-5.265,11.055-5.312,11.139c-2.651,4.791,0.772,10.906,6.229,11.141c4.342,0.188,8.717,0.283,13.02,0.283
	c83.539,0,129.947-35.24,142.103-45.932c5.519,1.322,11.038,2.761,16.517,4.332c2.327,3.792,4.503,7.675,6.51,11.645
	c13.574,26.844,19.389,57.548,16.485,87.496c-0.855,8.82-2.442,17.564-4.76,26.118C408.332,359.163,367.787,401.598,315.304,420.148
	z M473.099,265.103c0,19.522-14.988,35.61-34.061,37.361c0.369-1.684,0.715-3.38,1.028-5.076
	c3.094-16.435,3.801-33.291,2.106-49.927c-0.675-6.615-1.718-13.209-3.143-19.705c6.469,0.593,12.73,2.887,18.05,6.619
	C466.756,241.168,473.099,252.407,473.099,265.103z M445.979,213.623c-2.631-0.529-5.295-0.843-7.975-0.977
	c-1.006-0.045-2.014-0.072-3.022-0.058c-2.155-6.826-4.742-13.527-7.717-20.037c-0.681-1.491-1.377-2.977-2.1-4.45
	c0.06,0.022,0.121,0.043,0.181,0.065c1.77,0.639,9.097,3.466,11.023,4.243c1.576,0.648,3.223,1.133,4.899,1.442
	c0.079,0.015,0.157,0.034,0.236,0.048c2.212,3.584,6.142,10.771,9.29,20.923c-1.474-0.446-2.971-0.818-4.482-1.133
	C446.201,213.667,446.09,213.645,445.979,213.623z M61.204,214.823c3.151-10.165,7.087-17.355,9.292-20.929
	c0.029-0.005,0.058-0.012,0.087-0.018c3.773-0.692,7.262-2.39,10.819-3.755c1.729-0.663,3.483-1.317,5.263-1.96
	c0.056-0.02,0.112-0.04,0.167-0.06c-0.725,1.476-1.421,2.963-2.104,4.457c-2.944,6.442-5.561,13.216-7.714,20.029
	c-0.02,0.047-0.547-0.004-0.596-0.004c-3.571,0-7.15,0.358-10.647,1.086C64.231,213.989,62.707,214.368,61.204,214.823z
	 M54.931,234.369c5.233-3.67,11.581-6.019,18.039-6.611c-1.75,7.958-2.925,16.012-3.54,24.137
	c-1.266,16.715-0.135,33.496,3.39,49.887c0.049,0.227,0.09,0.456,0.14,0.683c-19.073-1.752-34.061-17.84-34.061-37.362
	C38.899,252.402,45.246,241.16,54.931,234.369z"/>
<g>
</g>
<g>
</g>
<g>
</g>
<g>
</g>
<g>
</g>
<g>
</g>
<g>
</g>
<g>
</g>
<g>
</g>
<g>
</g>
<g>
</g>
<g>
</g>
<g>
</g>
<g>
</g>
<g>
</g>
</svg>
