<svg id="Capa_1" enable-background="new 0 0 512 512" height="512" viewBox="0 0 512 512" width="512" xmlns="http://www.w3.org/2000/svg"><g><path d="m108.114 356.546h308.342v121.436h-308.342z" fill="#f6ee86"/><path d="m136.852 7.5h238.296c37.752 0 68.356 30.604 68.356 68.356v281.22h-308.83l-66.177 40.111v-321.331c0-37.752 30.603-68.356 68.355-68.356z" fill="#fbf1cf"/><path d="m185.356 7.5h-48.503c-37.753 0-68.356 30.604-68.356 68.356v321.332l66.177-40.111h125.435c-80.714-72.7-75.156-264.733-74.753-349.577z" fill="#fae0bd"/><path d="m144.958 7.5h-8.106c-37.752 0-68.355 30.604-68.355 68.356v321.332l66.177-40.111h10.284z" fill="#8eafe2"/><path d="m416.456 504.5h-280.799c-37.032 0-67.16-30.128-67.16-67.16v-40.152c0-37.032 30.128-67.159 67.16-67.159h280.799c14.938 0 27.048 12.109 27.048 27.048 0 14.938-12.11 27.048-27.048 27.048h-280.799c-7.204 0-13.065 5.86-13.065 13.064v40.152c0 7.204 5.861 13.065 13.065 13.065h280.799c14.938 0 27.048 12.109 27.048 27.048 0 14.937-12.11 27.046-27.048 27.046z" fill="#7c93dd"/><g><path d="m375.408 218.996c3.01-1.469 4.31-5.041 2.949-8.101-6.46-14.521-22.779-31.85-37.239-37.113-16.27-5.922-35.329-.257-40.325 13.469s5.963 30.316 22.233 36.238c14.46 5.263 38.1 2.478 52.382-4.493z" fill="#6fcd90"/><path d="m213.053 218.996c-3.01-1.469-4.31-5.041-2.949-8.101 6.46-14.521 22.779-31.85 37.239-37.113 16.27-5.922 35.329-.257 40.325 13.469s-5.963 30.316-22.233 36.238c-14.46 5.263-38.1 2.478-52.382-4.493z" fill="#6fcd90"/><path d="m302.714 230.617c-4.898 4.147-12.069 4.147-16.966 0-11.346-9.607-21.145-25.081-21.145-36.585 0-14.318 13.265-27.525 29.628-27.525s29.628 13.208 29.628 27.525c-.001 11.504-9.8 26.978-21.145 36.585z" fill="#8de1ce"/><path d="m265.378 189.338c19.123-6.96 35.549-25.845 26.471-50.787-8.64-23.738-50.511-37.387-73.794-40.939-5.746-.877-11.131 3.019-12.075 8.754-3.086 18.756-2.557 41.975 6.475 61.082 11.342 23.997 33.8 28.85 52.923 21.89z" fill="#f1b3c1"/><path d="m323.084 189.338c-19.123-6.96-35.549-25.845-26.471-50.787 8.64-23.738 50.511-37.387 73.794-40.939 5.746-.877 11.131 3.019 12.075 8.754 3.086 18.756 2.557 41.975-6.475 61.082-11.343 23.997-33.801 28.85-52.923 21.89z" fill="#f1b3c1"/><path d="m294.231 192.249c20.35 0 42.245-15.831 42.245-50.478 0-29.394-19.159-62.629-34.51-79.003-4.19-4.469-11.28-4.469-15.47 0-15.351 16.374-34.51 49.609-34.51 79.003 0 34.647 21.895 50.478 42.245 50.478z" fill="#f8d2e3"/></g><path d="m214.043 424.765h61.953c4.142 0 7.5-3.357 7.5-7.5 0-4.142-3.358-7.5-7.5-7.5h-61.953c-4.142 0-7.5 3.358-7.5 7.5s3.358 7.5 7.5 7.5zm175.839-319.617c-1.602-9.732-10.847-16.442-20.607-14.951-11.205 1.71-23.827 5.161-35.05 9.515-7.658-17.728-18.391-33.118-26.789-42.075-7.143-7.619-19.265-7.622-26.412 0-8.397 8.957-19.131 24.347-26.789 42.075-11.222-4.354-23.845-7.806-35.051-9.515-9.769-1.492-19.005 5.219-20.605 14.951-4.471 27.176-1.13 62.976 18.641 81.823-5.978 6.668-10.906 13.992-13.969 20.876-3.015 6.778-.155 14.637 6.511 17.89 16.729 8.165 45.182 11.697 63.13 2.664 2.605 2.981 5.33 5.672 8.009 7.941 7.723 6.539 18.935 6.539 26.659 0 2.679-2.268 5.404-4.96 8.009-7.94 6.186 3.114 13.964 5.335 25.596 5.335 13.561 0 27.828-3.262 37.531-7.999 6.667-3.253 9.528-11.111 6.513-17.891-3.063-6.883-7.991-14.207-13.969-20.875 19.787-18.862 23.13-54.54 18.642-81.824zm-176.502 2.435c.274-1.666 1.861-2.809 3.543-2.558 10.262 1.566 21.838 4.746 32.102 8.754-2.811 9.18-4.54 18.673-4.54 27.991 0 21.007 7.342 34.156 14.097 41.811-16.666 4.141-31.416-2.558-39.347-19.339-7.154-15.136-9.288-35.788-5.855-56.659zm4.108 105.212c2.702-5.625 7.101-11.803 12.282-17.314 8.055 3.664 17.54 5.127 27.758 3.56.916 5.667 3.269 11.477 6.435 16.959-12.527 5.118-33.832 2.539-46.475-3.205zm80.379 12.099c-2.107 1.783-5.166 1.783-7.273 0-10.12-8.57-18.078-21.676-18.455-30.226.149-.068.296-.14.444-.209 13.711 7.045 29.564 7.055 43.296 0 .148.069.295.141.444.209-.377 8.55-8.336 21.656-18.456 30.226zm-3.637-40.145c-17.522 0-34.745-13.585-34.745-42.979 0-25.479 16.735-57.078 32.482-73.873 1.226-1.308 3.298-1.31 4.526 0 15.746 16.795 32.481 48.394 32.481 73.873.001 28.919-16.789 42.979-34.744 42.979zm30.268 31.252c3.167-5.482 5.52-11.292 6.435-16.959 9.364 1.435 18.967.437 27.757-3.562 5.182 5.511 9.58 11.69 12.283 17.315-12.718 5.779-34.054 8.284-46.475 3.206zm44.728-51.758c-7.929 16.775-22.682 23.477-39.347 19.338 6.754-7.656 14.096-20.804 14.096-41.811 0-9.318-1.728-18.811-4.54-27.991 10.264-4.008 21.84-7.188 32.101-8.754 1.683-.247 3.271.893 3.544 2.559 3.434 20.871 1.3 41.522-5.854 56.659zm-117.616 103.343c-4.142 0-7.5 3.357-7.5 7.5s3.358 7.5 7.5 7.5h84.865c4.142 0 7.5-3.357 7.5-7.5s-3.358-7.5-7.5-7.5zm191.893-176.744c4.142 0 7.5-3.357 7.5-7.5v-7.486c0-41.828-34.028-75.856-75.855-75.856h-238.296c-41.827 0-75.855 34.028-75.855 75.855v361.484c0 16.225 5.137 31.665 14.855 44.651 9.389 12.546 22.75 22.008 37.624 26.645 3.954 1.231 8.159-.973 9.392-4.928s-.974-8.16-4.928-9.393c-25.087-7.82-41.943-30.717-41.943-56.976v-40.152c0-32.897 26.763-59.659 59.66-59.659h280.799c10.778 0 19.547 8.77 19.547 19.548s-8.769 19.548-19.547 19.548h-280.799c-11.339 0-20.565 9.225-20.565 20.564v40.152c0 11.339 9.226 20.564 20.565 20.564h280.799c10.778 0 19.547 8.77 19.547 19.548s-8.769 19.548-19.547 19.548h-263.411c-4.142 0-7.5 3.357-7.5 7.5s3.358 7.5 7.5 7.5h263.411c19.049 0 34.547-15.498 34.547-34.548 0-16.474-11.594-30.283-27.048-33.718 0-26.739 0-32.829 0-52.939 15.454-3.436 27.048-17.244 27.048-33.719v-237.607c0-4.143-3.358-7.5-7.5-7.5s-7.5 3.357-7.5 7.5v209.143c-5.563-3.832-12.296-6.083-19.547-6.083h-263.998v-307.528h222.69c33.556 0 60.855 27.3 60.855 60.855v7.486c0 4.143 3.358 7.501 7.5 7.501zm-34.547 318.923h-89.82c-4.142 0-7.5 3.358-7.5 7.5 0 4.143 3.358 7.5 7.5 7.5h89.82v18.14h-273.299c-3.068 0-5.565-2.496-5.565-5.564v-40.152c0-3.067 2.497-5.564 5.565-5.564h273.299zm-271.498-87.237h-1.801c-24.357 0-46.024 11.728-59.66 29.829v-276.502c0-33.555 27.299-60.855 60.855-60.855h.605v307.528z"/></g></svg>