<?xml version="1.0" encoding="iso-8859-1"?>
<!-- Generator: Adobe Illustrator 19.0.0, SVG Export Plug-In . SVG Version: 6.00 Build 0)  -->
<svg version="1.1" id="Capa_1" xmlns="http://www.w3.org/2000/svg" xmlns:xlink="http://www.w3.org/1999/xlink" x="0px" y="0px"
	 viewBox="0 0 512 512" style="enable-background:new 0 0 512 512;" xml:space="preserve">
<polygon style="fill:#FF9DC7;" points="350.077,232.662 303.039,99.38 303.039,99.377 303.038,99.377 303.038,99.377 
	303.038,99.377 208.963,99.377 208.963,99.377 161.924,232.662 208.961,365.948 208.963,365.942 208.963,365.948 303.039,365.948 
	303.039,365.945 303.04,365.948 "/>
<polygon style="fill:#FF8B5D;" points="397.118,99.377 397.118,99.385 397.115,99.377 350.077,232.662 397.117,365.948 
	397.118,365.945 397.118,365.948 491.193,365.948 491.193,99.377 "/>
<path style="fill:#E670A9;" d="M350.077,232.663l-17.255-48.891H179.178l-17.255,48.891l7.32,20.741
	c24.911-3.008,53.917-5.053,86.757-5.053s61.846,2.045,86.757,5.053L350.077,232.663z"/>
<path style="fill:#EA6A3D;" d="M367.331,183.772l-17.254,48.891l8.042,22.787c59.543,8.667,91.608,22.187,91.608,22.187
	l32.266-29.286l-84.879-64.578L367.331,183.772L367.331,183.772z"/>
<rect x="303.04" y="99.38" style="fill:#43C6B3;" width="94.08" height="266.57"/>
<polygon style="fill:#D85C67;" points="114.886,99.377 114.884,99.382 114.884,99.377 20.809,99.377 20.809,365.948 
	114.884,365.948 161.924,232.662 "/>
<path style="fill:#EA6A3D;" d="M453.96,43.205c-4.657-7.02-14.953-7.02-19.609,0l-12.562,18.954l22.368,13.191l22.366-13.191
	L453.96,43.205z"/>
<polygon style="fill:#FFE5A6;" points="491.193,99.377 491.193,99.378 465.339,118.514 444.156,99.377 422.973,118.514 
	397.118,99.379 397.118,99.377 397.115,99.377 421.788,62.159 466.522,62.159 491.195,99.377 "/>
<path style="fill:#00AD94;" d="M359.882,43.205c-4.657-7.02-14.953-7.02-19.609,0l-12.562,18.954l22.368,13.191l22.366-13.191
	L359.882,43.205z"/>
<polygon style="fill:#FFE5A6;" points="397.116,99.377 397.116,99.378 371.262,118.514 350.078,99.377 328.895,118.514 
	303.041,99.379 303.041,99.377 303.038,99.377 327.711,62.159 372.445,62.159 397.118,99.377 "/>
<path style="fill:#E670A9;" d="M265.805,43.205c-4.657-7.02-14.953-7.02-19.609,0l-12.562,18.954l22.368,13.191l22.366-13.191
	L265.805,43.205z"/>
<polygon style="fill:#FFE5A6;" points="303.039,99.377 303.039,99.378 277.184,118.514 256.001,99.377 234.818,118.514 
	208.963,99.379 208.963,99.377 208.96,99.377 233.634,62.159 278.368,62.159 303.041,99.377 "/>
<path style="fill:#1AA5C4;" d="M171.728,43.205c-4.657-7.02-14.953-7.02-19.609,0l-12.562,18.954l22.368,13.191l22.366-13.191
	L171.728,43.205z"/>
<path style="fill:#BD364B;" d="M32.914,245.381l29.359,32.255c0,0,32.065-13.519,91.608-22.187l8.042-22.787l-17.254-48.891H87.101
	L32.914,245.381z"/>
<rect x="114.89" y="99.38" style="fill:#50C4DF;" width="94.08" height="266.57"/>
<polygon style="fill:#FFE5A6;" points="208.961,99.377 208.961,99.378 183.107,118.514 161.924,99.377 140.741,118.514 
	114.886,99.379 114.886,99.377 114.883,99.377 139.556,62.159 184.29,62.159 208.963,99.377 "/>
<path style="fill:#BD364B;" d="M77.651,43.205c-4.657-7.02-14.953-7.02-19.609,0L45.479,62.159L67.846,75.35l22.366-13.191
	L77.651,43.205z"/>
<polygon style="fill:#FFE5A6;" points="114.884,99.377 114.884,99.378 89.03,118.514 67.846,99.377 46.663,118.514 20.809,99.379 
	20.809,99.377 20.806,99.377 45.479,62.159 90.213,62.159 114.886,99.377 "/>
<path style="fill:#D85C67;" d="M256.001,386.499l-248.5,30.334v45.502c0,6.476,5.25,11.726,11.726,11.726h473.549
	c6.476,0,11.726-5.25,11.726-11.726v-45.502L256.001,386.499z"/>
<path style="fill:#BD364B;" d="M37.501,462.335v-45.502l233.5-28.503l-15-1.831l-248.5,30.334v45.502
	c0,6.476,5.25,11.726,11.726,11.726h30C42.75,474.061,37.501,468.811,37.501,462.335z"/>
<path style="fill:#1AA5C4;" d="M114.886,262.475c23.807-5.18,55.381-10.271,94.075-12.68v-66.023h-94.075V262.475z"/>
<path style="fill:#00AD94;" d="M303.041,249.795c38.694,2.409,70.269,7.5,94.075,12.68v-78.703l-0.001-0.001h-94.074
	L303.041,249.795L303.041,249.795z"/>
<path style="fill:#FFCC4A;" d="M492.775,174.382H19.226c-6.476,0-11.726,5.25-11.726,11.726v230.726h497V186.107
	C504.501,179.631,499.251,174.382,492.775,174.382z M256.001,333.094c-106.992,0-193.727-24.83-193.727-55.458
	c0-30.629,86.734-55.458,193.727-55.458s193.727,24.83,193.727,55.458C449.727,308.265,362.993,333.094,256.001,333.094z"/>
<path style="fill:#EAAE28;" d="M49.226,174.382h-30c-6.476,0-11.726,5.25-11.726,11.726v230.726h30V186.107
	C37.501,179.632,42.75,174.382,49.226,174.382z"/>
<path style="fill:#3A484A;" d="M236.65,361.957v12.877c0,10.687,8.663,19.35,19.35,19.35l0,0c10.687,0,19.35-8.663,19.35-19.35
	v-12.877H236.65z"/>
<rect x="20.806" y="148.39" style="fill:#BD364B;" width="94.08" height="25.991"/>
<rect x="114.88" y="148.39" style="fill:#1AA5C4;" width="94.08" height="25.991"/>
<rect x="208.96" y="148.39" style="fill:#E670A9;" width="94.08" height="25.991"/>
<rect x="303.04" y="148.39" style="fill:#00AD94;" width="94.08" height="25.991"/>
<rect x="397.12" y="148.39" style="fill:#EA6A3D;" width="94.08" height="25.991"/>
<path d="M184.944,359.727v11.867c0,4.142,3.358,7.5,7.5,7.5s7.5-3.358,7.5-7.5v-11.867c0-4.142-3.358-7.5-7.5-7.5
	S184.944,355.585,184.944,359.727z"/>
<path d="M312.056,359.727v11.867c0,4.142,3.358,7.5,7.5,7.5s7.5-3.358,7.5-7.5v-11.867c0-4.142-3.358-7.5-7.5-7.5
	S312.056,355.585,312.056,359.727z"/>
<path d="M236.649,354.385c-4.142,0-7.5,3.358-7.5,7.5v12.877c0,14.805,12.045,26.85,26.851,26.85c14.805,0,26.85-12.045,26.85-26.85
	v-12.877c0-4.142-3.358-7.5-7.5-7.5H236.649z M267.85,374.762c0,6.534-5.316,11.85-11.85,11.85c-6.535,0-11.851-5.316-11.851-11.85
	v-5.377h23.701V374.762z"/>
<path d="M389.383,325.543c21.848-5.792,55.647-14.911,65.735-38.088c0.017-0.038,0.031-0.076,0.047-0.114
	c2.684-6.242,2.667-13.442-0.047-19.67c-6.311-14.499-26.753-26.996-60.069-36.533c-44.867-12.844-92.56-16.533-139.049-16.533
	c-51.285,0-104.431,3.784-153.142,21.012c-16.529,5.846-38.416,14.684-45.976,32.055c-0.016,0.037-0.03,0.074-0.046,0.111
	c-2.662,6.185-2.725,13.304,0.001,19.563c0.016,0.036,0.029,0.072,0.045,0.108c10.404,24.096,42.825,32.089,65.742,38.091
	c0.103,0.027,0.204,0.054,0.307,0.082c43.264,11.434,88.446,14.895,133.071,14.895c44.505,0,89.913-3.483,133.068-14.895
	C389.174,325.599,389.278,325.571,389.383,325.543z M385.662,311.011c-24.557,6.528-49.83,10.107-75.122,12.253v-91.401
	c26.573,2.253,53.158,6.065,78.875,13.275c0.067,0.019,0.134,0.037,0.201,0.056v64.739c-0.091,0.026-0.182,0.051-0.273,0.076
	C388.117,310.351,386.891,310.685,385.662,311.011z M126.377,311.023c-1.268-0.336-2.521-0.678-3.759-1.025
	c-0.078-0.022-0.156-0.043-0.233-0.065v-64.74c0.077-0.021,0.155-0.043,0.232-0.065c1.252-0.352,2.508-0.688,3.764-1.026
	c0.125-0.033,0.25-0.067,0.375-0.1c21.341-5.63,46.829-9.776,74.704-12.14v91.401c-27.875-2.364-53.361-6.509-74.701-12.139
	C126.632,311.091,126.505,311.057,126.377,311.023z M69.808,276.733c0.468-5.605,5.594-9.932,9.792-13.067
	c7.076-5.171,17.202-9.888,27.786-13.706v55.207c-10.589-3.819-20.719-8.538-27.795-13.712
	C74.886,288.015,69.268,283.195,69.808,276.733z M295.54,230.778v93.571c-25.918,1.558-53.155,1.558-79.079,0v-93.571
	C242.381,229.22,269.62,229.221,295.54,230.778z M442.195,278.395c-0.467,5.428-5.785,10.073-9.799,13.071
	c-7.075,5.169-17.199,9.885-27.78,13.701V249.96c10.588,3.819,20.716,8.538,27.792,13.711c6.422,4.798,9.391,9.325,9.775,13.062
	C442.24,277.295,442.242,277.849,442.195,278.395z"/>
<path d="M422.518,473.989c0-4.142-3.358-7.5-7.5-7.5H19.226c-2.33,0-4.226-1.896-4.226-4.226v-38.002h43.396
	c4.142,0,7.5-3.358,7.5-7.5s-3.358-7.5-7.5-7.5H15V186.035c0-2.33,1.896-4.226,4.226-4.226h471.967h1.582
	c2.33,0,4.226,1.896,4.226,4.226v223.226H88.396c-4.142,0-7.5,3.358-7.5,7.5s3.358,7.5,7.5,7.5H497v38.002
	c0,2.33-1.896,4.226-4.226,4.226h-47.756c-4.142,0-7.5,3.358-7.5,7.5s3.358,7.5,7.5,7.5h47.756c10.601,0,19.226-8.625,19.226-19.226
	v-45.502V186.035c0-8.535-5.595-15.781-13.307-18.284c0,0,0-68.05,0-68.055c0-1.682-0.358-3.265-1.333-4.666
	c0,0-37.119-55.996-37.151-56.044c-7.497-11.31-24.625-11.283-32.111,0.002l-30.982,46.74c0,0-30.96-46.705-30.984-46.742
	c-7.49-11.299-24.633-11.271-32.111,0.002l-30.982,46.74c0,0-30.957-46.701-30.984-46.742c-7.496-11.309-24.622-11.288-32.111,0.002
	l-30.983,46.74c0,0-30.959-46.704-30.984-46.742c-7.498-11.311-24.621-11.29-32.111,0.002l-30.982,46.74
	c0,0-30.957-46.702-30.984-46.742c-7.494-11.306-24.627-11.28-32.111,0.002L14.554,95.16c-0.798,1.203-1.224,2.649-1.242,4.088
	c0,0.02-0.004,0.039-0.004,0.059v68.445C5.596,170.253,0,177.499,0,186.035v230.726v45.502c0,10.601,8.625,19.226,19.226,19.226
	h395.792C419.16,481.489,422.518,478.131,422.518,473.989z M28.308,114.188c0,0,13.876,10.27,13.893,10.282
	c2.829,2.093,6.888,1.888,9.489-0.463l16.155-14.595L84,124.007c2.601,2.349,6.68,2.541,9.49,0.463l13.895-10.284v52.623H28.308
	V114.188z M122.385,114.188l13.893,10.282c2.835,2.098,6.873,1.877,9.49-0.463l16.155-14.595l16.155,14.595
	c2.637,2.381,6.63,2.481,9.49,0.463l13.893-10.282v52.622h-79.076L122.385,114.188L122.385,114.188z M216.461,114.187
	c0,0,13.888,10.278,13.895,10.283c2.797,2.07,6.91,1.868,9.49-0.463L256,109.412c0,0,16.144,14.585,16.155,14.595
	c2.595,2.344,6.684,2.539,9.489,0.463l13.895-10.283v52.622H216.46v-52.622H216.461z M310.54,114.188
	c0,0,13.884,10.276,13.893,10.282c2.803,2.075,6.905,1.872,9.49-0.463l16.155-14.595l16.155,14.595
	c2.601,2.349,6.679,2.539,9.49,0.463l13.893-10.282v52.622H310.54V114.188z M404.615,166.809v-52.623
	c0,0,13.886,10.277,13.895,10.284c2.795,2.068,6.913,1.865,9.49-0.463l16.155-14.595c0,0,16.151,14.592,16.155,14.595
	c2.605,2.353,6.674,2.547,9.49,0.463l13.893-10.282v52.622L404.615,166.809L404.615,166.809z M440.6,47.277
	c1.672-2.519,5.444-2.509,7.107-0.001l4.845,7.311h-16.797C435.756,54.586,440.6,47.278,440.6,47.277z M425.814,69.586h36.681
	l18.514,27.926l-15.198,11.249l-16.627-15.022c-2.855-2.58-7.2-2.58-10.056,0L422.5,108.761l-15.198-11.249L425.814,69.586z
	 M346.523,47.277c1.668-2.514,5.448-2.504,7.108-0.002l4.845,7.311h-16.797L346.523,47.277z M331.736,69.586h36.682l18.513,27.926
	l-15.198,11.249l-16.628-15.022c-2.855-2.58-7.2-2.58-10.056,0l-16.628,15.022l-15.198-11.249L331.736,69.586z M252.446,47.277
	c1.669-2.515,5.449-2.503,7.108-0.002l4.845,7.311h-16.797L252.446,47.277z M237.659,69.586h36.681l18.514,27.926l-15.198,11.249
	l-16.628-15.022c-2.855-2.58-7.2-2.58-10.056,0l-16.628,15.022l-15.198-11.25L237.659,69.586z M158.368,47.278
	c1.605-2.422,5.404-2.571,7.108-0.002l4.845,7.311h-16.797C153.524,54.586,158.351,47.303,158.368,47.278z M143.582,69.586h36.681
	l18.514,27.926l-15.198,11.249l-16.628-15.022c-2.855-2.58-7.2-2.58-10.056,0l-16.628,15.022l-15.198-11.249L143.582,69.586z
	 M64.291,47.278c1.609-2.428,5.402-2.573,7.108-0.002l4.845,7.311H59.447C59.447,54.586,64.284,47.288,64.291,47.278z
	 M49.504,69.586h36.682l18.513,27.926l-15.198,11.249L72.874,93.739c-2.855-2.58-7.2-2.58-10.056,0L46.19,108.761L30.992,97.512
	L49.504,69.586z"/>
<g>
</g>
<g>
</g>
<g>
</g>
<g>
</g>
<g>
</g>
<g>
</g>
<g>
</g>
<g>
</g>
<g>
</g>
<g>
</g>
<g>
</g>
<g>
</g>
<g>
</g>
<g>
</g>
<g>
</g>
</svg>
