<?xml version="1.0" encoding="iso-8859-1"?>
<!-- Generator: Adobe Illustrator 19.0.0, SVG Export Plug-In . SVG Version: 6.00 Build 0)  -->
<svg version="1.1" id="Capa_1" xmlns="http://www.w3.org/2000/svg" xmlns:xlink="http://www.w3.org/1999/xlink" x="0px" y="0px"
	 viewBox="0 0 512 512" style="enable-background:new 0 0 512 512;" xml:space="preserve">
<path style="fill:#C46D61;" d="M330.332,215.064c52.265,52.265,23.592,120.496-49.152,138.483c-2.298,0.568-4.485,1.58-6.249,3.158
	c-12.48,11.158-7.046,33.638-9.645,48.409c-7.33,41.671-42.114,88.611-85.251,97.367c-45.406,9.216-90.806-17.964-121.679-48.837
	C27.484,422.772,0.304,377.372,9.52,331.966c8.756-43.138,55.696-77.921,97.367-85.251c14.772-2.598,37.253,2.835,48.409-9.645
	c1.578-1.764,2.59-3.951,3.158-6.249c17.987-72.744,86.218-101.417,138.483-49.152L330.332,215.064z"/>
<path style="fill:#AD4F45;" d="M265.286,405.115c2.598-14.772-2.835-37.253,9.645-48.41c1.764-1.577,3.951-2.59,6.249-3.158
	c72.743-17.987,101.417-86.218,49.152-138.483l-14.142-14.142c52.265,52.265,23.592,120.496-49.152,138.483
	c-2.298,0.568-4.485,1.581-6.249,3.158c-12.48,11.158-7.047,33.638-9.645,48.41c-7.33,41.671-42.114,88.611-85.251,97.366
	c-41.982,8.521-83.948-14.076-114.441-41.933c2.272,2.488,4.576,4.909,6.905,7.237c30.872,30.872,76.272,58.053,121.679,48.837
	C223.174,493.726,257.957,446.786,265.286,405.115z"/>
<polygon style="fill:#DB9B8E;" points="391.356,87.251 223.041,255.565 256.436,288.961 424.751,120.646 428.397,83.604 "/>
<polygon style="fill:#BF877C;" points="428.397,83.604 412.712,85.148 410.609,106.504 242.295,274.819 256.436,288.961 
	424.751,120.646 "/>
<path style="fill:#C46D61;" d="M492.773,19.228c-13.704-13.704-33.725-15.9-44.718-4.907l-43.695,43.695l-13.004,29.234
	l33.396,33.396l29.235-13.005l43.695-43.695C508.675,52.953,506.478,32.931,492.773,19.228z"/>
<path style="fill:#AD4F45;" d="M492.773,19.228c-2.458-2.458-5.12-4.539-7.896-6.246c7.815,12.701,7.684,27.801-1.339,36.823
	L439.844,93.5l-29.234,13.005l14.142,14.142l29.234-13.005l43.695-43.695C508.675,52.953,506.478,32.931,492.773,19.228z"/>
<circle style="fill:#3A484A;" cx="226.301" cy="285.7" r="49.308"/>
<path style="fill:#DB9B8E;" d="M152.932,429.949c-3.839,0-7.678-1.465-10.606-4.394l-55.88-55.878
	c-5.858-5.857-5.858-15.354,0-21.212c5.857-5.857,15.354-5.857,21.212,0l55.879,55.879c5.858,5.857,5.858,15.354,0,21.212
	C160.609,428.484,156.77,429.949,152.932,429.949z"/>
<path style="fill:#BF877C;" d="M142.325,425.555c2.929,2.929,6.768,4.394,10.606,4.394c3.839,0,7.678-1.465,10.607-4.394
	c5.858-5.857,5.858-15.354,0-21.212l-14.141-14.141c5.857,5.857,5.856,15.354-0.001,21.21c-2.929,2.929-6.768,4.394-10.607,4.394
	c-3.839,0-7.678-1.465-10.606-4.394L142.325,425.555z"/>
<path d="M152.747,437.628c12.271,0,22.499-10.239,22.499-22.499c0-6.01-2.34-11.66-6.59-15.908l-55.879-55.879
	c-4.249-4.25-9.9-6.59-15.908-6.59c-12.26,0-22.499,10.253-22.499,22.498c0,6.011,2.341,11.661,6.59,15.909l55.879,55.879
	C141.088,435.287,146.737,437.628,152.747,437.628z M89.368,359.25c0-4.09,3.418-7.499,7.5-7.499c2.003,0,3.887,0.78,5.303,2.196
	l55.879,55.879c1.416,1.416,2.197,3.3,2.197,5.302c0,4.098-3.405,7.5-7.5,7.5c-2.003,0-3.886-0.78-5.303-2.196l-55.88-55.879
	C90.148,363.137,89.368,361.254,89.368,359.25z"/>
<path d="M52.87,459.128c12.367,12.367,32.395,29.514,57.586,40.976c17.405,7.919,34.48,11.896,50.989,11.896
	c6.732,0,13.371-0.661,19.898-1.986c47.356-9.611,83.532-60.129,91.146-103.416c1.868-10.621-4.477-41.931,10.307-45.586
	c40.349-9.977,69.808-35.225,78.802-67.539c7.361-26.442-0.3-54.53-21.017-78.052l47.484-47.484c2.929-2.929,2.929-7.678,0-10.606
	c-2.929-2.929-7.678-2.929-10.606,0c0,0-52.609,52.609-52.614,52.614l-48.801,48.802c-0.972-1.783-2.049-3.514-3.22-5.199
	c-1.941-2.791-4.133-5.429-6.538-7.834c-3.848-3.848-8.255-7.152-13.032-9.757L391.171,98.037l22.789,22.789l-15.288,15.288
	c-2.929,2.929-2.929,7.677,0,10.606c2.929,2.929,7.678,2.929,10.606,0l19.608-19.608l27.63-12.291c0,0,6.141,6.141,6.143,6.144
	c2.896,2.897,7.707,2.899,10.607,0c2.929-2.929,2.929-7.678,0-10.607l-5.698-5.698l7.57-7.571c0,0,5.694,5.694,5.698,5.698
	c2.898,2.898,7.71,2.898,10.607,0c2.929-2.929,2.929-7.678,0-10.606l-5.698-5.698l7.571-7.57l5.698,5.698
	c2.9,2.899,7.71,2.896,10.607,0c2.929-2.929,2.929-7.678,0-10.606l-5.731-5.732c6.196-6.863,8.989-16.137,7.872-26.31
	c-1.112-10.136-6.037-20.03-13.868-27.86c-8.963-8.963-20.672-14.104-32.127-14.104c-8.459,0-16.224,2.867-22.047,8.105
	l-5.728-5.729c-2.929-2.929-7.678-2.929-10.606,0c-2.929,2.929-2.929,7.678,0,10.606l5.698,5.698l-7.57,7.57l-5.699-5.698
	c-2.929-2.929-7.677-2.929-10.607,0c-2.929,2.929-2.929,7.678,0,10.607l5.698,5.698l-7.57,7.57l-5.698-5.698
	c-2.929-2.929-7.678-2.929-10.606,0c-2.929,2.929-2.929,7.678,0,10.607l6.144,6.144l-12.292,27.631l-88.304,88.304
	c-23.522-20.717-51.61-28.377-78.052-21.017c-32.313,8.995-57.561,38.453-67.538,78.8c-3.88,15.69-34.474,8.355-45.587,10.31
	c-21.445,3.772-44.394,14.546-62.962,29.561c-3.221,2.604-3.721,7.327-1.117,10.547c2.604,3.221,7.326,3.721,10.547,1.117
	c16.651-13.465,37.109-23.105,56.127-26.451c18.988-3.341,51.202,4.195,57.552-21.48c8.661-35.026,29.969-60.428,57-67.953
	c21.48-5.98,43.763,0.12,63.413,17.183l-48.23,48.231c-2.185-0.452-4.405-0.772-6.653-0.966
	c-13.523-1.188-27.417,2.678-38.391,10.662c-14.6,10.623-23.376,27.867-23.376,45.918c0,30.903,25.911,56.806,56.805,56.806
	c16.257,0,32.357-7.38,42.981-19.685c11.483-13.299,16.187-31.529,12.634-48.733l48.23-48.23
	c17.063,19.649,23.163,41.934,17.184,63.414c-7.525,27.031-32.928,48.339-67.957,57c-25.542,6.321-18.166,38.73-21.476,57.548
	c-6.598,37.51-38.814,83.087-79.356,91.316c-17.018,3.454-62.283,5.811-114.883-46.79c-52.6-52.6-50.244-97.864-46.789-114.883
	c2.27-11.184,7.476-22.204,15.472-32.756c2.502-3.301,1.854-8.005-1.447-10.508c-3.3-2.501-8.005-1.854-10.507,1.447
	c-9.369,12.36-15.497,25.425-18.218,38.833c-4.574,22.533-1.24,46.383,9.909,70.888C23.356,426.732,40.503,446.761,52.87,459.128z
	 M267.857,288.016c-1.498,32.827-42.553,52.376-68.099,30.314c-0.011-0.009-0.022-0.018-0.033-0.026
	c-9.689-7.926-15.413-19.897-15.413-32.424c0-20.82,16.066-38.951,36.712-41.489c0.118-0.014,0.236-0.03,0.354-0.043
	C246.173,241.477,268.982,263.387,267.857,288.016z M453.174,19.804c3.969-3.969,9.038-4.803,12.592-4.803
	c7.506,0,15.35,3.539,21.52,9.71c5.426,5.426,8.822,12.135,9.564,18.891c0.674,6.14-0.98,11.546-4.656,15.221l-42.712,42.711
	l-23.256,10.345l-26.109-26.108l10.345-23.256L453.174,19.804z"/>
<path d="M417.786,76.092c2.898,2.897,7.711,2.896,10.606,0l36.353-36.353c2.929-2.929,2.929-7.677,0-10.606
	c-2.929-2.929-7.678-2.929-10.606,0l-36.353,36.353C414.857,68.415,414.857,73.163,417.786,76.092z"/>
<path d="M435.904,94.211c2.803,2.803,7.664,2.941,10.606,0l36.353-36.353c2.929-2.929,2.929-7.677,0-10.606s-7.677-2.929-10.606,0
	l-36.353,36.353C432.976,86.534,432.976,91.281,435.904,94.211z"/>
<g>
</g>
<g>
</g>
<g>
</g>
<g>
</g>
<g>
</g>
<g>
</g>
<g>
</g>
<g>
</g>
<g>
</g>
<g>
</g>
<g>
</g>
<g>
</g>
<g>
</g>
<g>
</g>
<g>
</g>
</svg>
