<?xml version="1.0" encoding="iso-8859-1"?>
<!-- Generator: Adobe Illustrator 19.0.0, SVG Export Plug-In . SVG Version: 6.00 Build 0)  -->
<svg version="1.1" id="Capa_1" xmlns="http://www.w3.org/2000/svg" xmlns:xlink="http://www.w3.org/1999/xlink" x="0px" y="0px"
	 viewBox="0 0 512 512" style="enable-background:new 0 0 512 512;" xml:space="preserve">
<path style="fill:#50C4DF;" d="M277.522,122.752h-43.043c-25.956,0-46.998,21.042-46.998,46.998l0,0H324.52l0,0
	C324.52,143.794,303.478,122.752,277.522,122.752z"/>
<path style="fill:#1AA5C4;" d="M264.479,122.752h-30c-25.956,0-46.998,21.042-46.998,46.998l0,0h30l0,0
	C217.481,143.794,238.523,122.752,264.479,122.752z"/>
<g>
	<polygon style="fill:#E0DFDF;" points="174.757,251.284 147.676,227.13 120.594,251.284 93.513,349.023 120.594,470.916 
		174.757,470.916 201.838,349.023 	"/>
	<polygon style="fill:#E0DFDF;" points="283.082,251.284 256,227.13 228.919,251.284 201.838,349.023 228.919,470.916 
		283.082,470.916 310.163,349.023 	"/>
	<polygon style="fill:#E0DFDF;" points="391.407,251.284 364.325,227.13 337.244,251.284 310.163,349.023 337.244,470.916 
		391.407,470.916 418.488,349.023 	"/>
</g>
<g>
	<polygon style="fill:#EFEDEE;" points="93.513,227.13 66.432,251.284 35.344,347.553 66.432,470.916 120.594,470.916 
		120.594,251.284 	"/>
	<polygon style="fill:#EFEDEE;" points="476.657,347.553 445.569,251.284 445.569,251.284 445.569,251.284 418.488,227.13 
		391.407,251.284 391.407,470.916 445.569,470.916 445.569,470.915 445.569,470.916 	"/>
</g>
<polygon style="fill:#D1D0D0;" points="220.448,281.858 291.553,281.858 283.082,251.284 228.919,251.284 "/>
<g>
	<polygon style="fill:#EFEDEE;" points="201.838,227.13 174.757,251.284 174.757,470.916 228.919,470.916 228.919,251.284 	"/>
	<polygon style="fill:#EFEDEE;" points="310.163,227.13 283.082,251.284 283.082,470.916 337.244,470.916 337.244,251.284 	"/>
</g>
<rect x="66.43" y="251.28" style="fill:#E0DFDF;" width="54.16" height="30.573"/>
<polygon style="fill:#D1D0D0;" points="112.123,281.858 183.228,281.858 174.757,251.284 120.594,251.284 "/>
<rect x="106.03" y="251.28" style="fill:#3A484A;" width="29.12" height="133.55"/>
<rect x="174.76" y="251.28" style="fill:#E0DFDF;" width="54.16" height="30.573"/>
<rect x="160.2" y="251.28" style="fill:#3A484A;" width="29.12" height="133.55"/>
<polygon style="fill:#D1D0D0;" points="328.773,281.858 399.878,281.858 391.407,251.284 337.244,251.284 "/>
<polygon style="fill:#E0DFDF;" points="445.569,281.858 445.569,251.284 445.569,251.284 391.407,251.284 391.407,281.858 "/>
<rect x="376.85" y="251.28" style="fill:#3A484A;" width="29.12" height="133.55"/>
<rect x="283.08" y="251.28" style="fill:#E0DFDF;" width="54.16" height="30.573"/>
<g>
	<rect x="322.68" y="251.28" style="fill:#3A484A;" width="29.12" height="133.55"/>
	<rect x="268.52" y="251.28" style="fill:#3A484A;" width="29.12" height="133.55"/>
</g>
<path style="fill:#50C4DF;" d="M504.501,174.579v272.049c0,13.415-10.872,24.287-24.287,24.287H445.57V251.284H66.432v219.631
	H31.788c-13.415,0-24.287-10.872-24.287-24.287V174.579c0-13.415,10.872-24.287,24.287-24.287h448.426
	C493.629,150.292,504.501,161.164,504.501,174.579z"/>
<path style="fill:#1AA5C4;" d="M37.501,446.629v-272.05c0-13.415,10.872-24.287,24.287-24.287h-30
	c-13.415,0-24.287,10.872-24.287,24.287v272.049c0,13.415,10.872,24.287,24.287,24.287h30
	C48.372,470.916,37.501,460.044,37.501,446.629z"/>
<circle style="fill:#D85C67;" cx="93.51" cy="202.7" r="22.65"/>
<path style="fill:#BD364B;" d="M103.513,215.352c-12.509,0-22.65-10.141-22.65-22.65c0-3.676,0.881-7.145,2.436-10.214
	c-7.376,3.734-12.436,11.381-12.436,20.214c0,12.509,10.141,22.65,22.65,22.65c8.833,0,16.479-5.06,20.214-12.436
	C110.658,214.471,107.189,215.352,103.513,215.352z"/>
<circle style="fill:#3A484A;" cx="418.49" cy="202.7" r="22.65"/>
<g>
	<path style="fill:#323E40;" d="M428.488,215.352c-12.509,0-22.65-10.141-22.65-22.65c0-3.676,0.881-7.145,2.436-10.214
		c-7.376,3.734-12.436,11.381-12.436,20.214c0,12.509,10.141,22.65,22.65,22.65c8.833,0,16.479-5.06,20.214-12.436
		C435.632,214.471,432.164,215.352,428.488,215.352z"/>
	<rect x="376.85" y="251.28" style="fill:#323E40;" width="29.12" height="30.573"/>
	<rect x="268.52" y="251.28" style="fill:#323E40;" width="29.12" height="30.573"/>
	<rect x="106.03" y="251.28" style="fill:#323E40;" width="29.12" height="30.573"/>
	<rect x="160.2" y="251.28" style="fill:#323E40;" width="29.12" height="30.573"/>
	<rect x="322.68" y="251.28" style="fill:#323E40;" width="29.12" height="30.573"/>
</g>
<path d="M63.363,202.702c0,16.625,13.525,30.15,30.149,30.15s30.15-13.525,30.15-30.15s-13.525-30.15-30.15-30.15
	S63.363,186.078,63.363,202.702z M108.662,202.702c0,8.354-6.796,15.15-15.15,15.15s-15.149-6.796-15.149-15.15
	s6.796-15.15,15.149-15.15S108.662,194.349,108.662,202.702z"/>
<path d="M388.337,202.702c0,16.625,13.525,30.15,30.15,30.15s30.149-13.525,30.149-30.15s-13.525-30.15-30.149-30.15
	S388.337,186.078,388.337,202.702z M433.637,202.702c0,8.354-6.796,15.15-15.149,15.15s-15.15-6.796-15.15-15.15
	s6.796-15.15,15.15-15.15S433.637,194.349,433.637,202.702z"/>
<path d="M190.386,181.788v10.518c0,4.142,3.358,7.5,7.5,7.5s7.5-3.358,7.5-7.5v-10.518c0-4.142-3.358-7.5-7.5-7.5
	S190.386,177.646,190.386,181.788z"/>
<path d="M314.114,174.288c-4.142,0-7.5,3.358-7.5,7.5v10.518c0,4.142,3.358,7.5,7.5,7.5s7.5-3.358,7.5-7.5v-10.518
	C321.614,177.646,318.256,174.288,314.114,174.288z"/>
<path d="M264.697,186.638c-2.101,2.403-5.271,3.782-8.697,3.782s-6.596-1.378-8.697-3.782c-2.726-3.119-7.464-3.437-10.583-0.711
	s-3.437,7.464-0.711,10.583c4.95,5.662,12.236,8.91,19.991,8.91c7.754,0,15.04-3.248,19.99-8.91
	c2.727-3.119,2.408-7.856-0.71-10.583C272.161,183.201,267.422,183.519,264.697,186.638z"/>
<path d="M282.444,67.524c-1.028,0.206-2.079,0.31-3.125,0.31c-16.994,0-30.82,13.826-30.82,30.819v16.599h-14.021
	c-19.64,0-37.721,10.666-47.347,27.54h-98.85c-4.142,0-7.5,3.358-7.5,7.5s3.358,7.5,7.5,7.5h391.932
	c9.256,0,16.787,7.531,16.787,16.787v201.805c0,4.142,3.358,7.5,7.5,7.5s7.5-3.358,7.5-7.5V174.579
	c0-17.527-14.26-31.787-31.787-31.787H324.868c-9.626-16.874-27.707-27.54-47.347-27.54H263.5V98.653
	c0-8.723,7.097-15.819,15.82-15.819c2.031,0,4.072-0.202,6.065-0.601c14.344-2.867,24.754-15.576,24.754-30.219V33.585h-15v18.429
	C295.139,59.531,289.8,66.054,282.444,67.524 M205.633,142.792c7.356-7.853,17.76-12.54,28.846-12.54h43.043
	c11.085,0,21.489,4.688,28.846,12.54H205.633z"/>
<path d="M66.431,243.784c-4.035,0-7.5,3.47-7.5,7.5v212.131H31.787c-9.256,0-16.787-7.53-16.787-16.787V174.579
	c0-9.256,7.53-16.787,16.787-16.787h26.495c4.142,0,7.5-3.358,7.5-7.5s-3.358-7.5-7.5-7.5H31.787
	C14.259,142.792,0,157.052,0,174.579v272.049c0,17.527,14.259,31.787,31.787,31.787h448.426c17.527,0,31.787-14.259,31.787-31.787
	v-40.245c0-4.142-3.358-7.5-7.5-7.5s-7.5,3.358-7.5,7.5v40.245c0,9.256-7.531,16.787-16.787,16.787h-27.145V251.284
	c0-4.049-3.446-7.5-7.5-7.5H66.431z M127.654,258.784V377.33h-14.121V258.784H127.654z M181.816,258.784V377.33h-14.121V258.784
	H181.816z M290.142,258.784V377.33h-14.121V258.784H290.142z M344.304,258.784V377.33h-14.121V258.784H344.304z M398.466,258.784
	V377.33h-14.121V258.784H398.466z M438.068,463.415h-39.163V392.33h7.061c4.142,0,7.5-3.358,7.5-7.5l0,0V258.784h24.602V463.415z
	 M369.345,384.83L369.345,384.83c0,4.142,3.358,7.5,7.5,7.5h7.061v71.085h-39.163V392.33h7.061c4.142,0,7.5-3.358,7.5-7.5l0,0
	V258.784h10.042V384.83H369.345z M315.183,384.83L315.183,384.83c0,4.142,3.358,7.5,7.5,7.5h7.061v71.085h-39.162V392.33h7.061
	c4.142,0,7.5-3.358,7.5-7.5l0,0V258.784h10.041V384.83H315.183z M261.021,384.83L261.021,384.83c0,4.142,3.358,7.5,7.5,7.5h7.061
	v71.085h-39.163V258.784h24.602V384.83z M221.418,463.415h-39.163V392.33h7.061c4.142,0,7.5-3.358,7.5-7.5l0,0V258.784h24.602
	L221.418,463.415L221.418,463.415z M152.695,384.83L152.695,384.83c0,4.142,3.358,7.5,7.5,7.5h7.061v71.085h-39.162V392.33h7.061
	c4.142,0,7.5-3.358,7.5-7.5l0,0V258.784h10.041V384.83H152.695z M73.931,258.784h24.602V384.83l0,0c0,4.142,3.358,7.5,7.5,7.5h7.061
	v71.085H73.931V258.784z"/>
<g>
</g>
<g>
</g>
<g>
</g>
<g>
</g>
<g>
</g>
<g>
</g>
<g>
</g>
<g>
</g>
<g>
</g>
<g>
</g>
<g>
</g>
<g>
</g>
<g>
</g>
<g>
</g>
<g>
</g>
</svg>
