<svg id="Capa_1" enable-background="new 0 0 512.021 512.021" height="512" viewBox="0 0 512.021 512.021" width="512" xmlns="http://www.w3.org/2000/svg"><g><path d="m31.753 441.588c-8.316-4.059-11.907-13.926-8.146-22.381 17.845-40.114 62.929-87.987 102.874-102.525 44.947-16.359 97.598-.711 111.4 37.209s-16.473 83.751-61.42 100.11c-39.945 14.538-105.253 6.845-144.708-12.413z" fill="#6fcd90"/><path d="m480.268 441.588c8.316-4.059 11.907-13.926 8.146-22.381-17.845-40.114-62.929-87.987-102.874-102.525-44.947-16.359-97.598-.711-111.4 37.209s16.473 83.751 61.42 100.11c39.945 14.538 105.253 6.845 144.708-12.413z" fill="#6fcd90"/><path d="m278.311 487.204c-12.875 10.901-31.726 10.901-44.601 0-29.827-25.255-55.587-65.935-55.587-96.176 0-37.639 34.871-72.36 77.887-72.36s77.887 34.722 77.887 72.36c0 30.241-25.759 70.921-55.586 96.176z" fill="#8de1ce"/><path d="m183.843 271.098c38.897-6.859 75.412-44.498 63.734-110.722-9.96-56.485-58.244-113.867-93.15-139.795-9.255-6.874-22.279-4.578-28.624 5.047-23.934 36.304-49.68 106.738-39.72 163.224 11.677 66.225 58.863 89.105 97.76 82.246z" fill="#f1b3c1"/><path d="m176.302 377.247c52.827-19.228 98.206-71.399 73.127-140.303-23.868-65.577-139.54-103.284-203.859-113.096-15.874-2.422-30.751 8.339-33.358 24.185-8.523 51.814-7.062 115.958 17.887 168.741 31.335 66.294 93.376 79.701 146.203 60.473z" fill="#f8d2e3"/><path d="m328.178 271.098c-38.897-6.859-75.412-44.498-63.734-110.722 9.96-56.485 58.244-113.867 93.15-139.795 9.255-6.874 22.279-4.578 28.624 5.047 23.934 36.304 49.68 106.738 39.72 163.224-11.677 66.225-58.863 89.105-97.76 82.246z" fill="#f1b3c1"/><path d="m249.429 236.945c-15.203-41.771-67.655-72.23-120.357-91.379-10.775 29.207-19.765 64.342-19.765 100.274 0 51.446 15.909 101.548 54.944 135.177 4.058-1.068 8.081-2.325 12.051-3.77 52.828-19.228 98.206-71.399 73.127-140.302z" fill="#f1b3c1"/><path d="m335.718 377.247c-52.827-19.228-98.206-71.399-73.127-140.303 23.869-65.577 139.541-103.284 203.859-113.096 15.874-2.422 30.751 8.339 33.358 24.185 8.524 51.814 7.063 115.958-17.886 168.741-31.335 66.294-93.376 79.701-146.204 60.473z" fill="#f8d2e3"/><path d="m262.591 236.945c15.203-41.771 67.655-72.23 120.357-91.379 10.775 29.207 19.765 64.342 19.765 100.274 0 51.446-15.909 101.548-54.944 135.177-4.058-1.068-8.081-2.325-12.051-3.77-52.827-19.228-98.206-71.399-73.127-140.302z" fill="#f1b3c1"/><path d="m256.01 385.287c56.218 0 116.703-43.734 116.703-139.448 0-81.202-52.927-173.016-95.336-218.25-11.574-12.345-31.161-12.345-42.735 0-42.408 45.234-95.336 137.049-95.336 218.25.001 95.715 60.487 139.448 116.704 139.448z" fill="#f8d2e3"/><g><g fill="#fff"><ellipse cx="182.754" cy="220.008" rx="27.03" ry="21.525"/><ellipse cx="329.267" cy="220.008" rx="27.03" ry="21.525"/></g></g><path d="m266.794 210.941c0-6.351-4.828-11.5-10.783-11.5s-10.783 5.149-10.783 11.5c0 6.352 4.828 11.5 10.783 11.5 5.955.001 10.783-5.148 10.783-11.5zm-49.413-24.691c-3.123-2.721-7.86-2.396-10.582.727-2.094 2.403-5.117 3.781-8.293 3.781s-6.198-1.378-8.292-3.781c-2.722-3.123-7.459-3.447-10.582-.727-3.123 2.722-3.448 7.459-.727 10.582 4.944 5.672 12.088 8.926 19.601 8.926s14.657-3.253 19.601-8.926c2.722-3.123 2.397-7.86-.726-10.582zm271.322 133.729c24.488-51.81 27.884-116.16 18.506-173.165-3.254-19.779-22.042-33.407-41.89-30.381-10.773 1.644-22.038 3.9-33.438 6.638-3.287-18.062-8.711-36.944-15.857-55.098-1.517-3.854-5.87-5.747-9.726-4.232-3.854 1.518-5.749 5.872-4.232 9.726 6.936 17.622 12.157 35.926 15.247 53.352-19.95 5.47-39.865 12.301-57.92 19.967-11.196-28.523-25.724-55.22-40.571-77.805 13.613-16.653 29.168-31.924 43.245-42.381 5.79-4.301 13.904-2.892 17.891 3.155 2.327 3.529 4.675 7.405 6.98 11.521 2.024 3.614 6.595 4.903 10.208 2.879 3.614-2.024 4.903-6.594 2.879-10.208-2.481-4.43-5.02-8.619-7.544-12.448-8.712-13.214-26.614-16.408-39.358-6.94-14.282 10.609-29.344 25.161-43.106 41.548-9.426-13.245-18.738-24.659-27.165-33.648-14.52-15.488-39.156-15.491-53.678 0-8.426 8.987-17.736 20.398-27.16 33.64-13.762-16.385-28.83-30.931-43.112-41.54-12.675-9.415-30.6-6.345-39.358 6.94-14.366 21.791-31.776 59.324-39.408 101.571-11.398-2.738-22.661-4.994-33.432-6.637-19.843-3.03-38.635 10.602-41.889 30.381-9.377 56.999-5.984 121.35 18.506 173.164 7.856 16.62 17.92 30.7 29.843 41.926-15.746 17.563-28.554 36.602-36.406 54.254-5.422 12.188-.279 26.318 11.708 32.169 3.66 1.787 7.589 3.505 11.679 5.108 3.857 1.51 8.208-.389 9.72-4.246 1.511-3.856-.39-8.208-4.246-9.72-3.716-1.457-7.273-3.011-10.572-4.621-4.693-2.291-6.706-7.822-4.584-12.593 7.3-16.409 19.365-34.246 34.267-50.781 31.098 22.484 69.93 26.274 106.036 15.497-1.149 18.694 6.38 38.14 15.6 54.427-4.042 2.142-8.212 4.005-12.467 5.554-23.571 8.579-60.049 9.402-95.195 2.146-4.055-.836-8.024 1.772-8.861 5.829s1.773 8.024 5.829 8.861c32.07 6.62 72.907 8.343 103.358-2.741 5.23-1.903 10.344-4.219 15.284-6.895 10.104 14.852 22.356 28.447 34.553 38.775 15.727 13.317 38.561 13.321 54.294 0 12.197-10.328 24.449-23.922 34.553-38.774 4.94 2.676 10.055 4.991 15.284 6.895 42.363 15.419 109.875 7.141 150.564-12.721 11.987-5.851 17.13-19.982 11.708-32.169-7.853-17.652-20.661-36.691-36.406-54.254 11.919-11.225 21.983-25.304 29.839-41.925zm-356.638-290.223c3.979-6.036 12.088-7.464 17.89-3.155 14.077 10.457 29.633 25.728 43.245 42.381-14.847 22.586-29.376 49.282-40.572 77.805-18.055-7.665-37.969-14.497-57.919-19.967 7.173-40.573 24.318-77.288 37.356-97.064zm-34.416 342.257c-26.052-9.243-47.066-29.452-60.769-58.444-20.884-44.182-27.177-104.075-17.267-164.319 1.927-11.713 13.066-19.778 24.827-17.988 33.175 5.061 71.147 16.01 102.995 29.609-9.546 27.662-15.627 56.64-15.627 84.968 0 57.91 21.5 97.74 50.446 120.9-26.616 11.825-57.198 14.997-84.605 5.274zm49.158-126.173c0-45.03 16.874-89.772 31.031-119.378 16.942-35.432 39.641-69.6 62.276-93.743 8.587-9.159 23.139-9.23 31.793 0 22.635 24.143 45.333 58.311 62.276 93.742 14.156 29.606 31.031 74.348 31.031 119.378 0 63.55-34.173 131.948-109.203 131.948s-109.204-68.397-109.204-131.947zm126.657 235.64c-10.113 8.564-24.794 8.564-34.907 0-30.177-25.552-52.934-64.438-52.934-90.453 0-3.214.311-6.488.914-9.774 3.38-1.448 6.712-3.025 9.98-4.718 17.966 10.508 38.557 16.252 59.493 16.252s41.527-5.744 59.493-16.252c3.268 1.694 6.6 3.271 9.98 4.718.603 3.286.914 6.56.914 9.774.001 26.015-22.756 64.902-52.933 90.453zm208.097-59.225c2.122 4.771.109 10.302-4.584 12.593-37.286 18.2-100.574 26.037-138.853 12.104-4.255-1.549-8.425-3.411-12.466-5.554 9.186-16.229 16.761-35.732 15.604-54.426 36.036 10.754 74.853 7.045 106.032-15.499 14.903 16.537 26.967 34.373 34.267 50.782zm-67.189-50.242c-27.371 9.709-58.101 6.557-84.607-5.271 28.95-23.163 50.448-63 50.448-120.902 0-28.329-6.081-57.307-15.627-84.968 31.848-13.599 69.82-24.548 102.995-29.609 11.759-1.788 22.899 6.275 24.827 17.988 9.91 60.245 3.617 120.137-17.267 164.319-13.703 28.991-34.717 49.2-60.769 58.443zm-100.858-166.255c7.513 0 14.657-3.253 19.601-8.926 2.721-3.123 2.396-7.86-.727-10.582-3.123-2.721-7.861-2.396-10.582.727-2.094 2.403-5.116 3.781-8.292 3.781s-6.199-1.378-8.292-3.781c-2.722-3.123-7.459-3.447-10.582-.727-3.123 2.722-3.448 7.459-.727 10.582 4.944 5.672 12.088 8.926 19.601 8.926z"/></g></svg>