<?xml version="1.0" encoding="iso-8859-1"?>
<!-- Generator: Adobe Illustrator 19.0.0, SVG Export Plug-In . SVG Version: 6.00 Build 0)  -->
<svg version="1.1" id="Capa_1" xmlns="http://www.w3.org/2000/svg" xmlns:xlink="http://www.w3.org/1999/xlink" x="0px" y="0px"
	 viewBox="0 0 512 512" style="enable-background:new 0 0 512 512;" xml:space="preserve">
<path style="fill:#D2D6D8;" d="M129.063,45.069l106.751-1.756c12.869-0.212,23.473,10.049,23.685,22.918l1.869,113.632
	l-153.354,2.523l-1.869-113.632C105.933,55.885,116.193,45.281,129.063,45.069z"/>
<path style="fill:#DFE2E5;" d="M223.748,108.454l105.611,15.656c12.732,1.887,21.523,13.738,19.635,26.47l-16.665,112.419
	l-151.717-22.491l16.665-112.419C199.165,115.357,211.016,106.566,223.748,108.454z"/>
<circle style="fill:#96D7E8;" cx="476.012" cy="275.261" r="28.479"/>
<path style="fill:#5FBDFF;" d="M368.34,122.99c51.341-12.878,95.652,155.286,95.652,155.286s40.304,169.169-11.037,182.048
	L393.972,295.84L368.34,122.99z"/>
<path style="fill:#ECEFF1;" d="M162.436,122.032L56.825,137.688c-12.732,1.887-21.523,13.738-19.635,26.47l16.665,112.419
	l151.717-22.491l-16.665-112.419C187.019,128.936,175.168,120.145,162.436,122.032z"/>
<path style="fill:#FDD974;" d="M345.535,204.278H31.37c-13.428,0-24.211,11.073-23.86,24.49
	c2.871,109.518,24.707,159.614,42.235,199.359c0.196,0.444,0.393,0.878,0.609,1.312l138.098,19.625l138.098-19.625
	c0.217-0.434,0.413-0.868,0.609-1.312c17.528-39.746,39.364-89.841,42.235-199.359C369.757,215.351,358.963,204.278,345.535,204.278
	z"/>
<g>
	<path style="fill:#E6C468;" d="M90.354,429.44c-0.217-0.434-0.413-0.868-0.609-1.312c-17.528-39.746-39.364-89.841-42.235-199.359
		c-0.351-13.417,10.432-24.49,23.86-24.49h-40c-13.428,0-24.211,11.073-23.86,24.49c2.871,109.518,24.707,159.614,42.235,199.359
		c0.196,0.444,0.393,0.878,0.609,1.312l138.098,19.625l20-2.842L90.354,429.44z"/>
	<path style="fill:#E6C468;" d="M326.551,429.44c-11.166,23.953-35.335,39.25-61.85,39.25H112.204
		c-26.515,0-50.684-15.297-61.85-39.25H326.551z"/>
</g>
<path style="fill:#CAAC5C;" d="M90.354,429.44h-40c11.166,23.953,35.335,39.25,61.85,39.25h40
	C125.69,468.69,101.52,453.392,90.354,429.44z"/>
<rect x="220.059" y="278.666" transform="matrix(-0.2433 -0.97 0.97 -0.2433 202.8318 749.9598)" style="fill:#96D7E8;" width="347.797" height="34.388"/>
<path d="M82.707,164.748c-0.607-4.097-4.422-6.928-8.519-6.319c-4.097,0.607-6.927,4.421-6.319,8.519l1.042,7.027
	c0.552,3.725,3.754,6.401,7.41,6.401c0.366,0,0.736-0.027,1.109-0.082c4.097-0.607,6.927-4.421,6.319-8.519L82.707,164.748z"/>
<path d="M160.358,153.237c-0.607-4.097-4.422-6.928-8.519-6.319c-4.097,0.607-6.927,4.421-6.319,8.519l1.042,7.027
	c0.552,3.725,3.754,6.401,7.41,6.401c0.366,0,0.736-0.027,1.109-0.082c4.097-0.607,6.927-4.421,6.319-8.519L160.358,153.237z"/>
<path d="M130.981,159.048c-3.484-2.239-8.125-1.23-10.364,2.255c-1.233,1.918-3.344,3.227-5.792,3.589
	c-2.452,0.365-4.848-0.277-6.584-1.755c-3.154-2.685-7.888-2.305-10.572,0.849c-2.686,3.154-2.305,7.887,0.849,10.572
	c4.148,3.532,9.461,5.434,14.969,5.434c1.174,0,2.356-0.086,3.539-0.262c6.73-0.998,12.639-4.759,16.211-10.319
	C135.475,165.927,134.466,161.287,130.981,159.048z"/>
<path d="M308.758,166.715c4.339,0.642,7.527-2.355,8.518-6.319l1.042-7.027c0.607-4.097-2.222-7.911-6.319-8.519
	c-4.103-0.609-7.911,2.222-8.519,6.319l-1.042,7.027C301.831,162.294,304.661,166.108,308.758,166.715z"/>
<path d="M231.106,155.204c4.043,0.598,7.919-2.276,8.518-6.319l1.042-7.027c0.607-4.097-2.222-7.911-6.319-8.519
	c-4.103-0.61-7.911,2.222-8.519,6.319l-1.042,7.027C224.18,150.783,227.009,154.597,231.106,155.204z"/>
<path d="M269.162,166.153c6.568,0.974,13.433-0.851,18.508-5.172c3.154-2.685,3.534-7.418,0.849-10.572
	c-2.685-3.155-7.419-3.533-10.572-0.849c-1.737,1.479-4.135,2.119-6.585,1.756c-2.448-0.363-4.559-1.671-5.792-3.59
	c-2.24-3.486-6.88-4.495-10.364-2.255c-3.485,2.239-4.495,6.879-2.255,10.364C256.523,161.394,262.432,165.155,269.162,166.153z"/>
<path d="M222.301,88.707c0.042,0,0.083,0,0.125-0.001c4.142-0.068,7.444-3.48,7.376-7.622l-0.117-7.103
	c-0.068-4.142-3.486-7.424-7.622-7.376c-4.142,0.068-7.444,3.48-7.376,7.622l0.117,7.103
	C214.872,85.43,218.216,88.707,222.301,88.707z"/>
<path d="M143.574,67.897c-4.142,0.068-7.444,3.48-7.376,7.622l0.117,7.103c0.067,4.1,3.412,7.377,7.497,7.377
	c0.042,0,0.083,0,0.125-0.001c4.142-0.068,7.444-3.48,7.376-7.622l-0.117-7.103C151.128,71.131,147.692,67.852,143.574,67.897z"/>
<path d="M182.869,94.604c0.133,0,0.267-0.001,0.4-0.003c6.803-0.112,13.151-3.071,17.418-8.119
	c2.674-3.163,2.278-7.896-0.886-10.569c-3.164-2.676-7.896-2.277-10.569,0.886c-1.472,1.741-3.736,2.764-6.21,2.804
	c-2.472,0.048-4.77-0.906-6.299-2.599c-2.778-3.073-7.52-3.313-10.593-0.537c-3.073,2.777-3.313,7.52-0.537,10.593
	C169.937,91.869,176.214,94.604,182.869,94.604z"/>
<path d="M510.914,266.506c-4.826-19.242-24.407-30.973-43.652-26.145c-2.14,0.537-4.224,1.271-6.222,2.187
	c-5.825-17.644-13.917-39.851-23.706-60.773c-1.755-3.751-6.218-5.37-9.972-3.615c-3.752,1.755-5.37,6.22-3.615,9.972
	c19.364,41.391,32.343,89.614,32.971,91.97c0.512,2.173,10.044,43.093,13.536,84.991c3.724,44.689-0.636,73.968-12.309,84.292
	l-80.038-319.087c12.295,2.973,24.286,18.854,32.794,33.019c2.133,3.551,6.74,4.701,10.291,2.568
	c3.551-2.133,4.701-6.74,2.568-10.291c-18.767-31.248-37.958-44.666-57.053-39.876l-23.406,5.871
	c-3.781-2.542-8.081-4.222-12.642-4.898l-62.783-9.307c0,0-0.678-41.247-0.679-41.275c-0.276-16.809-14.53-30.547-31.307-30.294
	c0,0-106.664,1.755-106.75,1.756c-16.726,0.275-30.569,14.625-30.294,31.308l0.903,54.895l-43.823,6.497
	c-8.139,1.207-15.321,5.51-20.224,12.119c-4.902,6.608-6.938,14.73-5.731,22.869l4.672,31.521h-3.074
	c-8.534,0-16.514,3.367-22.469,9.48c-5.955,6.113-9.112,14.177-8.889,22.707C2.94,340.58,25.088,390.801,42.886,431.158
	c0.21,0.475,0.756,1.623,0.764,1.638c12.382,26.366,39.265,43.393,68.556,43.393h152.496c29.289,0,56.171-17.024,68.56-43.399
	c0.256-0.545,0.519-1.086,0.762-1.637c12.922-29.301,28.448-64.515,36.924-125.616c0,0,41.366,164.913,41.382,164.977
	c0.99,3.947,5.149,6.444,9.1,5.45l33.353-8.366c25.392-6.369,35.626-41.276,30.42-103.75c-1.584-19.014-4.323-37.583-6.954-52.68
	c2.195-0.136,4.381-0.472,6.522-1.009C504.013,305.332,515.742,285.749,510.914,266.506z M327.495,131.531
	c0.01,0.554,0.084,1.113,0.219,1.65l10.232,40.792l-3.381,22.805H204.66l-4.991-33.665c0,0,5.025-33.897,5.029-33.925
	c1.264-8.526,9.421-14.581,17.952-13.316l104.837,15.541C327.487,131.452,327.494,131.492,327.495,131.531z M114.515,121.554
	c0,0-0.869-52.842-0.871-52.922c-0.141-8.583,6.995-15.923,15.543-16.063c0,0,106.568-1.753,106.75-1.756
	c8.625-0.142,15.921,6.932,16.063,15.543l0.638,38.799c0,0-27.773-4.117-27.789-4.119c-13.659-2.025-27.417,5.63-32.839,18.336
	c-0.87,2.038-1.517,4.172-1.931,6.348c-0.016,0.084-0.036,0.166-0.052,0.25c-0.044-0.055-0.093-0.106-0.137-0.161
	c-3.768-4.684-8.885-8.212-14.609-10.058c-4.431-1.429-9.29-1.828-13.945-1.137L114.515,121.554z M44.61,163.058
	c-0.619-4.176,0.425-8.343,2.94-11.733s6.2-5.599,10.375-6.218c0,0,105.45-15.632,105.612-15.656
	c6.148-0.911,12.687,2.174,15.882,7.505c1.053,1.758,1.76,3.723,2.07,5.811l8.007,54.011H49.608L44.61,163.058z M360.263,262.944
	c-5.833,82.593-23.697,125.206-38.57,158.995H142.438c-4.142,0-7.5,3.358-7.5,7.5s3.358,7.5,7.5,7.5h170.91
	c-11.308,15.026-29.322,24.25-48.646,24.25H112.205c-19.324,0-37.338-9.224-48.646-24.25h48.919c4.142,0,7.5-3.358,7.5-7.5
	s-3.358-7.5-7.5-7.5H55.215c-17.007-38.634-37.434-87.612-40.207-193.367c-0.238-9.079,7.305-16.794,16.362-16.794h314.166
	c0.645,0,1.286,0.038,1.921,0.112L360.263,262.944z M425.054,459.59l-80.966-322.784l18.803-4.716l80.966,322.784L425.054,459.59z
	 M481.12,295.609c-1.873,0.47-3.76,0.678-5.636,0.633c-2.266-11.552-4.023-18.987-4.194-19.705
	c-0.014-0.058-0.028-0.115-0.043-0.173c-0.204-0.774-2.161-8.147-5.6-19.353c1.634-0.928,3.393-1.632,5.265-2.101
	c11.221-2.817,22.639,4.025,25.454,15.245C499.18,281.376,492.341,292.795,481.12,295.609z"/>
<g>
</g>
<g>
</g>
<g>
</g>
<g>
</g>
<g>
</g>
<g>
</g>
<g>
</g>
<g>
</g>
<g>
</g>
<g>
</g>
<g>
</g>
<g>
</g>
<g>
</g>
<g>
</g>
<g>
</g>
</svg>
