<svg id="Capa_1" enable-background="new 0 0 512.014 512.014" height="512" viewBox="0 0 512.014 512.014" width="512" xmlns="http://www.w3.org/2000/svg"><g><g><path d="m439.929 447.261c-35.536-25.126-58.33-43.532-89.855-84.232 3.027-7.227 4.675-14.922 4.675-22.914 0-41.571-44.211-75.271-98.748-75.271s-98.748 33.7-98.748 75.271c0 2.88.233 5.718.646 8.514-24.148 6.823-53.22 15.734-64.621 21.134-11.654 5.521-18.768 17.586-17.957 30.455.332 5.26 3.751 52.383 21.5 87.107 7.919 15.493 26.898 21.635 42.394 13.715 15.493-7.92 21.634-26.9 13.714-42.393-5.681-11.115-9.432-26.294-11.741-39.29 18.959-5.996 45.132-11.467 59.301-14.989 15.82 8.212 34.928 11.018 55.511 11.018 17.306 0 33.564-3.403 47.708-9.365 33.114 41.956 59.908 64.455 99.842 92.691 14.206 10.045 33.87 6.672 43.914-7.537 10.046-14.207 6.673-33.869-7.535-43.914z" fill="#cb9d82"/><path d="m350.074 363.029c3.027-7.227 4.675-14.922 4.675-22.914 0-41.571-44.211-75.271-98.748-75.271s-98.748 33.7-98.748 75.271c0 2.88.233 5.718.646 8.514-24.148 6.823-53.22 15.734-64.621 21.134-11.654 5.521-18.768 17.586-17.957 30.455.268 4.25 2.556 35.823 12.783 66.108 12.686-9.445 36.461-18.976 60.394-18.14-3.284-9.214-5.666-19.573-7.31-28.829 18.959-5.996 45.132-11.467 59.301-14.989 15.82 8.212 34.928 11.018 55.511 11.018 17.306 0 33.564-3.403 47.708-9.365 26.613 33.719 49.15 54.872 77.701 76.535 3.166-13.837 20.323-40.648 41.25-47.781-26.339-19.611-46.469-38.029-72.585-71.746z" fill="#4b5165"/><path d="m38.965 222.765c-15.927-7.009-23.157-25.601-16.149-41.528 7.009-15.925 25.602-23.155 41.527-16.148 17.82 7.841 133.378 35.104 151.618 34.617 17.375-.481 31.925 13.116 32.469 30.507.544 17.392-13.121 31.932-30.512 32.476-30.952.944-155.643-29.667-178.953-39.924z" fill="#cb9d82"/><path d="m294.086 262.689c-17.391-.544-31.05-15.084-30.506-32.476s15.08-31.098 32.475-30.506c17.395.56 117.169-14.052 156.783-23.776 16.895-4.147 33.961 6.188 38.109 23.087s-6.188 33.962-23.087 38.109c-32.703 8.027-143.917 26.479-173.774 25.562z" fill="#cb9d82"/><path d="m256.001 377.834c23.724 0 104.784-5.209 101.002-42.689-6.293-62.355-49.765-166.579-101.002-166.579s-94.709 104.224-101.002 166.579c-3.782 37.48 77.279 42.689 101.002 42.689z" fill="#d1c4e9"/><path d="m256.001 254.87c25.686 0 50.471-5.581 72.572-16.079-18.587-38.725-44.405-70.226-72.572-70.226s-53.985 31.501-72.572 70.226c22.102 10.498 46.886 16.079 72.572 16.079z" fill="#b0ade2"/><ellipse cx="256.001" cy="116.185" fill="#cb9d82" rx="124.876" ry="108.685"/><path d="m301.058 217.574c-151.93-18.68-131.514-155.438-103.023-197.671-39.775 18.177-66.909 54.469-66.909 96.282 0 60.025 55.909 108.685 124.876 108.685 15.887 0 31.078-2.588 45.056-7.296z" fill="#b7856b"/><ellipse cx="373.817" cy="64.417" fill="#353947" rx="41.157" ry="41.157" transform="matrix(.707 -.707 .707 .707 63.939 283.196)"/><path d="m256.001 7.5c-41.803 0-78.803 17.88-101.469 45.329 62.506 25.777 121.032 21.838 159.41 10.528 7.644-2.253 15.645 2.034 18.066 9.626 7.225 22.649 17.134 41.85 27.812 48.35l19.307-23.33c-9.941-51.368-61.278-90.503-123.126-90.503z" fill="#4b5165"/></g><g><g fill="#f8d2e3"><ellipse cx="164.647" cy="138.34" rx="29.355" ry="23.377"/><ellipse cx="323.761" cy="138.34" rx="29.355" ry="23.377"/></g></g><path d="m407.428 116.185c0-17.49-14.179-31.669-31.669-31.669s-21.432 14.179-21.432 31.669 3.942 31.669 21.432 31.669 31.669-14.179 31.669-31.669z" fill="#b7856b"/><path d="m498.23 197.23c-5.138-20.932-26.236-33.72-47.181-28.583-20.16 4.948-56.121 11.161-88.082 15.911 7.509-9.045 13.557-19.007 17.82-29.539 19.229-2.478 34.139-18.943 34.139-38.835 0-6.957-1.831-13.49-5.025-19.159 8.047-8.891 12.571-20.447 12.571-32.61 0-26.829-21.827-48.656-48.656-48.656-11.851 0-23.159 4.313-31.966 12.002-24.095-18.078-54.154-27.761-85.849-27.761-72.992 0-132.376 52.12-132.376 116.185 0 23.076 7.706 44.601 20.976 62.7-21.772-5.002-43.757-10.507-59.164-14.862-3.985-1.129-8.13 1.19-9.257 5.176s1.19 8.131 5.176 9.258c20.676 5.847 52.987 13.722 80.972 19.744 7.503 6.602 15.903 12.418 25.024 17.293-6.039 10.218-11.676 21.538-16.716 33.406-49.059-9.431-113.68-26.411-128.651-32.999-12.116-5.332-17.636-19.527-12.305-31.642 3.421-7.774 10.501-13.064 18.939-14.149 4.108-.528 7.01-4.287 6.481-8.396s-4.291-7.018-8.396-6.481c-13.494 1.736-25.278 10.543-30.754 22.984-8.663 19.686.306 42.749 19.993 51.412 17.049 7.503 81.801 24.191 129.052 33.454-8.9 23.926-15.217 49.097-17.458 71.308-.324 3.212-.175 6.306.428 9.277-17.414 5.032-45.865 13.617-57.897 19.317-14.516 6.876-23.242 21.676-22.231 37.706.342 5.419 3.874 53.985 22.307 90.048 9.789 19.151 33.335 26.77 52.485 16.98 19.151-9.789 26.768-33.334 16.979-52.485-4.559-8.918-7.715-20.694-9.778-30.647 16.666-4.808 36.784-9.142 49.778-12.281 14.939 7.117 33.427 10.582 56.393 10.582 15.667 0 31.205-2.706 45.294-7.86 32.205 40.002 59.564 62.686 97.926 89.811 21.712 15.352 51.947 4.916 59.778-20.28 1.229-3.956-.98-8.159-4.936-9.389-3.96-1.228-8.159.981-9.389 4.935-4.82 15.507-23.429 21.935-36.794 12.485-6.219-4.397-12.104-8.642-17.735-12.836 4.411-11.354 16.528-29.428 31.434-36.456 12.274 9.027 13.928 9.839 15.99 11.641 3.118 2.724 7.857 2.41 10.583-.71 2.727-3.118 2.408-7.856-.71-10.583-1.015-.887-2.088-1.731-3.186-2.507-35.912-25.392-57.243-43.236-85.672-79.391 1.16-3.364 2.034-6.792 2.644-10.241 2.768-5.234 3.855-10.963 3.234-17.114-2.167-21.477-8.142-45.724-16.582-68.935 44.741-5.923 100.4-15.801 121.765-21.045 20.937-5.14 33.724-26.242 28.585-47.183zm-122.471-56.876c-7.049 0-13.932-1.866-13.932-24.169 0-22.302 6.883-24.168 13.932-24.168 13.327 0 24.169 10.842 24.169 24.168 0 13.327-10.842 24.169-24.169 24.169zm-1.942-109.594c18.559 0 33.656 15.098 33.656 33.656 0 7.75-2.658 15.144-7.43 21.072-5.438-4.312-12.041-7.208-19.255-8.137-5.936-14.663-15.314-28.234-27.318-39.735 5.804-4.413 12.925-6.856 20.347-6.856zm-117.816-15.76c50.988 0 92.235 27.571 109.055 63.783-7.966 2.913-13.035 9.132-15.679 17.346-3.637-7.107-7.133-15.743-10.219-25.416-3.698-11.589-15.688-17.986-27.298-14.561-21.637 6.38-77.57 17.932-144.369-6.351 21.535-21.31 53.228-34.801 88.51-34.801zm-117.376 101.185c0-19.967 6.746-38.6 18.373-54.299 73.327 28.438 135.434 15.635 159.106 8.653 3.71-1.094 7.565.981 8.763 4.734 4.475 14.023 11.834 32.707 22.021 44.523.48 14.658 4.314 28.714 18.151 33.785-16.804 36.199-58.001 63.789-109.037 63.789-64.722 0-117.377-45.391-117.377-101.185zm-2.823 378.178c-11.784 6.024-26.276 1.336-32.302-10.45-2.39-4.676-4.51-9.593-6.389-14.608 11.217-6.851 28.604-13.127 46.233-13.63.908 2.21 1.871 4.356 2.909 6.385 6.023 11.788 1.335 26.278-10.451 32.303zm272.835-60.868c-13.559 8.946-24.867 23.999-30.785 36.846-24.315-19.177-44.517-38.888-68.256-68.966-2.09-2.648-5.69-3.575-8.801-2.265-13.621 5.741-29.11 8.776-44.794 8.776-21.84 0-38.867-3.328-52.056-10.175-1.621-.842-3.493-1.064-5.265-.622-14.324 3.56-40.411 8.999-59.754 15.117-3.589 1.135-5.781 4.755-5.123 8.462 1.049 5.908 2.534 13.031 4.549 20.251-17.307 1.293-33.867 7.023-46.017 13.807-7.485-26.22-9.296-51.281-9.529-54.98-.622-9.865 4.749-18.974 13.683-23.205 8.543-4.047 30.113-11.154 58.235-19.21 28.905 34.469 145.761 35.738 189.574 10.487 22.826 29.445 40.966 47.389 64.339 65.677zm-59.096-97.598c2.78 27.53-65.472 34.437-93.54 34.437-27.945 0-96.317-6.904-93.54-34.437 3.624-35.904 19.242-81.793 38.556-114.035 16.756 6.743 35.377 10.508 54.984 10.508 19.271 0 37.898-3.587 55.009-10.466 19.304 32.241 34.91 78.106 38.531 113.993zm116.53-106.054c-21.578 5.297-78.975 15.432-123.799 21.22-5.263-12.641-11.208-24.703-17.605-35.531 7.605-4.066 13.812-8.163 20.176-13.239 36.053-4.902 84.72-12.925 109.783-19.077 12.881-3.164 25.873 4.704 29.036 17.591 3.164 12.884-4.703 25.873-17.591 29.036zm-159.419-106.506c4.142 0 7.5-3.357 7.5-7.5v-12c0-4.143-3.358-7.5-7.5-7.5-4.143 0-7.5 3.357-7.5 7.5v12c0 4.142 3.358 7.5 7.5 7.5zm-40.33-2.929c2.721-3.122 2.397-7.86-.727-10.582-3.123-2.722-7.86-2.396-10.581.726-2.73 3.132-6.669 4.928-10.81 4.928-4.14 0-8.081-1.796-10.811-4.928-2.723-3.125-7.46-3.448-10.582-.726s-3.447 7.459-.725 10.581c5.58 6.401 13.641 10.072 22.118 10.072 8.477.001 16.539-3.669 22.118-10.071zm-84.567-24.071c-4.142 0-7.5 3.357-7.5 7.5v12c0 4.143 3.358 7.5 7.5 7.5s7.5-3.357 7.5-7.5v-12c0-4.143-3.358-7.5-7.5-7.5z"/></g></svg>