<?xml version="1.0" encoding="iso-8859-1"?>
<!-- Generator: Adobe Illustrator 19.0.0, SVG Export Plug-In . SVG Version: 6.00 Build 0)  -->
<svg version="1.1" id="Capa_1" xmlns="http://www.w3.org/2000/svg" xmlns:xlink="http://www.w3.org/1999/xlink" x="0px" y="0px"
	 viewBox="0 0 512 512" style="enable-background:new 0 0 512 512;" xml:space="preserve">
<rect x="132.57" y="194.19" style="fill:#D4D2D3;" width="30.346" height="63.85"/>
<path style="fill:#BAB8B9;" d="M214.576,272.762c0-16.336-13.243-29.578-29.578-29.578h-74.501
	c-16.336,0-29.578,13.243-29.578,29.578l0,0l0,0l66.828,17.778L214.576,272.762L214.576,272.762L214.576,272.762z"/>
<g>
	<path style="fill:#00AD94;" d="M333.812,77.308c-8.016-4.847-18.444,0.272-19.513,9.578c-1.843,16.054,2.49,37.636,13.036,59.122
		c14.459,29.456,36.204,49.785,53.711,52.195c8.802-15.324,6.022-44.962-8.437-74.418C362.063,102.299,347.639,85.67,333.812,77.308
		z"/>
	<path style="fill:#00AD94;" d="M452.518,77.308c8.016-4.847,18.444,0.272,19.513,9.578c1.843,16.054-2.49,37.636-13.036,59.122
		c-14.459,29.456-36.204,49.785-53.711,52.195c-8.802-15.324-6.022-44.962,8.437-74.418
		C424.267,102.299,438.691,85.67,452.518,77.308z"/>
</g>
<path style="fill:#3AC7B4;" d="M404.033,61.094c-5.06-7.883-16.677-7.883-21.736,0c-8.728,13.599-14.349,34.882-14.349,58.817
	c0,32.814,10.564,60.644,25.217,70.522c14.653-9.878,25.217-37.708,25.217-70.522C418.382,95.977,412.762,74.693,404.033,61.094z"/>
<polygon style="fill:#EC6A34;" points="323.959,180.645 339.957,272.762 393.165,290.54 446.373,272.762 462.371,180.645 
	393.165,165.261 "/>
<path style="fill:#BAB8B9;" d="M250.866,37.55H44.628c-10.358,0-18.755,8.397-18.755,18.755V194.55
	c0,10.358,8.397,18.755,18.755,18.755h206.238c10.358,0,18.755-8.397,18.755-18.755V56.305
	C269.621,45.947,261.224,37.55,250.866,37.55z"/>
<path style="fill:#A19FA0;" d="M75.874,194.55V56.304c0-10.357,8.397-18.754,18.755-18.754h-50
	c-10.358,0-18.755,8.397-18.755,18.754V194.55c0,10.358,8.397,18.754,18.755,18.754h50C84.27,213.304,75.874,204.908,75.874,194.55z
	"/>
<rect x="58.53" y="70.21" style="fill:#465059;" width="178.43" height="110.44"/>
<rect x="58.53" y="70.21" style="fill:#3C474D;" width="17.341" height="110.44"/>
<polygon style="fill:#D96130;" points="323.959,180.645 327.433,200.645 458.898,200.645 462.371,180.645 393.165,165.261 "/>
<path style="fill:#FF8C57;" d="M462.371,149.877H323.959c-4.067,0-7.363,3.297-7.363,7.363v16.042c0,4.067,3.297,7.363,7.363,7.363
	h138.412c4.067,0,7.363-3.297,7.363-7.363V157.24C469.734,153.174,466.438,149.877,462.371,149.877z"/>
<g>
	<path style="fill:#D4D2D3;" d="M32.826,309.078v149.518c0,8.756,7.098,15.854,15.854,15.854h34.287
		c8.756,0,15.854-7.098,15.854-15.854V309.078H32.826z"/>
	<path style="fill:#D4D2D3;" d="M479.173,309.078v149.518c0,8.756-7.098,15.854-15.854,15.854h-34.287
		c-8.756,0-15.854-7.098-15.854-15.854V309.078H479.173z"/>
</g>
<g>
	<rect x="413.18" y="309.08" style="fill:#BAB8B9;" width="65.996" height="59.681"/>
	<rect x="32.826" y="309.08" style="fill:#BAB8B9;" width="65.996" height="59.681"/>
</g>
<path style="fill:#EFEDEE;" d="M472.21,272.762H39.79c-17.833,0-32.29,14.457-32.29,32.29v33.705h497v-33.705
	C504.5,287.219,490.043,272.762,472.21,272.762z"/>
<path d="M244.461,180.645V70.21c0-4.142-3.358-7.5-7.5-7.5H58.533c-4.142,0-7.5,3.358-7.5,7.5v110.436c0,4.142,3.358,7.5,7.5,7.5
	h28.641c4.142,0,7.5-3.358,7.5-7.5s-3.358-7.5-7.5-7.5H66.033V77.71h163.428v95.436H117.174c-4.142,0-7.5,3.358-7.5,7.5
	s3.358,7.5,7.5,7.5h119.788C241.104,188.145,244.461,184.787,244.461,180.645z"/>
<path d="M116.578,127.059v-6.999c0-4.142-3.358-7.5-7.5-7.5s-7.5,3.358-7.5,7.5v6.999c0,4.142,3.358,7.5,7.5,7.5
	S116.578,131.201,116.578,127.059z"/>
<path d="M193.917,127.059v-6.999c0-4.142-3.358-7.5-7.5-7.5s-7.5,3.358-7.5,7.5v6.999c0,4.142,3.358,7.5,7.5,7.5
	S193.917,131.201,193.917,127.059z"/>
<path d="M147.747,138.295c5.884,0,11.421-2.474,15.191-6.787c2.726-3.119,2.408-7.856-0.71-10.583
	c-3.118-2.727-7.857-2.409-10.583,0.71c-0.922,1.054-2.342,1.659-3.898,1.659s-2.976-0.605-3.897-1.659
	c-2.726-3.118-7.464-3.437-10.583-0.71c-3.119,2.726-3.437,7.464-0.711,10.583C136.327,135.821,141.864,138.295,147.747,138.295z"/>
<path d="M7.5,346.259h17.826v112.337c0,12.877,10.477,23.354,23.354,23.354h34.287c12.877,0,23.354-10.477,23.354-23.354V346.259
	h299.356v112.337c0,12.877,10.477,23.354,23.354,23.354h34.288c12.877,0,23.354-10.477,23.354-23.354V346.259H504.5
	c4.142,0,7.5-3.358,7.5-7.5v-33.706c0-21.94-17.85-39.79-39.79-39.79h-16.923l13.663-78.673c4.9-2.433,8.284-7.476,8.284-13.308
	V157.24c0-6.065-3.657-11.286-8.877-13.594c8.986-20.293,13.033-41.006,11.125-57.616c-1.66-14.453-18.393-22.67-30.845-15.14
	c-8.67,5.243-17.209,13.148-24.972,22.969c-2.506-14.297-7.064-27.071-13.319-36.816c-3.762-5.862-10.185-9.362-17.18-9.362
	s-13.418,3.5-17.18,9.361c-6.256,9.746-10.814,22.52-13.32,36.816c-7.764-9.821-16.303-17.727-24.973-22.969
	c-3.185-1.926-6.815-2.943-10.499-2.943c-10.416,0-19.163,7.774-20.346,18.083c-1.907,16.611,2.14,37.325,11.126,57.616
	c-5.221,2.308-8.878,7.529-8.878,13.595v16.042c0,5.832,3.384,10.875,8.284,13.308l13.663,78.673h-109.73
	c-3.478-16.862-18.439-29.578-36.315-29.578H170.42v-14.88h80.446c14.477,0,26.254-11.777,26.254-26.254V56.305
	c0-14.477-11.777-26.255-26.254-26.255H44.628c-14.477,0-26.254,11.778-26.254,26.255V194.55c0,14.477,11.778,26.254,26.254,26.254
	h80.446v14.88h-14.577c-17.876,0-32.837,12.716-36.315,29.578H39.79c-21.94,0-39.79,17.85-39.79,39.79v33.706
	C0,342.9,3.358,346.259,7.5,346.259z M91.322,458.596c0,4.606-3.748,8.354-8.354,8.354H48.681c-4.607,0-8.354-3.748-8.354-8.354
	V346.259h50.996L91.322,458.596L91.322,458.596z M471.673,458.596c0,4.606-3.748,8.354-8.354,8.354h-34.288
	c-4.606,0-8.354-3.748-8.354-8.354V346.259h50.995v112.337H471.673z M425.856,117.128c8.832-14.849,19.889-26.958,30.543-33.401
	c3.306-1.999,7.742,0.19,8.181,4.016c1.731,15.07-2.812,35.472-12.157,54.635h-11.382l12.852-26.181
	c1.825-3.718,0.29-8.212-3.428-10.038c-3.716-1.824-8.211-0.291-10.038,3.428l-16.095,32.791h-0.082
	c0.04-0.264,0.066-0.534,0.104-0.798c1.025-7.174,1.529-14.421,1.529-21.667C425.882,118.998,425.874,118.076,425.856,117.128z
	 M388.609,65.145c1.427-2.223,3.662-2.463,4.556-2.463s3.129,0.24,4.557,2.464c7.692,11.984,12.487,30.622,13.092,50.5
	c0.149,4.858,0.044,9.724-0.309,14.571c-0.282,3.877-0.412,7.837-1.359,11.625c-0.029,0.18-0.063,0.357-0.094,0.537h-8.388V95.398
	c0-4.143-3.358-7.5-7.5-7.5s-7.5,3.357-7.5,7.5v46.979c0,0-8.387,0-8.388,0c-0.121-0.026-0.234-1.434-0.257-1.58
	c-1.284-8.301-1.784-16.757-1.504-25.151C376.12,95.769,380.916,77.131,388.609,65.145z M321.75,87.741
	c0.357-3.114,3.071-4.794,5.444-4.794c0.961,0,1.882,0.262,2.737,0.779c10.654,6.442,21.71,18.551,30.543,33.401
	c-0.018,0.949-0.026,1.871-0.026,2.785c0,7.244,0.518,14.495,1.529,21.667c0.038,0.265,0.064,0.535,0.104,0.798h-0.082
	l-16.095-32.791c-1.826-3.719-6.32-5.253-10.038-3.428s-5.253,6.319-3.428,10.038l12.851,26.181h-11.381
	C324.563,123.213,320.02,102.812,321.75,87.741z M462.234,157.377v15.768h-23.768c-4.142,0-7.5,3.358-7.5,7.5s3.358,7.5,7.5,7.5
	h14.99l-13.393,77.117h-93.796l-13.393-77.117h75.682c4.142,0,7.5-3.358,7.5-7.5s-3.358-7.5-7.5-7.5h-84.46v-15.768L462.234,157.377
	L462.234,157.377z M33.374,194.55V56.305c0-6.206,5.049-11.255,11.254-11.255h206.239c6.206,0,11.254,5.049,11.254,11.255V194.55
	c0,6.206-5.048,11.254-11.254,11.254H44.628C38.422,205.804,33.374,200.756,33.374,194.55z M140.074,220.804h15.346v14.88h-15.346
	V220.804z M110.497,250.684h74.501c9.542,0,17.69,6.085,20.767,14.578H89.73C92.807,256.769,100.955,250.684,110.497,250.684z
	 M15,305.052c0-13.669,11.121-24.79,24.79-24.79h432.42c13.669,0,24.79,11.121,24.79,24.79v26.206H15V305.052z"/>
<g>
</g>
<g>
</g>
<g>
</g>
<g>
</g>
<g>
</g>
<g>
</g>
<g>
</g>
<g>
</g>
<g>
</g>
<g>
</g>
<g>
</g>
<g>
</g>
<g>
</g>
<g>
</g>
<g>
</g>
</svg>
