<?xml version="1.0" encoding="iso-8859-1"?>
<!-- Generator: Adobe Illustrator 19.0.0, SVG Export Plug-In . SVG Version: 6.00 Build 0)  -->
<svg version="1.1" id="Capa_1" xmlns="http://www.w3.org/2000/svg" xmlns:xlink="http://www.w3.org/1999/xlink" x="0px" y="0px"
	 viewBox="0 0 512 512" style="enable-background:new 0 0 512 512;" xml:space="preserve">
<g>
	<path style="fill:#FF9DC7;" d="M321.718,7.515c-5.048,12.107-13.639,19.133-25.144,28.539
		c-19.589,16.011-43.967,35.937-59.064,87.306l33.047,9.712c12.095-41.151,30.254-55.994,47.816-70.349
		c15.999-13.078,32.489-26.562,39.468-55.207C357.841,7.515,321.718,7.515,321.718,7.515z"/>
	<path style="fill:#FF9DC7;" d="M292.825,20.139c-3.591-3.74-7.899-8.228-11.873-12.625h-42.493
		c5.657,11.623,16.662,23.087,29.52,36.479c21.972,22.884,49.317,51.364,49.317,82.732h34.443
		C351.74,81.5,317.688,46.035,292.825,20.139z"/>
	<path style="fill:#FF9DC7;" d="M134.142,257.396c-36.534,74.432-36.904,109.453-39.223,151.083
		c-2.319,41.63,6.684,64.154,38.709,74.429l17.312,5.554c32.026,10.274,52.451-2.809,74.784-38.018s42.406-63.908,55.992-145.703
		L134.142,257.396z"/>
</g>
<g>
	<path style="fill:#E670A9;" d="M124.978,428.518c2.319-41.63,2.688-76.651,39.223-151.083l115.801,37.152
		c0.582-3.197,1.154-6.472,1.715-9.845l-147.575-47.345c-36.534,74.432-36.904,109.453-39.223,151.083
		c-2.319,41.63,6.684,64.154,38.709,74.429l1.243,0.399C126.148,470.658,123.622,452.858,124.978,428.518z"/>
	<path style="fill:#E670A9;" d="M270.555,133.071c4.796-16.318,10.548-28.489,16.835-38.142c-5.459-3.079-11.243-5.641-17.31-7.587
		c-5.302-1.701-10.722-2.903-16.205-3.63c-6.072,10.725-11.669,23.662-16.367,39.647L270.555,133.071z"/>
</g>
<path style="fill:#EFEDEE;" d="M194.762,354.579l-18.888-6.06c-18.121-5.813-33.056-19.074-40.974-36.38
	c-7.911-17.291-8.188-37.24-0.758-54.742L179.22,149.34c0.013-0.032,0.027-0.062,0.04-0.094
	c6.638-15.607,18.788-28.089,34.21-35.146c15.423-7.056,32.81-8.089,48.96-2.908s29.692,16.137,38.13,30.848
	c8.439,14.712,11.06,31.932,7.378,48.488c-0.007,0.034-0.014,0.066-0.022,0.1l-26.199,114.113
	c-4.139,18.557-15.969,34.623-32.463,44.084C232.745,358.295,212.884,360.392,194.762,354.579z"/>
<g>
	<path style="fill:#FF9DC7;" d="M211.806,151.778c9.7-12.16,26.057-17.461,41.604-12.473c15.464,4.962,25.656,18.669,26.567,34.101
		l0.016,0.248c-0.047,0.055-0.101,0.116-0.149,0.171l-8.831,27.82l-48.748,46.138l-58.829,16.074l29.219-70.042l16.005,3.276
		L211.806,151.778z"/>
	<path style="fill:#FF9DC7;" d="M241.669,317.985c-2.132,1.978-4.503,3.738-7.105,5.231c-9.462,5.428-20.395,6.583-30.783,3.249
		l-18.888-6.06c-10.387-3.332-18.608-10.631-23.146-20.551c-1.248-2.729-2.152-5.54-2.736-8.389l9.924-15.361l27.751-17.192
		l76.351-54.732l-1.925,14.807l-0.087,0.385l-16.775,73.066l-0.119,0.518l-18.328-9.98L241.669,317.985z"/>
</g>
<g>
	<path style="fill:#E670A9;" d="M279.993,173.654c0.179,3.418-0.089,6.915-0.865,10.422l-8.016,34.912
		c-3.397,3.303-6.984,6.689-10.751,10.115c-34.589,31.456-68.606,52.37-101.352,62.363c-1.538-7.508-0.777-15.284,2.319-22.561
		c0.013-0.032,0.026-0.063,0.039-0.094l2.066-4.952C215.689,243.302,261.006,195.663,279.993,173.654z"/>
	<path style="fill:#E670A9;" d="M204.298,242.02c7.37-4.925,14.438-10.157,21.132-15.502c-8.493-29.977-12.12-58.237-13.625-74.74
		c-2.134,2.675-3.951,5.677-5.36,8.98l-13.791,33.06c0.841,4.663,1.788,9.503,2.86,14.482
		C198.063,220.144,200.994,231.385,204.298,242.02z"/>
	<path style="fill:#E670A9;" d="M252.908,298.287c0.008-0.034,0.015-0.067,0.023-0.099l1.2-5.229
		c-8.342-12.87-15.078-27.085-20.531-41.536c-6.975,5.288-13.918,10.137-20.824,14.539c8.061,20.043,17.708,37.425,28.892,52.025
		C247.288,312.774,251.192,306.006,252.908,298.287z"/>
</g>
<path style="fill:#FF9DC7;" d="M257.026,289.597c-12.05,82.035-1.703,115.495,8.806,155.842
	c10.51,40.348,25.963,59.046,59.595,59.046h18.181c33.633,0,49.086-18.698,59.595-59.046c10.51-40.349,20.856-73.807,8.806-155.842
	H257.026z"/>
<g>
	<path style="fill:#E670A9;" d="M305.91,445.439c-10.51-40.348-20.856-73.807-8.806-155.842h-40.078
		c-12.05,82.035-1.704,115.495,8.806,155.842c10.51,40.349,25.963,59.046,59.595,59.046h18.181c3.89,0,7.525-0.262,10.948-0.767
		C328.375,499.859,315.204,481.122,305.91,445.439z"/>
	<path style="fill:#E670A9;" d="M342.781,86.518c-2.736-0.242-5.493-0.374-8.264-0.374c-9.709,0-19.239,1.527-28.304,4.425
		c6.682,11.472,11.084,23.582,11.084,36.158h34.443C351.74,112.335,348.283,98.937,342.781,86.518z"/>
</g>
<path style="fill:#EFEDEE;" d="M344.436,363.615H324.6c-19.031,0-37.303-8.064-50.129-22.124
	c-12.815-14.047-19.172-32.958-17.445-51.893l9.913-116.662c0.003-0.034,0.006-0.068,0.009-0.102
	c1.553-16.889,9.308-32.485,21.838-43.916c12.53-11.43,28.77-17.726,45.731-17.726c16.96,0,33.202,6.295,45.732,17.726
	c12.529,11.43,20.286,27.027,21.838,43.916c0.004,0.034,0.007,0.068,0.01,0.102l9.913,116.661
	c1.728,18.934-4.629,37.846-17.445,51.894C381.738,355.55,363.467,363.615,344.436,363.615z"/>
<g>
	<path style="fill:#FF9DC7;" d="M298.712,165.303c5.522-14.541,19.478-24.587,35.805-24.587c16.241,0,30.133,9.939,35.714,24.355
		l0.091,0.231c-0.028,0.067-0.061,0.141-0.089,0.208l0.089,29.189l-32.323,58.825l-51.107,33.278l6.426-75.619l16.241-1.769
		L298.712,165.303z"/>
	<path style="fill:#FF9DC7;" d="M377.922,314.442c-1.426,2.534-3.145,4.935-5.168,7.152c-7.352,8.059-17.409,12.498-28.319,12.498
		h-19.836c-10.908,0-20.966-4.438-28.318-12.498c-2.023-2.217-3.742-4.618-5.168-7.152l4.757-17.658l21.172-24.848l55.981-75.44
		l2.691,14.688l0.034,0.393l6.347,74.698l0.045,0.529l-20.501-3.905L377.922,314.442z"/>
</g>
<g>
	<path style="fill:#E670A9;" d="M370.322,165.303c1.214,3.199,2.028,6.613,2.361,10.188l3.033,35.692
		c-2.225,4.183-4.606,8.503-7.147,12.916c-23.326,40.518-49.328,70.824-77.455,90.342c-3.757-6.679-5.409-14.316-4.684-22.19
		c0.003-0.035,0.006-0.068,0.009-0.102l0.454-5.346C330.369,251.266,358.966,192.06,370.322,165.303z"/>
	<path style="fill:#E670A9;" d="M319.131,253.524c5.514-6.942,10.646-14.083,15.387-21.216
		c-17.245-25.949-29.33-51.75-35.805-67.005c-1.214,3.199-2.028,6.613-2.361,10.188l-3.033,35.692
		c2.225,4.183,4.606,8.503,7.147,12.916C306.51,234.598,312.737,244.406,319.131,253.524z"/>
	<path style="fill:#E670A9;" d="M382.606,292.251c-0.003-0.035-0.006-0.068-0.009-0.102l-0.454-5.346
		c-11.875-9.707-22.631-21.183-32.239-33.279c-5.026,7.166-10.156,13.904-15.387,20.206c13.798,16.622,28.294,30.226,43.405,40.711
		C381.679,307.763,383.33,300.126,382.606,292.251z"/>
</g>
<path d="M334.4,133.201c-19.228,0-36.04,11.554-42.83,29.433c-1.482,3.903-2.43,7.993-2.823,12.22L279.29,286.15
	c0,0.006-0.002,0.011-0.002,0.017l-0.459,5.397c-0.858,9.321,1.085,18.507,5.618,26.564c0.006,0.011,0.014,0.021,0.021,0.032
	c1.723,3.058,3.79,5.918,6.145,8.5c8.793,9.64,20.822,14.948,33.87,14.948h19.836c13.047,0,25.077-5.308,33.871-14.948
	c2.363-2.59,4.437-5.461,6.165-8.532c0.001-0.002,0.002-0.005,0.003-0.007c4.53-8.055,6.472-17.238,5.611-26.607l-0.454-5.346
	c0-0.001,0-0.003-0.001-0.004l-9.465-111.37c-0.389-4.167-1.336-8.258-2.818-12.159c-0.003-0.009-0.009-0.017-0.012-0.026
	c-0.005-0.013-0.008-0.026-0.013-0.038l-0.083-0.213C370.265,144.646,353.495,133.201,334.4,133.201z M374.226,302.466
	c-2.38-1.875-4.722-3.793-7.018-5.77c-8.099-6.977-15.6-14.598-22.646-22.63c-0.13-0.149-0.261-0.301-0.391-0.45
	c1.273-1.603,5.279-6.83,6.004-7.804c0.463,0.541,0.929,1.065,1.394,1.599c7.175,8.245,14.894,16.084,23.234,23.157l0.192,2.263
	c0.002,0.023,0.007,0.085,0.009,0.108c0.302,3.279,0.09,6.53-0.612,9.655C374.337,302.551,374.281,302.51,374.226,302.466z
	 M361.725,249.318c2.78-4.224,5.475-8.503,8.118-12.816c0.106-0.175,0.214-0.348,0.322-0.523l2.748,32.338
	c-0.351-0.354-0.702-0.7-1.053-1.059c-4.364-4.461-8.539-9.109-12.528-13.906c-0.054-0.065-0.107-0.133-0.161-0.198
	C360.03,251.88,360.882,250.601,361.725,249.318z M367.921,209.594c-0.067,0.126-0.135,0.251-0.202,0.378
	c-5.625,10.421-11.664,20.621-18.171,30.517c-13.915,21.155-30.077,41.149-49.491,57.519c-1.688,1.424-3.6,2.989-5.416,4.408
	c-0.078,0.061-0.156,0.119-0.233,0.179c-0.704-3.125-0.915-6.374-0.613-9.655c0.001-0.017,0.012-0.137,0.013-0.154l0.188-2.217
	c0.395-0.335,0.783-0.681,1.175-1.02c17.704-15.267,32.503-33.611,45.439-53.011c0.013-0.02,0.026-0.04,0.047-0.071
	c10.437-15.706,19.003-31.286,25.732-44.887L367.921,209.594z M304.381,195.52c6.344,12.497,13.274,24.607,20.807,36.425
	c0.057,0.089,0.111,0.177,0.168,0.267c-2.032,2.935-4.043,5.741-6.02,8.404c-0.14-0.213-0.282-0.427-0.422-0.641
	c-6.373-9.716-12.283-19.731-17.807-29.952c-0.077-0.142-0.153-0.285-0.229-0.428l1.529-18.003c0.204,0.413,0.424,0.841,0.631,1.256
	C303.481,193.732,303.924,194.619,304.381,195.52z M299.121,236.77c3.345,5.513,6.824,10.946,10.442,16.284
	c-4.934,5.934-9.54,10.963-13.667,15.157l2.738-32.23C298.796,236.245,298.96,236.505,299.121,236.77z M334.4,148.23
	c11.914,0,22.475,6.61,27.616,17.067c-0.894,2.064-1.786,4.129-2.724,6.173c-5.959,13.165-14.249,29.715-24.89,46.913
	c-0.821-1.326-1.629-2.649-2.422-3.966c-8.347-13.873-15.864-28.251-22.51-43.015c-0.895-1.987-1.776-3.979-2.643-5.977
	c-0.018-0.041-0.033-0.078-0.051-0.118C311.903,154.844,322.456,148.23,334.4,148.23z M367.085,316.529
	c-5.911,6.48-13.996,10.048-22.767,10.048h-19.836c-8.77,0-16.856-3.569-22.766-10.048c-0.106-0.116-0.211-0.233-0.316-0.352
	c0.129-0.098,0.258-0.203,0.387-0.302c10.127-7.706,19.505-16.381,28.159-25.704c1.501-1.617,2.991-3.245,4.454-4.897
	c0.15,0.17,0.305,0.333,0.455,0.503c9.76,10.995,20.461,21.208,32.174,30.111c0.124,0.094,0.247,0.195,0.372,0.29
	C367.296,316.297,367.191,316.413,367.085,316.529z"/>
<path d="M102.609,403.323c0.191-3.551,0.382-7.069,0.595-10.582c0.25-4.142-2.904-7.704-7.047-7.956
	c-4.132-0.242-7.704,2.904-7.956,7.047c-0.214,3.546-0.407,7.096-0.6,10.68c-2.046,37.495,2.822,74.464,43.613,87.552
	c0,0,17.307,5.552,17.313,5.554c38.384,12.314,67.396-15.944,86.395-45.818c5.883-9.241,11.565-18.168,17.021-27.945
	c1.606,6.81,3.342,13.431,5.095,20.117C266.544,478.296,282.477,512,325.31,512c0,0,18.174,0,18.18,0
	c41.328,0,59.08-34.907,68.27-70.027c9.915-37.803,19.281-73.513,7.601-153.229l-9.895-116.45c0,0-0.015-0.147-0.014-0.147
	c-1.723-18.76-10.338-36.083-24.256-48.78c-8.153-7.437-17.726-12.899-28.04-16.163c-3.626-18.094-11.943-34.411-21.995-48.975
	c12.537-11.423,24.215-25.763,29.861-48.935c1.135-4.66-2.515-9.294-7.3-9.294h-36.122c-3.033,0-5.769,1.824-6.936,4.623
	c-2.576,6.177-6.254,10.844-11.378,15.7c-1.755-1.842-3.482-3.642-5.158-5.389c-3.477-3.621-7.804-8.128-11.72-12.459
	C284.983,0.899,282.958,0,280.833,0c0,0-42.424,0-42.493,0c-5.446,0-9.145,5.899-6.757,10.803
	c6.177,12.691,17.613,24.602,30.856,38.395c1.315,1.37,2.654,2.765,4.008,4.183c-12.218,13.476-21.604,28.703-29.078,47.161
	c-9.389,0.517-18.502,2.77-27.145,6.725c-17.131,7.837-30.625,21.701-37.999,39.037c-0.007,0.016-0.053,0.126-0.06,0.142
	l-45,107.869c-20.254,41.301-31.373,74.265-36.039,106.847c-0.588,4.109,2.265,7.915,6.373,8.505
	c4.108,0.588,7.915-2.264,8.505-6.373c2.111-14.743,6.05-34.298,17.026-62.536c0.758,3.312,1.751,6.542,2.948,9.72
	c2.461,6.534,5.797,12.696,9.96,18.303c9.259,12.472,22.593,22.104,37.52,26.894l18.889,6.06
	c14.351,5.382,30.635,4.703,45.142,0.269c2.206-0.674,4.384-1.448,6.519-2.322c0.184,13.405,1.232,25.915,3.211,38.508
	c-7.685,16.381-16.094,29.589-24.976,43.539c-16.414,25.811-35.622,50.328-69.126,39.578c0,0-17.282-5.545-17.311-5.554
	C103.265,465.313,101.017,432.491,102.609,403.323z M231.114,316.46c-0.135,0.08-0.271,0.159-0.407,0.237
	c-7.5,4.316-16.514,5.254-24.748,2.612l-18.888-6.059c-8.351-2.679-14.96-8.547-18.608-16.522c-0.065-0.143-0.129-0.287-0.192-0.431
	c0.142-0.05,0.285-0.106,0.426-0.156c13.674-4.852,26.781-11.185,39.287-18.523c0.383-0.224,0.766-0.437,1.148-0.664
	c3.785,8.635,8.045,17.063,12.812,25.199c2.786,4.755,5.75,9.409,8.91,13.925C230.942,316.205,231.026,316.336,231.114,316.46z
	 M219.476,154.282c5.742-5.961,13.605-9.329,21.98-9.329c8.106,0,16.124,3.256,21.889,8.962c-0.092,0.26-0.18,0.523-0.27,0.785
	c-1.916,5.632-3.191,11.561-3.731,17.489c-0.001,0.011-0.003,0.031-0.004,0.046c-0.002,0.028-0.004,0.056-0.005,0.065l-1.189,13.995
	c-0.048,0.05-0.094,0.098-0.142,0.147c-6.69,6.929-13.599,13.652-20.759,20.095c-2.454,2.216-5.096,4.537-7.671,6.735
	c-5.552-22.411-8.409-43.03-9.828-56.374C219.735,156.789,219.55,155.016,219.476,154.282z M306.469,109.046
	c-5.797,2.314-11.303,5.354-16.399,9.067c-1.556-1.307-3.168-2.544-4.823-3.72c3.734-8.292,8.023-15.517,13.112-22.068
	C301.704,97.796,304.502,103.385,306.469,109.046z M241.796,305.48c-3.857-5.694-7.404-11.59-10.663-17.645
	c-3.239-6.022-6.198-12.193-8.909-18.47c-0.076-0.175-0.15-0.353-0.226-0.528c1.88-1.255,7.87-5.433,8.101-5.597
	c0.244,0.581,0.495,1.148,0.741,1.724c2.389,5.578,4.975,11.073,7.786,16.449c2.295,4.389,4.744,8.716,7.359,12.922l-0.498,2.17
	c-0.004,0.017-0.03,0.133-0.034,0.15c-0.714,3.215-1.908,6.246-3.533,9.007C241.88,305.601,241.838,305.541,241.796,305.48z
	 M203.672,262.696c-10.621,6.454-21.703,12.161-33.258,16.751c-1.458,0.579-2.913,1.143-4.365,1.678
	c-0.096,0.035-0.191,0.068-0.288,0.103c0.285-3.191,1.076-6.349,2.366-9.38c0.007-0.016,0.052-0.126,0.059-0.142l0.857-2.053
	c0.047-0.019,0.093-0.04,0.14-0.059c0.48-0.199,0.958-0.407,1.437-0.61c22.743-9.664,43.467-23.514,62.534-39.124
	c6.228-5.099,12.298-10.393,18.202-15.865c1.619-1.499,3.225-3.009,4.82-4.533l-1.213,14.289c-0.066,0.06-0.132,0.118-0.198,0.178
	C238.912,238.302,221.975,251.571,203.672,262.696z M242.619,254.161c-0.03-0.075-0.059-0.152-0.088-0.227
	c0.078-0.061,0.155-0.125,0.233-0.186c3.43-2.698,6.818-5.448,10.159-8.256c0.068-0.058,0.138-0.113,0.206-0.171l-2.291,26.965
	c-0.196-0.387-0.396-0.767-0.591-1.157C249.121,268.876,243.985,257.585,242.619,254.161z M207.289,177.975
	c0.034,0.228,0.074,0.468,0.109,0.698c0.159,1.051,0.328,2.118,0.499,3.192c2.232,14.046,5.137,27.995,8.817,41.735
	c0.009,0.033,0.017,0.066,0.026,0.099c-2.763,2.139-5.532,4.21-8.294,6.204c-2.082-7.469-3.991-15.231-5.702-23.184
	c-0.864-4.016-1.655-8.046-2.405-12.085L207.289,177.975z M190.136,219.089c0.075,0.316,0.154,0.626,0.229,0.94
	c0.296,1.227,3.951,15.162,4.672,17.649c0.11,0.38,0.216,0.766,0.328,1.145c-0.273,0.173-0.545,0.347-0.819,0.52
	c-4.332,2.735-16.721,9.627-16.92,9.73L190.136,219.089z M394.486,173.522c0.002,0.025,0.005,0.05,0.008,0.075l9.914,116.684
	c0.384,4.209,0.319,8.416-0.173,12.556c-1.354,11.384-5.934,22.25-13.271,31.199c-3.973,4.845-8.709,9.055-13.979,12.443
	c-3.49,2.244-4.501,6.894-2.256,10.385c2.244,3.491,6.895,4.501,10.385,2.256c9.274-5.962,17.146-13.946,23-23.285
	c0.343-0.546,0.698-1.084,1.026-1.637c2.895,47.496-4.091,74.126-11.917,103.963c-7.744,29.598-18.543,58.81-53.732,58.81h-18.18
	c-28.357,0-42.049-13.98-52.324-53.426c-3.94-15.054-8.005-30.095-10.562-45.461c-0.003-0.017-0.002-0.035-0.005-0.052
	c-2.692-16.226-3.746-32.242-3.315-50.49l0.001-0.063c0.103-4.307,0.3-8.728,0.572-13.256c0.341,0.575,0.71,1.135,1.067,1.702
	c2.37,3.769,5.056,7.341,8.058,10.63c14.247,15.617,34.541,24.574,55.68,24.574h19.836c2.49,0,5.049-0.132,7.607-0.393
	c3.739-0.381,6.761-3.701,6.753-7.472c0-0.057-0.007-0.116-0.009-0.173c-0.111-4.322-3.952-7.755-8.27-7.307
	c-2.015,0.205-4.056,0.316-6.081,0.316h-19.836c-16.923,0-33.171-7.171-44.577-19.673c-11.335-12.433-17.037-29.439-15.509-46.192
	l9.917-116.712c0.527-6.162,2.149-12.431,4.604-18.187c7.505-17.592,23.411-30.89,42.076-35.118
	c9.106-2.062,18.732-1.985,27.802,0.234c9.715,2.382,18.747,7.153,26.271,14.017C386.21,144.634,393.107,158.504,394.486,173.522z
	 M313.531,31.321c5.285-4.993,9.525-10.036,12.83-16.292h21.25c-5.167,14.086-13.087,23.379-21.452,31.096
	c-3.801-4.757-7.758-9.387-11.829-13.915c-0.26-0.289-0.519-0.578-0.778-0.865C313.545,31.337,313.538,31.329,313.531,31.321z
	 M251.95,15.029h25.571c3.393,3.676,6.867,7.296,9.765,10.314c19.221,20.018,44.863,46.724,53.663,78.622
	c-4.692-0.411-9.426-0.37-14.113,0.101c-1.975,0.198-3.947,0.466-5.9,0.82c-3.459-10.283-9.06-20.086-15.672-29.331
	c-0.01-0.015-0.017-0.031-0.027-0.046c-9.464-13.221-20.72-25.016-31.957-36.72C265.042,30.208,257.552,22.406,251.95,15.029z
	 M278.048,65.856c3.942,4.41,7.774,8.922,11.383,13.609c-6.864,8.117-12.498,17.053-17.297,27.443
	c-0.124-0.055-0.251-0.101-0.376-0.155c-5.881-2.576-12.08-4.395-18.422-5.399c6.253-14.205,13.866-26.223,23.404-36.95
	C277.176,64.886,277.613,65.37,278.048,65.856z M178.053,341.363c-33.261-10.671-50.765-48.864-37.093-81.072l45.098-108.103
	c5.904-13.879,16.707-24.979,30.42-31.253c7.95-3.636,16.389-5.481,25.088-5.481c13.358,0,26.62,4.583,37.15,12.799
	c-0.015,0.016-0.028,0.033-0.043,0.049c-0.12,0.131-0.232,0.269-0.351,0.4c-2.759,3.079-5.383,6.531-7.634,10.089
	c-0.216,0.342-0.434,0.682-0.644,1.028c-4.276-3.367-9.15-5.968-14.455-7.67c-4.601-1.476-9.355-2.224-14.132-2.224
	c-13.946,0-26.936,6.256-35.643,17.168c-2.602,3.262-4.754,6.868-6.421,10.773l-13.792,33.06l-31.304,75.037
	c-0.002,0.006-0.009,0.021-0.016,0.038c-10.484,24.469,3.019,53.484,28.198,61.563l18.888,6.059
	c12.128,3.896,25.652,2.519,36.817-3.887c2.513-1.441,4.886-3.136,7.095-5.029c-0.505,6.284-0.867,12.358-1.076,18.244
	c-2.498,1.359-5.068,2.542-7.734,3.534c-12.614,4.694-26.709,5.052-39.529,0.938C196.94,347.423,178.057,341.365,178.053,341.363z"
	/>
<g>
</g>
<g>
</g>
<g>
</g>
<g>
</g>
<g>
</g>
<g>
</g>
<g>
</g>
<g>
</g>
<g>
</g>
<g>
</g>
<g>
</g>
<g>
</g>
<g>
</g>
<g>
</g>
<g>
</g>
</svg>
