<svg id="Capa_1" enable-background="new 0 0 512 512" height="512" viewBox="0 0 512 512" width="512" xmlns="http://www.w3.org/2000/svg"><g><g><path d="m159.017 355.89 22.546 90.45c8.519 34.176 39.215 58.16 74.437 58.16 35.222 0 65.918-23.984 74.437-58.16l22.546-90.45-96.983-26.401z" fill="#d3918a"/><path d="m206.068 343.082-47.051 12.808 22.546 90.45c8.519 34.176 39.215 58.16 74.437 58.16 6.066 0 11.993-.727 17.7-2.08-43.004-36.107-67.424-95.873-67.632-159.338z" fill="#cb827c"/><path d="m120.436 270.112v47.196c0 21.308 17.274 38.582 38.582 38.582h193.965c21.308 0 38.582-17.274 38.582-38.582v-47.196z" fill="#e5b2ae"/><path d="m206.06 342.265c0-25.595 5.19-49.977 14.574-72.152h-100.198v47.196c0 21.308 17.274 38.582 38.582 38.582h47.422c-.249-4.52-.38-9.063-.38-13.626z" fill="#d3918a"/><path d="m256 83.927c-89.898 0-162.774 72.876-162.774 162.774v10.758c0 17.809 10.698 33.874 27.129 40.742 17.358 7.255 36.9 7.255 54.258 0s36.9-7.255 54.258 0 36.9 7.255 54.258 0 36.9-7.255 54.258 0 36.9 7.255 54.258 0c16.431-6.867 27.129-22.933 27.129-40.742v-10.758c0-89.897-72.876-162.774-162.774-162.774z" fill="#fae09d"/><path d="m207.815 122.847v-31.667c-66.373 20.541-114.589 82.4-114.589 155.521v10.758c0 17.809 10.698 33.874 27.129 40.742 15.931 6.658 33.697 7.188 49.931 1.624-13.431-20.075-21.268-44.21-21.268-70.178-.001-44.939 23.459-84.394 58.797-106.8z" fill="#fdcb71"/><path d="m256 7.5c-78.294 0-141.763 63.469-141.763 141.763v9.369c0 15.51 9.317 29.502 23.627 35.483 15.118 6.318 32.137 6.318 47.254 0 15.118-6.318 32.137-6.318 47.254 0 15.118 6.318 32.137 6.318 47.254 0 15.118-6.318 32.137-6.318 47.254 0 15.118 6.318 32.137 6.318 47.254 0 14.31-5.981 23.627-19.973 23.627-35.483v-9.369c.002-78.294-63.467-141.763-141.761-141.763z" fill="#fdb2bd"/><path d="m149.313 162.607c0-62.494 38.947-127.702 93.89-154.525-72.295 6.47-128.965 67.203-128.965 141.182v9.369c0 15.51 9.317 29.502 23.627 35.483 5.106 2.134 10.431 3.53 15.825 4.222-2.854-11.442-4.377-23.408-4.377-35.731z" fill="#fd8b9b"/></g><g><path d="m190.149 97.993c0-3.26 2.651-5.911 5.911-5.911s5.911 2.651 5.911 5.911c0 4.142 3.358 7.5 7.5 7.5s7.5-3.358 7.5-7.5c0-11.531-9.381-20.911-20.911-20.911s-20.911 9.38-20.911 20.911c0 4.142 3.358 7.5 7.5 7.5s7.5-3.359 7.5-7.5z"/><path d="m310.029 97.993c0-3.26 2.652-5.911 5.911-5.911s5.911 2.651 5.911 5.911c0 4.142 3.358 7.5 7.5 7.5s7.5-3.358 7.5-7.5c0-11.531-9.381-20.911-20.911-20.911s-20.911 9.38-20.911 20.911c0 4.142 3.358 7.5 7.5 7.5s7.5-3.359 7.5-7.5z"/><path d="m256 127.648c7.62 0 14.866-3.3 19.88-9.054 2.721-3.123 2.396-7.86-.727-10.582-3.122-2.721-7.86-2.396-10.582.727-2.165 2.483-5.289 3.908-8.571 3.908-3.283 0-6.407-1.425-8.572-3.908-2.721-3.123-7.459-3.448-10.582-.727s-3.448 7.459-.727 10.582c5.015 5.754 12.261 9.054 19.881 9.054z"/><path d="m153.058 362.992 21.227 85.162c9.371 37.592 42.973 63.846 81.715 63.846s72.344-26.254 81.714-63.847l21.227-85.162c22.603-2.934 40.122-22.295 40.122-45.684v-14.35c16.677-8.937 27.21-26.291 27.21-45.5v-10.758c0-28.934-7.386-57.409-21.345-82.552.526-4.394.26-6.635.333-14.886.002-82.302-66.957-149.261-149.261-149.261-33.972 0-67.224 11.729-93.63 33.025-3.224 2.601-3.73 7.322-1.129 10.546 2.601 3.225 7.322 3.729 10.546 1.13 24.092-19.431 53.213-29.701 84.213-29.701 74.033 0 134.263 60.23 134.263 134.263v9.369c0 28.304-33.985 39.642-60.489 28.563-16.854-7.044-36.185-7.045-53.039 0-13.14 5.492-28.255 5.524-41.47 0-17.018-7.114-36.361-6.974-53.039 0-26.962 11.271-60.489-.659-60.489-28.563v-9.369c0-30.686 10.627-60.692 29.925-84.492 2.609-3.218 2.115-7.94-1.102-10.549-3.218-2.609-7.941-2.116-10.549 1.102-21.457 26.463-33.273 59.824-33.273 93.939.073 8.245-.193 10.49.333 14.887-13.959 25.144-21.345 53.619-21.345 82.551v10.758c0 19.209 10.533 36.563 27.21 45.5v14.35c0 23.388 17.519 42.749 40.122 45.683zm231.006-45.684c0 17.139-13.943 31.082-31.082 31.082h-46.019c-4.142 0-7.5 3.358-7.5 7.5s3.358 7.5 7.5 7.5h36.419l-20.224 81.136c-7.7 30.895-35.316 52.474-67.158 52.474s-59.459-21.579-67.16-52.475l-20.224-81.136h108.348c4.142 0 7.5-3.358 7.5-7.5s-3.358-7.5-7.5-7.5h-117.947c-17.138 0-31.082-13.943-31.082-31.082v-8.676c16.044 4.131 33.792 3.08 49.569-3.511 15.403-6.438 33.07-6.438 48.474 0 19.079 7.974 40.964 7.975 60.042 0 15.403-6.438 33.07-6.438 48.474 0 14.983 6.262 32.57 7.87 49.569 3.511v8.677zm-283.338-59.849v-10.758c0-21.813 4.588-43.343 13.367-63.1 15.047 23.266 49.025 27.837 73.917 17.434 13.178-5.508 28.292-5.508 41.47 0 16.854 7.044 36.185 7.044 53.039 0 13.177-5.508 28.292-5.508 41.47 0 24.622 10.291 58.586 6.272 73.918-17.434 8.779 19.756 13.367 41.287 13.367 63.101v10.758c0 14.828-8.84 28.104-22.521 33.822-.019.008-.038.014-.057.022-.005.002-.01.003-.016.005-15.371 6.403-33.01 6.404-48.401-.027-19.079-7.974-40.963-7.974-60.042 0-15.403 6.438-33.071 6.438-48.474 0-19.079-7.974-40.963-7.974-60.042 0-15.259 6.375-32.595 6.488-48.474 0-13.681-5.719-22.521-18.995-22.521-33.823z"/></g></g></svg>