<?xml version="1.0" encoding="iso-8859-1"?>
<!-- Generator: Adobe Illustrator 19.0.0, SVG Export Plug-In . SVG Version: 6.00 Build 0)  -->
<svg version="1.1" id="Capa_1" xmlns="http://www.w3.org/2000/svg" xmlns:xlink="http://www.w3.org/1999/xlink" x="0px" y="0px"
	 viewBox="0 0 512 512" style="enable-background:new 0 0 512 512;" xml:space="preserve">
<path style="fill:#E3E6E8;" d="M390.397,27.517l-2.305-12.996c-0.82-4.625-5.235-7.708-9.859-6.888l-58.625,10.402
	c-15.161,2.69-28.063,13.27-33.669,27.614l-35.448,90.699l28.134,10.995l35.448-90.698c1.8-4.606,5.943-8.003,10.811-8.867
	l58.625-10.401C388.134,36.556,391.218,32.142,390.397,27.517z"/>
<path style="fill:#CCCED0;" d="M303.003,84.97c-2.045-0.223-4.12-0.345-6.224-0.345c-2.549,0-5.087,0.172-7.597,0.51
	c-3.756-5.447-8.146-10.309-13.008-14.5l-25.682,65.713l28.134,10.995L303.003,84.97z"/>
<circle style="fill:#BF7CBF;" cx="215.219" cy="141.85" r="32.22"/>
<path style="fill:#9F6FAD;" d="M203.001,141.846c0-14.303,9.323-26.422,22.22-30.63c-3.149-1.027-6.508-1.59-10-1.59
	c-17.795,0-32.22,14.426-32.22,32.221s14.426,32.22,32.22,32.22c3.492,0,6.851-0.563,10-1.59
	C212.324,168.267,203.001,156.148,203.001,141.846z"/>
<path style="fill:#51D09A;" d="M226.092,78.464c-9.552,13.623-10.199,33.507-0.16,50.332s27.845,25.698,44.37,23.761
	c9.552-13.623,10.199-33.507,0.16-50.332C260.423,85.401,242.618,76.527,226.092,78.464z"/>
<path style="fill:#96D7E8;" d="M342.089,185.141L342.089,185.141l-89.109-21.648l-83.068,21.648l0,0
	c-33.193,17.993-53.868,52.717-53.868,90.472v156.714c0,26.478,14.5,50.831,37.778,63.449l0,0
	c10.56,5.724,22.381,8.722,34.393,8.722h135.572c12.011,0,23.833-2.998,34.393-8.722l0,0c23.278-12.618,37.778-36.971,37.778-63.449
	V275.614C395.957,237.858,375.282,203.134,342.089,185.141z"/>
<path style="fill:#68C9E0;" d="M203.821,495.778c-23.278-12.618-37.778-36.971-37.778-63.449V275.614
	c0-37.756,20.675-72.481,53.868-90.472l0,0l58.945-15.362l-25.877-6.287l-83.068,21.648l0,0
	c-33.193,17.992-53.868,52.717-53.868,90.472v156.714c0,26.478,14.5,50.831,37.778,63.449l0,0
	c10.56,5.724,22.381,8.722,34.393,8.722h50C226.203,504.499,214.381,501.501,203.821,495.778L203.821,495.778z"/>
<path style="fill:#BF7CBF;" d="M160.434,232.465c-9.058,12.282-14.184,27.326-14.184,43.15v156.713
	c0,15.412,8.417,29.549,21.965,36.893c6.122,3.318,13.037,5.072,19.999,5.072h135.572c6.962,0,13.877-1.754,19.997-5.071
	c13.55-7.345,21.967-21.482,21.967-36.894V275.615c0-15.823-5.124-30.868-14.181-43.15H160.434z"/>
<path style="fill:#9F6FAD;" d="M175.533,232.465h-15.1c-9.058,12.283-14.184,27.326-14.184,43.15v156.713
	c0,15.412,8.417,29.549,21.965,36.893c3.309,1.793,6.853,3.112,10.507,3.961c-8.115-11.819-12.679-26.001-12.679-40.854V275.614
	C166.043,260.445,169.387,245.767,175.533,232.465z"/>
<circle style="fill:#BF7CBF;" cx="296.778" cy="141.85" r="32.22"/>
<path style="fill:#9F6FAD;" d="M284.559,141.846c0-14.303,9.323-26.422,22.22-30.63c-3.149-1.027-6.508-1.59-10-1.59
	c-17.795,0-32.22,14.426-32.22,32.221s14.426,32.22,32.22,32.22c3.492,0,6.851-0.563,10-1.59
	C293.881,168.267,284.559,156.148,284.559,141.846z"/>
<path style="fill:#A6EDFF;" d="M336.047,141.846H169.912c-11.956,0-21.648,9.692-21.648,21.648l0,0
	c0,11.956,9.692,21.648,21.648,21.648h166.136c11.956,0,21.648-9.692,21.648-21.648l0,0
	C357.696,151.538,348.003,141.846,336.047,141.846z"/>
<path style="fill:#68C9E0;" d="M198.264,163.493L198.264,163.493c0-11.956,9.692-21.648,21.648-21.648h-50
	c-11.956,0-21.648,9.692-21.648,21.648l0,0c0,11.956,9.692,21.648,21.648,21.648h50
	C207.956,185.141,198.264,175.449,198.264,163.493z"/>
<path d="M164.642,475.817c7.217,3.911,15.368,5.978,23.572,5.978h135.573c8.204,0,16.355-2.067,23.571-5.977
	c15.971-8.658,25.893-25.321,25.893-43.488V275.616c0-17.262-5.41-33.722-15.646-47.601c-1.414-1.917-3.654-3.049-6.036-3.049h-33.1
	c-4.142,0-7.5,3.358-7.5,7.5c0,4.142,3.358,7.5,7.5,7.5h29.183c6.946,10.611,10.598,22.859,10.598,35.65V432.33
	c0,12.658-6.913,24.268-18.04,30.3c-5.028,2.725-10.708,4.165-16.424,4.165H188.214c-5.716,0-11.396-1.44-16.425-4.166
	c-11.127-6.032-18.04-17.642-18.04-30.299V275.616c0-12.789,3.653-25.037,10.6-35.65h124.12c4.142,0,7.5-3.358,7.5-7.5
	c0-4.142-3.358-7.5-7.5-7.5H160.433c-2.382,0-4.623,1.131-6.036,3.049c-10.237,13.881-15.647,30.342-15.647,47.601V432.33
	C138.75,450.496,148.67,467.159,164.642,475.817z"/>
<path d="M189.765,326.932v10.63c0,4.142,3.358,7.5,7.5,7.5s7.5-3.358,7.5-7.5v-10.63c0-4.142-3.358-7.5-7.5-7.5
	S189.765,322.791,189.765,326.932z"/>
<path d="M314.734,345.062c4.142,0,7.5-3.358,7.5-7.5v-10.63c0-4.142-3.358-7.5-7.5-7.5c-4.142,0-7.5,3.358-7.5,7.5v10.63
	C307.234,341.704,310.592,345.062,314.734,345.062z"/>
<path d="M268.166,332.601c-2.954,3.379-7.388,5.316-12.165,5.316c-4.778,0-9.211-1.938-12.165-5.316
	c-2.726-3.119-7.465-3.437-10.583-0.711c-3.119,2.726-3.438,7.464-0.711,10.583c5.802,6.638,14.352,10.445,23.458,10.445
	c9.106,0,17.656-3.807,23.458-10.444c2.726-3.119,2.408-7.857-0.71-10.583C275.63,329.165,270.891,329.483,268.166,332.601z"/>
<path d="M150.247,502.372c11.621,6.299,24.75,9.628,37.967,9.628h135.572c13.218,0,26.347-3.33,37.967-9.628
	c25.724-13.944,41.704-40.783,41.704-70.042V275.616c0-36.52-17.969-70.311-47.581-90.783c5.727-5.326,9.32-12.918,9.32-21.338
	c0-16.072-13.076-29.148-29.148-29.148h-0.268c-3.064-15.962-15.708-28.551-31.697-31.536l16.976-43.435
	c0.842-2.155,2.858-3.809,5.136-4.212l58.625-10.401c8.688-1.542,14.503-9.865,12.962-18.554l0,0l-2.306-12.996
	c-0.747-4.209-3.088-7.875-6.592-10.324c-3.504-2.449-7.752-3.386-11.961-2.639l-58.625,10.401
	c-17.718,3.144-32.793,15.508-39.344,32.269l-15.554,39.798c-10.933-8.887-24.604-13.293-38.182-11.702
	c-2.124,0.249-4.041,1.393-5.268,3.144c-5.772,8.232-8.715,18.051-8.823,28.177c-17.488,1.799-31.641,14.993-34.907,32.01h-6.309
	c-16.072,0-29.148,13.076-29.148,29.148c0,9.729,4.796,18.354,12.143,23.651c-27.69,20.65-44.364,53.293-44.364,88.469v156.714
	C108.544,461.59,124.523,488.429,150.247,502.372z M320.336,134.347h-47.11c0.012-0.039,0.024-0.079,0.037-0.118
	c3.173-9.955,13.079-17.103,23.515-17.103C307.796,117.127,317.153,124.371,320.336,134.347z M292.924,48.38
	c4.661-11.925,15.388-20.723,27.994-22.959l58.625-10.401c0.544-0.097,1.067,0.268,1.164,0.813l2.306,12.996
	c0.097,0.545-0.269,1.067-0.813,1.164l-58.625,10.401c-7.424,1.316-13.741,6.498-16.487,13.521l-19.239,49.225
	c-2.309,0.53-4.577,1.289-6.753,2.22c-0.176,0.075-0.355,0.144-0.529,0.222c-0.09-0.211-0.188-0.419-0.281-0.629
	c-1.539-3.491-3.405-6.834-5.572-9.974L292.924,48.38z M230.412,85.705c11.224-0.054,22.605,5.849,30.325,15.615
	c3.091,3.91,5.54,8.383,7.164,13.097c0.013,0.039,0.023,0.08,0.037,0.119c-0.179,0.188-0.339,0.391-0.514,0.582
	c-2.303,2.519-4.108,5.312-5.817,8.251c-3.329-5.77-6.821-11.451-10.235-17.172c-0.089-0.149-0.178-0.298-0.266-0.446
	c-2.123-3.557-6.726-4.72-10.284-2.598c-3.557,2.123-4.72,6.727-2.597,10.284l12.477,20.911h-10.84
	c-0.074-0.071-0.149-0.142-0.222-0.213c-4.124-3.987-7.466-8.802-9.776-14.051C224.813,108.581,224.99,95.627,230.412,85.705z
	 M213.002,117.226c0.516,1.962,1.137,3.911,1.867,5.84c0.017,0.046,0.033,0.093,0.051,0.139c1.489,3.887,3.379,7.64,5.629,11.143
	h-28.885C194.63,125.049,202.962,118.124,213.002,117.226z M336.047,149.347c7.801,0,14.148,6.347,14.148,14.148
	c0,7.635-6.511,14.148-14.148,14.148H169.912c-7.801,0-14.148-6.347-14.148-14.148s6.347-14.148,14.148-14.148H336.047z
	 M123.543,275.616c0-34.416,18.463-66.036,48.309-82.973h164.196c0.017,0,0.033-0.001,0.05-0.001
	c1.217-0.002,2.43-0.079,3.637-0.232c30.092,16.878,48.723,48.63,48.723,83.207v156.714c0,23.751-12.972,45.537-33.853,56.855
	c-9.433,5.113-20.089,7.816-30.818,7.816H188.214c-10.729,0-21.386-2.703-30.819-7.816c-20.881-11.318-33.852-33.104-33.852-56.855
	C123.543,432.331,123.543,275.616,123.543,275.616z"/>
<g>
</g>
<g>
</g>
<g>
</g>
<g>
</g>
<g>
</g>
<g>
</g>
<g>
</g>
<g>
</g>
<g>
</g>
<g>
</g>
<g>
</g>
<g>
</g>
<g>
</g>
<g>
</g>
<g>
</g>
</svg>
