<svg id="Capa_1" enable-background="new 0 0 512 512" height="512" viewBox="0 0 512 512" width="512" xmlns="http://www.w3.org/2000/svg"><g><g><path d="m472.819 243.97-.116-.12c-27.113-27.941-39.759-66.863-34.245-105.405l.024-.166c1.323-9.248-4.947-17.873-14.152-19.467l-.058-.01c-38.435-6.656-71.607-30.768-89.799-65.273l-.016-.031c-4.362-8.274-14.517-11.573-22.909-7.442-35.025 17.24-76.069 17.24-111.094 0-8.392-4.131-18.547-.832-22.909 7.442l-.016.03c-18.192 34.505-51.364 58.618-89.799 65.274l-.058.01c-9.206 1.594-15.475 10.219-14.152 19.467l.024.166c5.514 38.541-7.131 77.464-34.245 105.405l-.116.12c-6.503 6.701-6.503 17.358 0 24.059l.116.12c27.113 27.941 39.759 66.863 34.245 105.405l-.024.165c-1.323 9.248 4.947 17.873 14.152 19.467l.058.01c38.435 6.656 71.607 30.768 89.799 65.273l.016.031c4.362 8.274 14.517 11.573 22.909 7.442 35.025-17.24 76.069-17.24 111.094 0 8.392 4.131 18.547.832 22.909-7.442l.016-.03c18.192-34.505 51.364-58.618 89.799-65.274l.058-.01c9.206-1.594 15.475-10.219 14.152-19.467l-.024-.166c-5.514-38.541 7.131-77.464 34.245-105.405l.116-.12c6.503-6.7 6.503-17.356 0-24.058z" fill="#fd8b9b"/><path d="m150.464 220.071c0-66.148 30.21-125.238 77.583-164.233-9.454-2.155-18.718-5.412-27.594-9.781-8.392-4.131-18.547-.832-22.909 7.442l-.016.031c-18.192 34.505-51.364 58.617-89.799 65.274l-.058.01c-9.206 1.594-15.475 10.219-14.152 19.467l.024.166c5.514 38.541-7.131 77.464-34.245 105.405l-.116.12c-6.503 6.702-6.503 17.358 0 24.059l.116.12c27.114 27.941 39.759 66.863 34.245 105.405l-.024.165c-1.323 9.249 4.947 17.873 14.152 19.467l.058.01c38.435 6.656 71.607 30.768 89.799 65.273l.016.031c4.362 8.274 14.517 11.573 22.909 7.442 35.025-17.24 76.069-17.24 111.094 0 8.392 4.131 18.547.832 22.909-7.442l.016-.03c3.09-5.861 6.622-11.413 10.528-16.64-108.959-10.109-194.536-110.429-194.536-221.761z" fill="#e75b70"/><circle cx="256" cy="256" fill="#fae09d" r="134.555"/><path d="m150.464 220.071c0-19.48 2.634-38.342 7.541-56.265-22.665 24.082-36.559 56.514-36.559 92.195 0 63.35 43.783 116.465 102.738 130.76-45.146-41.702-73.72-102.359-73.72-166.69z" fill="#fdcb71"/><ellipse cx="172.154" cy="274.765" fill="#fd8b9b" rx="30.938" ry="24.637"/><ellipse cx="339.847" cy="274.765" fill="#fd8b9b" rx="30.938" ry="24.637"/><ellipse cx="256" cy="255.835" fill="#303646" rx="16.423" ry="18.377"/></g><g><path d="m128.945 256c0-70.058 56.997-127.055 127.055-127.055 21.208 0 42.199 5.329 60.7 15.411 3.64 1.98 8.193.639 10.175-2.997 1.982-3.637.64-8.193-2.997-10.175-20.697-11.278-44.169-17.239-67.878-17.239-78.33 0-142.055 63.726-142.055 142.055 0 29.896 9.186 58.5 26.564 82.722 2.423 3.377 7.111 4.129 10.466 1.722 3.366-2.415 4.136-7.101 1.722-10.466-15.539-21.658-23.752-47.239-23.752-73.978z"/><path d="m350.182 149.666c-3.1-2.748-7.84-2.461-10.587.638-2.748 3.1-2.462 7.84.638 10.587 27.214 24.121 42.822 58.787 42.822 95.108 0 70.059-56.997 127.055-127.055 127.055-31.109 0-61.047-11.367-84.301-32.006-3.098-2.75-7.838-2.468-10.588.631-2.75 3.098-2.467 7.838.631 10.588 26 23.078 59.475 35.787 94.258 35.787 78.329 0 142.055-63.726 142.055-142.055 0-40.61-17.449-79.367-47.873-106.333z"/><path d="m445.882 372.492c-5.148-35.981 6.891-73.035 32.2-99.117l.119-.123c9.388-9.675 9.388-24.831 0-34.506-.004-.004-.009-.009-.014-.014l-.103-.105c-25.312-26.084-37.351-63.139-32.205-99.105l.026-.179c1.91-13.354-7.005-25.617-20.355-27.93-35.889-6.215-67.457-29.162-84.46-61.412-6.301-11.952-20.733-16.64-32.855-10.673-32.708 16.1-71.762 16.099-104.47 0-12.121-5.966-26.554-1.279-32.872 10.704-16.987 32.219-48.555 55.166-84.502 61.391-13.292 2.302-22.208 14.566-20.295 27.93l.022.155c5.147 35.981-6.891 73.035-32.201 99.117l-.118.122c-9.388 9.674-9.388 24.831.013 34.52l.103.105c25.312 26.084 37.351 63.139 32.204 99.109l-.025.176c-1.911 13.354 7.005 25.617 20.355 27.93 35.889 6.215 67.457 29.162 84.46 61.412 6.281 11.914 20.695 16.659 32.856 10.673 32.707-16.1 71.762-16.1 104.469 0 12.123 5.965 26.554 1.279 32.872-10.704 16.987-32.22 48.555-55.166 84.502-61.391 13.292-2.303 22.207-14.566 20.295-27.93zm-14.848 2.135.022.155c.754 5.268-2.764 10.106-8.065 11.024-40.441 7.004-76.012 32.86-95.169 69.196-2.486 4.715-8.18 6.565-12.963 4.211-18.428-9.071-38.643-13.606-58.859-13.606s-40.432 4.535-58.86 13.606c-4.782 2.354-10.476.504-12.979-4.241-19.141-36.306-54.712-62.162-95.21-69.176-5.245-.908-8.762-5.747-8.01-11.004-.025-.27 11.699-62.442-36.275-111.88l-.103-.105c-3.704-3.817-3.704-9.797-.002-13.611l.118-.122c28.522-29.393 42.088-71.146 36.286-111.701l-.022-.155c-.753-5.269 2.764-10.107 8.065-11.025 40.441-7.004 76.012-32.86 95.169-69.196 2.486-4.716 8.18-6.564 12.963-4.211 36.856 18.142 80.863 18.142 117.719 0 4.782-2.355 10.476-.505 12.978 4.242 19.142 36.306 54.713 62.162 95.211 69.175 5.244.908 8.762 5.747 8.01 11.001l-.026.179c-5.801 40.543 7.764 82.297 36.3 111.704l.117.12c3.69 3.817 3.686 9.787-.011 13.596l-.119.123c-28.521 29.393-42.087 71.146-36.285 111.701z"/><path d="m248.5 7.5v22.164c0 4.142 3.358 7.5 7.5 7.5s7.5-3.358 7.5-7.5v-22.164c0-4.142-3.358-7.5-7.5-7.5s-7.5 3.358-7.5 7.5z"/><path d="m105.527 48.892c-3.351 2.435-4.094 7.125-1.66 10.476l13.027 17.931c2.442 3.361 7.134 4.088 10.476 1.659 3.351-2.435 4.094-7.125 1.66-10.476l-13.027-17.931c-2.434-3.35-7.124-4.094-10.476-1.659z"/><path d="m12.53 176.892c-1.28 3.939.876 8.17 4.815 9.45l21.079 6.849c3.93 1.278 8.168-.869 9.45-4.815 1.28-3.939-.876-8.17-4.815-9.45l-21.079-6.849c-3.94-1.282-8.171.875-9.45 4.815z"/><path d="m38.424 318.809-21.079 6.849c-3.939 1.28-6.095 5.511-4.815 9.451 1.282 3.946 5.52 6.094 9.451 4.815l21.079-6.849c3.939-1.28 6.095-5.511 4.815-9.451-1.281-3.94-5.512-6.097-9.451-4.815z"/><path d="m116.003 461.449 13.027-17.931c2.435-3.351 1.691-8.041-1.66-10.476-3.352-2.436-8.042-1.691-10.476 1.66l-13.027 17.931c-2.435 3.351-1.691 8.042 1.66 10.476 3.329 2.419 8.026 1.713 10.476-1.66z"/><path d="m263.5 504.5v-22.164c0-4.142-3.358-7.5-7.5-7.5s-7.5 3.358-7.5 7.5v22.164c0 4.142 3.358 7.5 7.5 7.5s7.5-3.358 7.5-7.5z"/><path d="m406.473 463.109c3.351-2.435 4.094-7.125 1.66-10.476l-13.027-17.931c-2.435-3.351-7.125-4.093-10.476-1.66-3.351 2.435-4.094 7.125-1.66 10.476l13.027 17.931c2.442 3.361 7.134 4.087 10.476 1.66z"/><path d="m494.656 325.658-21.079-6.849c-3.942-1.282-8.171.876-9.451 4.815s.876 8.171 4.815 9.451l21.079 6.849c3.939 1.281 8.171-.877 9.451-4.815 1.28-3.94-.877-8.171-4.815-9.451z"/><path d="m490.02 172.077-21.079 6.849c-3.939 1.28-6.096 5.511-4.815 9.45 1.284 3.953 5.527 6.092 9.45 4.815l21.079-6.849c3.939-1.28 6.096-5.511 4.815-9.45-1.28-3.94-5.513-6.097-9.45-4.815z"/><path d="m406.473 48.892c-3.352-2.436-8.042-1.692-10.476 1.659l-13.027 17.931c-2.435 3.351-1.691 8.041 1.66 10.476 3.336 2.425 8.031 1.707 10.476-1.659l13.027-17.931c2.434-3.351 1.691-8.041-1.66-10.476z"/><path d="m232.077 255.835c0 14.269 10.731 25.877 23.922 25.877s23.923-11.608 23.923-25.877-10.732-25.876-23.923-25.876-23.922 11.607-23.922 25.876zm32.846 0c0 5.998-4.003 10.877-8.923 10.877s-8.922-4.879-8.922-10.877c0-5.997 4.002-10.876 8.922-10.876s8.923 4.879 8.923 10.876z"/><path d="m172.619 244.84c0 4.142 3.358 7.5 7.5 7.5s7.5-3.358 7.5-7.5c0-3.455 2.811-6.265 6.265-6.265s6.265 2.811 6.265 6.265c0 4.142 3.358 7.5 7.5 7.5s7.5-3.358 7.5-7.5c0-11.726-9.54-21.265-21.265-21.265s-21.265 9.54-21.265 21.265z"/><path d="m295.664 244.84c0 4.142 3.358 7.5 7.5 7.5s7.5-3.358 7.5-7.5c0-3.455 2.811-6.265 6.265-6.265s6.265 2.811 6.265 6.265c0 4.142 3.358 7.5 7.5 7.5s7.5-3.358 7.5-7.5c0-11.726-9.54-21.265-21.265-21.265s-21.265 9.54-21.265 21.265z"/></g></g></svg>