<?xml version="1.0" encoding="iso-8859-1"?>
<!-- Generator: Adobe Illustrator 19.0.0, SVG Export Plug-In . SVG Version: 6.00 Build 0)  -->
<svg version="1.1" id="Capa_1" xmlns="http://www.w3.org/2000/svg" xmlns:xlink="http://www.w3.org/1999/xlink" x="0px" y="0px"
	 viewBox="0 0 512.001 512.001" style="enable-background:new 0 0 512.001 512.001;" xml:space="preserve">
<path style="fill:#FAE7CA;" d="M352.152,205.323l-22.002-36.568c-10.442-17.355-29.213-27.968-49.467-27.968H87.162
	c-20.254,0-39.026,10.613-49.467,27.968l-22.002,36.568c-5.407,8.987-8.263,19.275-8.263,29.762v200.446
	c0,31.884,25.846,57.73,57.73,57.73h237.525c31.884,0,57.73-25.846,57.73-57.73V235.085
	C360.415,224.598,357.558,214.309,352.152,205.323z M183.923,206.173c-9.607,0-17.394-7.788-17.394-17.395
	c0-9.607,7.788-17.395,17.394-17.395c9.607,0,17.394,7.788,17.394,17.395C201.317,198.385,193.529,206.173,183.923,206.173z"/>
<path style="fill:#E2D1B7;" d="M77.45,435.531V235.085c0-10.487,2.857-20.776,8.263-29.762l22.002-36.568
	c10.441-17.355,29.213-27.968,49.467-27.968h-70.02c-20.254,0-39.026,10.613-49.467,27.968l-22.002,36.568
	c-5.407,8.987-8.263,19.275-8.263,29.762v200.446c0,31.884,25.846,57.73,57.73,57.73h70.02
	C103.296,493.261,77.45,467.414,77.45,435.531z"/>
<path style="fill:#A37F60;" d="M300.512,235.085H67.333c-10.48,0-18.975,8.495-18.975,18.975v181.47
	c0,9.28,7.523,16.803,16.803,16.803h237.524c9.28,0,16.803-7.523,16.803-16.803v-181.47
	C319.487,243.581,310.992,235.085,300.512,235.085z"/>
<path style="fill:#8B6C52;" d="M77.45,235.085H67.333c-10.48,0-18.975,8.495-18.975,18.975v181.47
	c0,9.28,7.523,16.802,16.803,16.802h14.781c-1.615-5.318-2.492-10.957-2.492-16.802V235.085z"/>
<path style="fill:#FAE7CA;" d="M424.62,59.057l-40.652,40.652c-7.238,7.238-7.238,18.974,0,26.213l48.309,48.309
	c7.239,7.238,18.974,7.238,26.213,0l40.651-40.653c7.238-7.238,7.238-18.974,0-26.213l-48.308-48.308
	C443.595,51.818,431.858,51.818,424.62,59.057z"/>
<path style="fill:#E2D1B7;" d="M452.283,154.224l-48.309-48.309c-7.239-7.238-7.239-18.974,0-26.213l-20.006,20.006
	c-7.239,7.239-7.239,18.974,0,26.213l48.309,48.309c7.239,7.238,18.974,7.238,26.213,0l20.006-20.006
	C471.257,161.462,459.521,161.462,452.283,154.224z"/>
<path d="M65.232,500.761h180.476c4.143,0,7.502-3.359,7.502-7.502c0-4.143-3.359-7.502-7.502-7.502H65.232
	c-27.696,0-50.228-22.532-50.228-50.228V235.083c0-9.123,2.486-18.077,7.189-25.895l22.002-36.568
	c9.031-15.009,25.522-24.334,43.038-24.334h90.965c-0.807,5.621-1.327,11.203-1.559,16.704
	c-10.149,3.145-17.541,12.619-17.541,23.787c0,13.728,11.169,24.897,24.897,24.897c13.728,0,24.896-11.169,24.896-24.897
	c0-11.055-7.245-20.445-17.234-23.685c0.251-5.528,0.833-11.148,1.719-16.806h87.379c17.517,0,34.009,9.324,43.039,24.334
	l22.002,36.568c4.703,7.817,7.189,16.772,7.189,25.895v200.446c0,27.696-22.532,50.228-50.228,50.228h-27.04
	c-4.143,0-7.502,3.359-7.502,7.502c0,4.143,3.359,7.502,7.502,7.502h27.04c35.969,0,65.232-29.263,65.232-65.232V235.083
	c0-11.848-3.229-23.478-9.337-33.63l-22.001-36.569c-11.728-19.493-33.146-31.602-55.896-31.602h-84.338
	c4.059-16.232,10.524-32.326,19.017-46.9c16.003-27.462,37.665-47.174,60.996-55.507c38.197-13.642,78.77,3.027,117.635,48.197
	l-15.33,15.33c-10.152,10.152-10.152,26.671,0,36.823c0,0,48.269,48.269,48.309,48.308c10.025,10.025,26.817,10.007,36.822,0
	c0,0,40.607-40.605,40.652-40.651c9.99-9.99,9.961-26.864,0-36.823c0,0-48.247-48.248-48.308-48.309
	c-10.047-10.047-26.79-10.034-36.822,0l-14.688,14.688C383.209,43.67,360.843,26.721,338.13,18.05
	c-22.575-8.619-45.032-9.059-66.744-1.304c-26.659,9.522-51.133,31.569-68.915,62.082c-9.817,16.847-17.12,35.605-21.447,54.455
	H87.234c-22.749,0-44.168,12.109-55.895,31.602L9.337,201.454C3.229,211.607,0,223.236,0,235.083v200.446
	C0,471.498,29.263,500.761,65.232,500.761z M183.995,198.67c-5.455,0-9.893-4.438-9.893-9.893c0-5.455,4.438-9.893,9.893-9.893
	c5.455,0,9.892,4.438,9.892,9.893C193.887,194.232,189.45,198.67,183.995,198.67z M429.997,64.36c4.241-4.24,11.377-4.225,15.603,0
	c0,0,48.284,48.284,48.308,48.309c4.162,4.163,4.313,11.29,0,15.603c0,0-40.525,40.525-40.651,40.65
	c-4.142,4.142-11.472,4.132-15.603,0l-48.309-48.308c-4.301-4.302-4.301-11.302,0-15.604
	C389.345,105.011,429.941,64.416,429.997,64.36z"/>
<path d="M101.668,227.581H67.405c-14.6,0-26.478,11.878-26.478,26.477v181.47c0,13.402,10.903,24.304,24.304,24.304h237.524
	c13.402,0,24.305-10.903,24.305-24.305V254.059c0-14.6-11.878-26.477-26.478-26.477H131.675c-4.143,0-7.502,3.359-7.502,7.502
	s3.359,7.502,7.502,7.502h168.908c6.327,0,11.473,5.147,11.473,11.473v181.469c0,5.128-4.172,9.301-9.301,9.301H65.232
	c-5.127,0-9.3-4.172-9.3-9.3v-181.47c0-6.327,5.147-11.473,11.473-11.473h34.263c4.143,0,7.502-3.359,7.502-7.502
	S105.811,227.581,101.668,227.581z"/>
<path d="M115.025,344.57c4.143,0,7.502-3.359,7.502-7.502v-12.483c0-4.144-3.359-7.502-7.502-7.502s-7.502,3.358-7.502,7.502v12.483
	C107.522,341.211,110.881,344.57,115.025,344.57z"/>
<path d="M260.467,337.068v-12.483c0-4.144-3.359-7.502-7.502-7.502c-4.143,0-7.502,3.358-7.502,7.502v12.483
	c0,4.143,3.359,7.502,7.502,7.502C257.108,344.57,260.467,341.211,260.467,337.068z"/>
<path d="M183.995,353.796c10.316,0,19.998-4.308,26.564-11.818c2.727-3.12,2.409-7.859-0.711-10.586
	c-3.119-2.727-7.858-2.41-10.586,0.71c-3.715,4.251-9.28,6.689-15.266,6.689s-11.551-2.439-15.267-6.69
	c-2.728-3.119-7.466-3.437-10.586-0.71s-3.438,7.466-0.71,10.586C163.996,349.488,173.678,353.796,183.995,353.796z"/>
<path d="M426.284,142.115c1.464,1.464,3.385,2.197,5.305,2.197c1.92,0,3.84-0.732,5.305-2.197l30.207-30.207
	c2.93-2.93,2.93-7.68,0-10.609c-2.93-2.93-7.68-2.93-10.609,0l-30.207,30.207C423.354,134.435,423.354,139.184,426.284,142.115z"/>
<path d="M407.352,123.182c1.464,1.465,3.385,2.198,5.305,2.198s3.84-0.732,5.305-2.198l30.207-30.207c2.93-2.93,2.93-7.68,0-10.609
	c-2.93-2.93-7.68-2.93-10.609,0l-30.207,30.207C404.423,115.502,404.423,120.253,407.352,123.182z"/>
<g>
</g>
<g>
</g>
<g>
</g>
<g>
</g>
<g>
</g>
<g>
</g>
<g>
</g>
<g>
</g>
<g>
</g>
<g>
</g>
<g>
</g>
<g>
</g>
<g>
</g>
<g>
</g>
<g>
</g>
</svg>
