<?xml version="1.0" encoding="iso-8859-1"?>
<!-- Generator: Adobe Illustrator 19.0.0, SVG Export Plug-In . SVG Version: 6.00 Build 0)  -->
<svg version="1.1" id="Capa_1" xmlns="http://www.w3.org/2000/svg" xmlns:xlink="http://www.w3.org/1999/xlink" x="0px" y="0px"
	 viewBox="0 0 512.001 512.001" style="enable-background:new 0 0 512.001 512.001;" xml:space="preserve">
<path style="fill:#51D7F7;" d="M315.127,449.306L105.253,291.459c-5.023-3.778-7.979-9.698-7.979-15.984s2.955-12.206,7.979-15.984
	l209.875-157.847l24.044,31.969L150.549,275.474l188.622,141.863L315.127,449.306z"/>
<path style="fill:#964339;" d="M221.315,266.697c0-55.505-46.672-100.662-104.04-100.662c-57.367,0-104.04,45.157-104.04,100.662
	v37.196c0,13.092,10.613,23.706,23.706,23.706h160.668c13.092,0,23.706-10.613,23.706-23.706v-37.196H221.315z"/>
<path style="fill:#333E40;" d="M498.769,420.303c0-55.505-46.672-100.662-104.04-100.662c-57.367,0-104.04,45.157-104.04,100.662
	H498.769z"/>
<path style="fill:#C76D5F;" d="M488.783,118.027H290.689c0-55.505,16.459-100.662,104.04-100.662c29.082,0,50.279-5.37,61.729-9.216
	c5.954-1.999,12.463,0.721,15.252,6.348C480.926,33.084,497.617,74.656,488.783,118.027z"/>
<g>
	<circle style="fill:#E6B09C;" cx="29.694" cy="266.696" r="21.955"/>
	<circle style="fill:#E6B09C;" cx="204.856" cy="266.696" r="21.955"/>
	<circle style="fill:#E6B09C;" cx="307.148" cy="420.3" r="21.955"/>
	<circle style="fill:#E6B09C;" cx="482.312" cy="420.3" r="21.955"/>
	<circle style="fill:#E6B09C;" cx="307.148" cy="118.023" r="21.955"/>
	<circle style="fill:#E6B09C;" cx="482.312" cy="118.023" r="21.955"/>
</g>
<g>
	<path style="fill:#FFC4B0;" d="M204.855,266.298c-0.177-36.683-38.445-61.165-71.854-46.016c-2.524,1.144-4.81,2.334-6.81,3.464
		c-5.537,3.131-12.296,3.131-17.833,0c-1.999-1.131-4.286-2.32-6.81-3.464c-33.409-15.149-71.676,9.334-71.854,46.017
		c-0.001,0.133-0.001,0.266-0.001,0.399c0,46.504,39.211,84.203,87.581,84.203s87.581-37.699,87.581-84.203
		C204.856,266.564,204.855,266.431,204.855,266.298z"/>
	<path style="fill:#FFC4B0;" d="M482.309,419.904c-0.177-36.683-38.445-61.165-71.854-46.016c-2.524,1.144-4.81,2.334-6.81,3.464
		c-5.537,3.131-12.296,3.131-17.833,0c-1.999-1.131-4.286-2.32-6.81-3.464c-33.409-15.149-71.676,9.334-71.854,46.016
		c-0.001,0.133-0.001,0.266-0.001,0.399c0,46.504,39.211,84.203,87.581,84.203s87.581-37.699,87.581-84.203
		C482.31,420.17,482.309,420.037,482.309,419.904z"/>
	<path style="fill:#FFC4B0;" d="M482.309,117.628c-0.177-36.683-38.445-61.165-71.854-46.016c-2.524,1.144-4.81,2.334-6.81,3.464
		c-5.537,3.131-12.296,3.131-17.833,0c-1.999-1.131-4.286-2.32-6.81-3.464c-33.409-15.149-71.676,9.334-71.854,46.017
		c-0.001,0.133-0.001,0.266-0.001,0.399c0,46.504,39.211,84.203,87.581,84.203s87.581-37.699,87.581-84.203
		C482.31,117.894,482.309,117.761,482.309,117.628z"/>
</g>
<path d="M72.498,255.706c-4.143,0-7.5,3.358-7.5,7.5v7.052c0,4.142,3.357,7.5,7.5,7.5c4.142,0,7.5-3.358,7.5-7.5v-7.052
	C79.998,259.064,76.639,255.706,72.498,255.706z"/>
<path d="M159.5,255.706c-4.142,0-7.5,3.358-7.5,7.5v7.052c0,4.142,3.358,7.5,7.5,7.5s7.5-3.358,7.5-7.5v-7.052
	C167,259.064,163.642,255.706,159.5,255.706z"/>
<path d="M134.026,264.594c-3.12-2.727-7.857-2.407-10.583,0.711c-1.479,1.693-3.728,2.664-6.168,2.664s-4.689-0.971-6.168-2.664
	c-2.726-3.118-7.464-3.437-10.583-0.711c-3.118,2.726-3.437,7.464-0.711,10.583c4.328,4.952,10.693,7.792,17.462,7.792
	s13.134-2.84,17.462-7.792C137.463,272.058,137.145,267.321,134.026,264.594z"/>
<path d="M5.734,283.796v20.092c0,17.207,13.999,31.206,31.206,31.206h17.078c16.818,14.483,38.988,23.302,63.255,23.302
	c17.448,0,33.81-4.561,47.881-12.504l115.212,86.652c4.326,9.421,13.475,16.179,24.271,17.095
	c12.715,36.22,48.297,62.361,90.09,62.361c41.794,0,77.376-26.142,90.09-62.361c15.071-1.278,26.947-13.945,26.947-29.342
	c0-7.414-2.759-14.191-7.297-19.375c-4.803-25.655-19.027-48.72-40.24-65.153c-3.275-2.537-7.985-1.938-10.522,1.336
	c-2.537,3.274-1.939,7.985,1.335,10.522c14.745,11.423,25.572,26.531,31.379,43.499c-1.361-0.184-2.737-0.285-4.11-0.285
	c-0.041,0-0.381,0.038-0.403,0.003c-2.913-4.985-6.579-9.52-10.832-13.424c-1.777-1.632-3.692-3.181-5.648-4.585
	c-9.615-6.917-21.395-11.01-34.104-11.01c-5.485,0-10.883,0.794-16.134,2.333c-5.318,1.53-10.426,3.941-15.235,6.66
	c-3.186,1.801-7.263,1.801-10.448,0c-4.829-2.729-9.902-5.101-15.236-6.66c-5.25-1.539-10.648-2.333-16.133-2.333
	c-12.715,0-24.503,4.098-34.122,11.022c-1.057,0.761-2.088,1.55-3.096,2.375c-5.243,4.29-9.805,9.527-13.367,15.622
	c-0.026,0.044-0.357-0.003-0.403-0.003c-1.358,0-2.736,0.094-4.082,0.282c0.161-0.472,0.326-0.941,0.495-1.409
	c5.543-15.317,15.209-29.138,28.14-39.92c17.521-14.612,39.906-22.659,63.028-22.659c12.218,0,24.164,2.204,35.503,6.549
	c3.867,1.482,8.205-0.451,9.688-4.319s-0.451-8.205-4.319-9.687c-13.06-5.006-26.811-7.543-40.871-7.543
	c-26.627,0-52.423,9.283-72.637,26.139c-11.929,9.948-21.452,22.152-28.101,35.695l-70.346-52.907
	c3.263-4.93,5.168-10.832,5.168-17.173v-20.092c3.455-4.826,5.496-10.728,5.496-17.102c0-7.432-2.772-14.225-7.33-19.413
	c-1.059-5.632-2.561-11.155-4.515-16.513l89.634-67.414c16.386,27.677,47.285,46.374,82.628,46.374
	c41.794,0,77.376-26.143,90.09-62.362c15.071-1.278,26.947-13.945,26.947-29.342c0-10.149-5.16-19.116-12.994-24.416
	c0.25-35.371-12.489-66.607-20.341-82.447c-4.436-8.946-14.908-13.3-24.36-10.125c-9.815,3.296-30.578,8.825-59.341,8.825
	c-21.384,0-39.793,2.691-54.711,7.999c-3.902,1.388-5.941,5.677-4.552,9.58c1.388,3.903,5.677,5.941,9.58,4.552
	c13.3-4.731,30.017-7.13,49.684-7.13c29.351,0,51.066-5.223,64.116-9.606c2.381-0.799,5.022,0.305,6.146,2.569
	c6.88,13.878,17.838,40.514,18.734,70.777c-0.097-0.005-0.195-0.001-0.292-0.005c-0.509-0.021-1.018-0.03-1.527-0.026
	c-3.566-6.102-8.136-11.345-13.386-15.637c-10.383-8.606-23.721-13.381-37.198-13.381c-5.484,0-10.881,0.794-16.131,2.332
	c-0.039,0.011-0.077,0.024-0.116,0.035c-5.304,1.544-10.323,3.913-15.122,6.625c-0.018,0.01-0.037,0.017-0.055,0.026
	c-3.122,1.74-7.079,1.755-10.221,0.057c-4.932-2.665-9.907-5.168-15.32-6.716c-0.027-0.008-0.054-0.017-0.082-0.025
	c-5.253-1.54-10.652-2.334-16.14-2.334c-12.722,0-24.515,4.102-34.136,11.033c-4.257,3.067-8.159,6.699-11.477,10.796
	c-1.836,2.266-3.499,4.672-4.971,7.19c-0.061,0-0.12,0.004-0.181,0.003c-1.815-0.015-3.64,0.081-5.419,0.462
	c-0.597,0.107-1.189,0.229-1.773,0.372c3.105-19.434,9.95-33.5,21.106-43.654c3.063-2.788,3.287-7.531,0.499-10.595
	c-2.788-3.064-7.532-3.286-10.595-0.498c-16.285,14.822-24.985,35.65-27.32,65.347c-3.866,4.984-6.176,11.233-6.176,18.015
	c0,0.779,0.04,1.548,0.1,2.312l-86.797,65.279c-0.364-0.312-0.714-0.637-1.083-0.944c-20.213-16.855-46.01-26.14-72.638-26.14
	c-14.397,0-28.459,2.659-41.793,7.904c-3.854,1.516-5.75,5.87-4.234,9.725c1.516,3.854,5.869,5.75,9.725,4.234
	c11.577-4.554,23.792-6.863,36.302-6.863c23.123,0,45.508,8.047,63.03,22.659c12.948,10.798,23.142,25.284,28.652,41.331
	c-0.1-0.014-0.201-0.018-0.3-0.03c-1.259-0.16-2.531-0.253-3.8-0.253c-0.02,0-0.402,0.013-0.402,0.003
	c-4.154-7.107-9.847-13.291-16.553-18.061c-9.602-6.885-21.354-10.959-34.031-10.959c-5.484,0-10.88,0.794-16.129,2.332
	c-0.042,0.012-0.084,0.026-0.126,0.039c-5.3,1.602-10.299,3.9-15.114,6.623c-3.163,1.789-7.205,1.797-10.381,0.033
	c-0.022-0.013-0.046-0.021-0.068-0.033c-4.76-2.75-9.827-5.099-15.118-6.624c-0.041-0.012-0.08-0.025-0.121-0.037
	c-5.249-1.538-10.646-2.332-16.13-2.332c-12.708,0-24.489,4.093-34.104,11.01c-6.668,4.797-12.331,10.91-16.48,18.009
	c-0.052-0.001-0.104,0.004-0.156,0.004c-1.441-0.013-2.923,0.076-4.351,0.277c5.685-16.58,16.181-31.421,30.435-42.75
	c3.243-2.577,3.782-7.295,1.205-10.538c-2.577-3.243-7.295-3.782-10.538-1.205c-20.603,16.374-34.443,39.132-39.156,64.288
	c-4.538,5.184-7.297,11.961-7.297,19.375C0.237,273.066,2.279,278.97,5.734,283.796z M20.294,255.722
	c0.934-0.802,1.983-1.484,3.088-2.025c0.082-0.04,0.165-0.074,0.248-0.112c-0.285,1.255-0.512,2.524-0.712,3.8
	c-0.674,4.299-0.813,8.647-0.64,12.99c0,2.951,0.392,5.92,0.807,8.837c0.016,0.11,0.026,0.22,0.042,0.33
	c-0.663-0.339-1.289-0.706-1.893-1.144c-3.724-2.697-5.995-7.105-5.995-11.706C15.238,262.518,17.129,258.44,20.294,255.722z
	 M36.94,320.093c-8.936,0-16.205-7.27-16.205-16.205v-9.137c1.524,0.488,3.102,0.854,4.722,1.088
	c0.106,0.016,0.214,0.026,0.32,0.041c0.403,0.054,0.808,0.102,1.215,0.139c0.06,0.005,0.118,0.015,0.177,0.021
	c3.008,8.594,7.326,16.697,12.797,24.054L36.94,320.093L36.94,320.093z M39.738,285.902c-0.018-0.066-0.034-0.132-0.051-0.198
	c-1.868-7.005-2.831-14.359-2.423-21.609c0.74-13.136,7.405-24.734,17.357-32.189c11.725-8.697,27.505-11.274,41.782-5.664
	c2.848,1.119,5.6,2.524,8.262,4.028c7.228,4.084,16.186,4.387,23.673,0.802c0.022-0.01,0.044-0.019,0.066-0.029
	c3.274-1.562,6.361-3.465,9.744-4.802c14.273-5.608,30.047-3.033,41.771,5.658c9.958,7.456,16.627,19.06,17.366,32.205
	c0.414,7.36-0.564,14.702-2.476,21.804c-8.927,33.025-40.304,57.487-77.535,57.487C80.041,343.395,48.663,318.929,39.738,285.902z
	 M212.009,254.141c4.463,2.54,7.302,7.418,7.302,12.551c0,3.729-1.424,7.127-3.751,9.694c-1.181,1.303-2.574,2.354-4.136,3.156
	c0.016-0.109,0.026-0.219,0.042-0.328c0.123-0.862,0.234-1.727,0.332-2.596c0.707-6.328,0.832-12.794-0.145-19.1
	c-0.005-0.035-0.009-0.07-0.015-0.104c-0.2-1.281-0.429-2.555-0.714-3.814C211.29,253.769,211.656,253.94,212.009,254.141z
	 M203.934,318.806c-1.989,0.846-4.164,1.287-6.325,1.287h-3.027c5.471-7.356,9.79-15.459,12.797-24.054
	c0.06-0.005,0.118-0.015,0.178-0.021c2.123-0.19,4.227-0.619,6.256-1.269v9.137C213.815,310.58,209.736,316.337,203.934,318.806z
	 M300.583,433.175c-3.352-1.716-5.942-4.706-7.147-8.324c-1.591-4.778-0.517-10.193,2.784-14.001
	c1.337-1.543,3.012-2.796,4.863-3.656c-0.283,1.25-0.51,2.514-0.71,3.785c-0.926,5.863-0.88,11.841-0.323,17.737
	c0.128,1.364,0.242,2.755,0.487,4.103C300.555,432.937,300.566,433.056,300.583,433.175z M394.729,497
	c-37.232,0-68.608-24.464-77.536-57.489c-1.917-7.092-2.889-14.463-2.475-21.813c0.74-13.133,7.404-24.729,17.353-32.184
	c15.009-11.246,34.219-10.591,50.049-1.639c3.841,2.172,8.201,3.32,12.608,3.32c4.346,0,8.643-1.121,12.444-3.234
	c16.08-8.94,34.924-9.786,50.208,1.549c9.952,7.455,16.618,19.054,17.359,32.194c0.412,7.311-0.55,14.746-2.474,21.801
	C463.341,472.534,431.963,497,394.729,497z M488.874,433.175c0.018-0.123,0.03-0.247,0.047-0.37
	c0.587-4.122,0.885-8.293,0.887-12.457c0-0.016,0.001-0.033,0.001-0.049c0.004-3.073-0.238-6.147-0.705-9.183
	c-0.202-1.315-0.435-2.625-0.729-3.922c0.103,0.048,0.207,0.091,0.309,0.142c4.884,2.419,8.081,7.508,8.081,12.963
	C496.765,425.907,493.555,430.779,488.874,433.175z M287.944,389.071c-1.144,3.68-2.081,7.42-2.807,11.205
	c-0.038,0.196-0.082,0.39-0.119,0.586c-3,3.399-5.136,7.373-6.301,11.67L178.301,337.01c0.776-0.627,1.543-1.266,2.297-1.916h17.009
	c5.132,0,10.263-1.299,14.784-3.726l75.767,56.985C288.085,388.59,288.018,388.832,287.944,389.071z M300.468,130.834
	c-4.679-2.449-7.775-7.527-7.775-12.813c0-3.892,1.552-7.425,4.063-10.027c1.213-1.257,2.719-2.347,4.331-3.09
	c-0.284,1.253-0.512,2.521-0.712,3.797c-0.999,6.366-0.877,12.854-0.167,19.243c0.098,0.87,0.359,2.831,0.376,2.946
	C300.545,130.871,300.505,130.854,300.468,130.834z M394.729,194.725c-34.465,0-63.913-20.963-75.18-50.276
	c-3.535-9.196-5.374-19.166-4.831-29.027c0.74-13.129,7.4-24.723,17.344-32.178c11.729-8.706,27.518-11.286,41.801-5.67
	c2.843,1.118,5.599,2.522,8.256,4.024c7.256,4.103,16.23,4.383,23.739,0.773c3.265-1.57,6.36-3.462,9.736-4.799
	c14.277-5.613,30.056-3.037,41.782,5.658c9.954,7.455,16.621,19.055,17.362,32.196c0.409,7.255-0.467,14.779-2.473,21.8
	C463.342,170.257,431.964,194.725,394.729,194.725z M488.874,130.898c0.301-2.062,0.528-4.137,0.683-6.216
	c0.325-4.353,0.375-8.749-0.088-13.094c-0.239-2.243-0.598-4.488-1.097-6.688c4.951,2.296,8.393,7.314,8.393,13.122
	C496.765,123.631,493.555,128.503,488.874,130.898z M283.132,135.086c2.057,2.892,4.62,5.369,7.536,7.338
	c0.011,0.008,0.022,0.016,0.033,0.023c4.111,2.681,8.819,4.451,13.719,4.899c0.07,0.006,0.139,0.018,0.209,0.024
	c0.26,0.743,0.531,1.484,0.81,2.22l-89.272,67.141c-2.869-5.328-6.208-10.404-9.924-15.178c-1.416-1.818-2.891-3.592-4.422-5.314
	L283.132,135.086z"/>
<path d="M350.504,409.311c-4.142,0-7.5,3.357-7.5,7.5v7.051c0,4.142,3.358,7.5,7.5,7.5s7.5-3.358,7.5-7.5v-7.051
	C358.004,412.669,354.646,409.311,350.504,409.311z"/>
<path d="M437.506,409.311c-4.143,0-7.5,3.357-7.5,7.5v7.051c0,4.142,3.357,7.5,7.5,7.5c4.142,0,7.5-3.358,7.5-7.5v-7.051
	C445.006,412.669,441.647,409.311,437.506,409.311z"/>
<path d="M411.48,418.2c-3.119-2.726-7.857-2.408-10.583,0.711c-1.479,1.692-3.728,2.663-6.168,2.663s-4.688-0.971-6.168-2.663
	c-2.726-3.119-7.464-3.438-10.583-0.711s-3.437,7.464-0.711,10.583c4.328,4.952,10.693,7.792,17.462,7.792
	c6.77,0,13.134-2.84,17.462-7.792C414.917,425.665,414.599,420.927,411.48,418.2z"/>
<path d="M350.504,107.036c-4.142,0-7.5,3.358-7.5,7.5v7.052c0,4.142,3.358,7.5,7.5,7.5s7.5-3.358,7.5-7.5v-7.052
	C358.004,110.394,354.646,107.036,350.504,107.036z"/>
<path d="M437.506,107.036c-4.143,0-7.5,3.358-7.5,7.5v7.052c0,4.142,3.357,7.5,7.5,7.5c4.142,0,7.5-3.358,7.5-7.5v-7.052
	C445.006,110.394,441.647,107.036,437.506,107.036z"/>
<path d="M411.48,115.924c-3.119-2.727-7.857-2.408-10.583,0.711c-1.479,1.692-3.728,2.663-6.168,2.663s-4.688-0.971-6.168-2.663
	c-2.726-3.118-7.464-3.437-10.583-0.711c-3.119,2.726-3.437,7.464-0.711,10.583c4.328,4.952,10.693,7.792,17.462,7.792
	c6.77,0,13.134-2.84,17.462-7.792C414.917,123.388,414.599,118.65,411.48,115.924z"/>
<g>
</g>
<g>
</g>
<g>
</g>
<g>
</g>
<g>
</g>
<g>
</g>
<g>
</g>
<g>
</g>
<g>
</g>
<g>
</g>
<g>
</g>
<g>
</g>
<g>
</g>
<g>
</g>
<g>
</g>
</svg>
