<svg id="Capa_1" enable-background="new 0 0 512 512" height="512" viewBox="0 0 512 512" width="512" xmlns="http://www.w3.org/2000/svg"><g><g><path d="m418.644 86.692c-1.713-15.134-13.712-27.157-28.815-28.873-46.934-5.335-90.299 23.084-104.975 66.801v50.417l21.416 44.137c0-15.625 12.625-28.291 28.198-28.291 53.734-.001 90.093-51.916 84.176-104.191z" fill="#70dcba"/><path d="m284.853 124.622v-.002c-15.198-35.636-52.174-58.122-92.049-53.59-13.604 1.546-24.411 12.376-25.954 26.006-5.328 47.071 27.394 93.846 75.819 93.846h8.766c15.573 0 28.198 12.666 28.198 28.291v10l13.319 10 13.319-10v-10c0-15.625 12.625-28.291 28.198-28.291-29.393-8.549-49.616-35.557-49.616-66.26z" fill="#30cd9c"/></g><g><path d="m67.036 317.4h-4.961v-82.689c0-6.727-4.075-12.783-10.306-15.319-6.232-2.533-13.377-1.043-18.073 3.774l-21.499 22.05c-6.376 6.54-6.244 17.01.296 23.387 4.51 4.398 10.892 5.698 16.507 3.939v44.858h-4.961c-9.133 0-16.538 7.404-16.538 16.538s7.404 16.538 16.538 16.538h42.998c9.133 0 16.538-7.404 16.538-16.538s-7.406-16.538-16.539-16.538z" fill="#70dcba"/><g><circle cx="487.962" cy="333.94" fill="#b0ebd8" r="16.538"/><circle cx="389.28" cy="244.159" fill="#70dcba" r="16.538"/></g><g><path d="m160.648 218.173-16.538 16.538 16.538 16.538c9.12 0 16.538 7.418 16.538 16.538v33.076c0 9.119-7.418 16.538-16.538 16.538 0 0 0 0-.001.001l-16.537 16.537 16.538 16.538c27.357 0 49.613-22.256 49.613-49.613v-33.076c.001-27.359-22.255-49.615-49.613-49.615z" fill="#b0ebd8"/><path d="m160.648 317.4c-9.12 0-16.538-7.418-16.538-16.538v-33.076c0-9.12 7.418-16.538 16.538-16.538-9.134-9.134-9.134-23.942 0-33.076-27.357 0-49.613 22.256-49.613 49.613v33.076c0 27.357 22.256 49.613 49.613 49.613-9.133-9.132-9.133-23.941 0-33.074z" fill="#70dcba"/></g><g><path d="m292.951 218.173-16.538 16.538 16.538 16.538c9.12 0 16.538 7.418 16.538 16.538v33.076c0 9.119-7.418 16.538-16.538 16.538 0 0 0 0-.001.001l-16.537 16.537 16.538 16.538c27.357 0 49.613-22.256 49.613-49.613v-33.076c0-27.359-22.256-49.615-49.613-49.615z" fill="#b0ebd8"/><path d="m292.951 317.4c-9.12 0-16.538-7.418-16.538-16.538v-33.076c0-9.12 7.418-16.538 16.538-16.538-9.134-9.134-9.134-23.942 0-33.076-27.357 0-49.613 22.256-49.613 49.613v33.076c0 27.357 22.256 49.613 49.613 49.613-9.134-9.132-9.134-23.941 0-33.074z" fill="#70dcba"/></g><g><path d="m398.151 325.605c-4.602 7.889-1.937 18.015 5.953 22.618 2.62 1.528 5.487 2.255 8.317 2.255 5.689 0 11.227-2.938 14.3-8.208l17.852-30.603v-45.236h-11.905z" fill="#70dcba"/><path d="m473.138 229.875c-7.887-4.599-18.014-1.938-22.618 5.953l-17.852 30.603c0 15.484 3.874 31.07 11.905 45.236l34.518-59.174c4.602-7.889 1.937-18.015-5.953-22.618z" fill="#b0ebd8"/></g></g><g><path d="m91.074 333.938c0-12.397-9.434-22.632-21.499-23.904v-75.322c0-21.524-26.216-32.2-41.25-16.781l-21.499 22.05c-9.253 9.491-9.06 24.739.43 33.992 3.935 3.837 8.969 6.138 14.243 6.697v29.364c-12.065 1.272-21.499 11.507-21.499 23.904 0 13.254 10.783 24.038 24.038 24.038h42.999c13.254 0 24.037-10.784 24.037-24.038zm-76.074 0c0-4.983 4.054-9.038 9.038-9.038h4.961c4.142 0 7.5-3.358 7.5-7.5v-44.859c0-5.056-4.912-8.669-9.743-7.157-3.183.998-6.644.174-9.028-2.152-3.568-3.479-3.641-9.212-.162-12.781l21.499-22.05c5.654-5.796 15.51-1.785 15.51 6.31v82.689c0 4.142 3.358 7.5 7.5 7.5h4.961c4.983 0 9.038 4.054 9.038 9.038s-4.054 9.038-9.038 9.038h-42.998c-4.984 0-9.038-4.055-9.038-9.038z"/><path d="m217.762 267.787c0-31.493-25.621-57.114-57.113-57.114s-57.113 25.621-57.113 57.114v33.075c0 31.493 25.621 57.114 57.113 57.114s57.113-25.621 57.113-57.114zm-15 33.075c0 23.222-18.892 42.114-42.113 42.114s-42.113-18.892-42.113-42.114v-33.075c0-23.222 18.892-42.114 42.113-42.114s42.113 18.892 42.113 42.114z"/><path d="m160.648 243.749c-13.254 0-24.038 10.783-24.038 24.038v33.075c0 13.255 10.783 24.038 24.038 24.038s24.038-10.783 24.038-24.038v-33.075c0-13.255-10.783-24.038-24.038-24.038zm9.038 57.113c0 4.983-4.054 9.038-9.038 9.038s-9.038-4.055-9.038-9.038v-33.075c0-4.983 4.054-9.038 9.038-9.038s9.038 4.055 9.038 9.038z"/><path d="m350.064 300.862v-33.075c0-23.408-14.456-44.364-35.828-52.974 2.001-9.377 10.308-16.431 20.231-16.431 25.693 0 49.407-11.006 66.774-30.99 18.244-20.994 28.296-51.076 24.854-81.544-2.091-18.464-16.987-33.386-35.421-35.481-44.787-5.09-86.69 18.286-106.584 56.849-19.551-30.401-54.865-47.87-92.134-43.638-16.945 1.926-30.639 15.643-32.56 32.615-2.593 22.935 3.263 45.673 14.649 63.439 2.235 3.487 6.873 4.503 10.361 2.268 3.487-2.235 4.502-6.874 2.268-10.361-9.793-15.282-14.533-34.581-12.373-53.659 1.143-10.096 9.28-18.253 19.349-19.398 35.713-4.058 69.259 15.475 83.702 47.746v21.811c-17.875-23.779-43.062-41.469-71.956-49.978-3.972-1.17-8.143 1.102-9.313 5.076-1.17 3.973 1.102 8.143 5.076 9.313 33.672 9.917 61.713 33.804 76.931 65.537 2.643 5.509 10.407 5.711 13.339.362 21.087-38.471 55.693-66.888 97.445-80.016 3.952-1.243 6.147-5.453 4.905-9.404-1.243-3.952-5.452-6.146-9.404-4.905-37.124 11.673-69.057 34.451-92.023 65.217v-23.317c14.056-40.201 53.923-65.508 96.629-60.652 11.557 1.313 20.897 10.677 22.209 22.262 5.218 46.12-26.483 95.849-76.724 95.849-16.911 0-31.103 11.855-34.769 27.708-4.482-.533-9.013-.533-13.496 0-3.666-15.854-17.858-27.709-34.769-27.709h-8.766c-13.563 0-26.538-4.192-37.522-12.123-3.359-2.425-8.046-1.668-10.471 1.69s-1.668 8.046 1.69 10.471c13.556 9.788 29.567 14.962 46.303 14.962h8.766c9.923 0 18.23 7.054 20.231 16.431-21.372 8.61-35.829 29.567-35.829 52.974v33.075c0 31.493 25.621 57.114 57.114 57.114 31.495 0 57.116-25.621 57.116-57.114zm-57.113 42.114c-23.222 0-42.114-18.892-42.114-42.114v-33.075c0-22.981 18.744-42.114 42.114-42.114 23.379 0 42.113 19.143 42.113 42.114v33.075c0 23.222-18.892 42.114-42.113 42.114z"/><path d="m292.951 243.749c-13.253 0-24.038 10.782-24.038 24.038v33.075c0 1.657.168 3.275.489 4.839 2.245 10.944 11.951 19.2 23.549 19.2 13.254 0 24.038-10.783 24.038-24.038v-33.075c0-13.256-10.783-24.039-24.038-24.039zm9.038 57.113c0 4.983-4.054 9.038-9.038 9.038s-9.038-4.055-9.038-9.038v-33.075c0-4.983 4.055-9.038 9.038-9.038s9.038 4.055 9.038 9.038z"/><path d="m487.961 309.902c-13.254 0-24.037 10.783-24.037 24.038 0 13.254 10.783 24.038 24.037 24.038 13.255 0 24.038-10.783 24.038-24.038.001-13.255-10.783-24.038-24.038-24.038zm0 33.076c-4.983 0-9.037-4.054-9.037-9.038s4.054-9.038 9.037-9.038 9.039 4.055 9.039 9.038-4.055 9.038-9.039 9.038z"/><path d="m413.318 244.159c0-13.254-10.783-24.038-24.037-24.038-13.255 0-24.038 10.783-24.038 24.038s10.783 24.038 24.038 24.038c13.254 0 24.037-10.783 24.037-24.038zm-33.075 0c0-4.983 4.055-9.038 9.038-9.038s9.037 4.054 9.037 9.038-4.054 9.038-9.037 9.038-9.038-4.054-9.038-9.038z"/><path d="m467.018 288.075 18.552-31.803c6.745-11.566 2.688-26.261-8.654-32.876-11.531-6.721-26.238-2.718-32.874 8.653l-52.369 89.777c-6.754 11.578-2.67 26.271 8.652 32.875 11.545 6.733 26.252 2.704 32.875-8.653l18.701-32.059c2.088-3.578.88-8.17-2.697-10.258-3.575-2.088-8.17-.88-10.258 2.697l-18.703 32.062c-2.467 4.228-7.979 5.809-12.36 3.253-4.24-2.473-5.805-7.987-3.253-12.361l52.368-89.775c2.468-4.228 7.979-5.81 12.362-3.254 4.24 2.473 5.805 7.987 3.253 12.36l-18.552 31.803c-2.087 3.578-.878 8.17 2.699 10.257 3.578 2.088 8.171.88 10.258-2.698z"/><g><path d="m183.17 388.184c4.142 0 7.5-3.358 7.5-7.5s-3.358-7.5-7.5-7.5h-30.879c-4.142 0-7.5 3.358-7.5 7.5v73.283c0 4.142 3.358 7.5 7.5 7.5h30.879c4.142 0 7.5-3.358 7.5-7.5s-3.358-7.5-7.5-7.5h-23.379v-21.642h21.102c4.142 0 7.5-3.358 7.5-7.5s-3.358-7.5-7.5-7.5h-21.102v-21.642h23.379z"/><path d="m124.752 372.748c-3.91-1.372-8.189.688-9.559 4.597l-19.141 54.607-18.721-54.476c-1.346-3.917-5.613-6.002-9.53-4.655-3.917 1.346-6.001 5.613-4.655 9.53l25.743 74.912c1.038 3.021 3.875 5.053 7.07 5.062h.023c3.185 0 6.024-2.012 7.078-5.019l26.289-75c1.37-3.909-.688-8.188-4.597-9.558z"/><path d="m339.791 378.531c-3.169-7.702-14.127-7.509-17.047.188l-27.771 72.917c-1.474 3.871.469 8.204 4.339 9.678 3.864 1.473 8.202-.463 9.678-4.339l5.077-13.33h34.266l5.022 13.309c1.462 3.875 5.789 5.832 9.665 4.369 3.875-1.462 5.832-5.79 4.369-9.665-.061-.168-27.53-72.962-27.598-73.127zm-20.011 50.113 11.499-30.192 11.394 30.192z"/><path d="m448.567 380.273c-.041-4.226-3.557-7.505-7.572-7.427-4.142.04-7.467 3.43-7.427 7.572l.491 50.765-37.955-54.961c-4.169-6.037-13.671-3.07-13.671 4.262v73.821c0 4.142 3.358 7.5 7.5 7.5s7.5-3.358 7.5-7.5v-49.762l36.243 52.483c4.986 7.2 15.584 4.044 15.583-5.287z"/><path d="m280.585 409.825h-22.125c-4.142 0-7.5 3.358-7.5 7.5s3.358 7.5 7.5 7.5h13.965c-2.036 11.327-8.999 21.979-23.763 21.979-16.255 0-29.479-13.225-29.479-29.479 0-23.577 26.473-37.613 45.956-24.449 3.436 2.321 8.097 1.413 10.414-2.016 2.319-3.432 1.416-8.095-2.016-10.414-29.299-19.792-69.354 1.19-69.354 36.879 0 24.526 19.954 44.479 44.479 44.479 23.211 0 39.422-18.291 39.422-44.479.001-4.142-3.357-7.5-7.499-7.5z"/></g></g></g></svg>