<svg id="Capa_1" enable-background="new 0 0 512.037 512.037" height="512" viewBox="0 0 512.037 512.037" width="512" xmlns="http://www.w3.org/2000/svg"><g><path d="m58.096 370.515c-8.176-2.513-16.596-5.937-25.288-10.411-21.133-10.879-29.446-36.83-18.567-57.964 10.878-21.133 36.82-29.452 57.964-18.567 23.92 12.311 37.131 9.762 84.493-31.643 17.893-15.645 45.081-13.823 60.727 4.073 15.645 17.894 13.822 45.083-4.072 60.728-34.958 30.561-85.913 75.101-155.257 53.784z" fill="#ffbe9d"/><path d="m453.942 370.515c8.176-2.513 16.596-5.937 25.289-10.411 21.133-10.879 29.446-36.83 18.567-57.964-10.878-21.133-36.82-29.452-57.964-18.567-23.92 12.311-37.131 9.762-84.493-31.643-17.893-15.645-45.081-13.823-60.728 4.073-15.645 17.894-13.822 45.083 4.072 60.728 34.957 30.561 85.913 75.101 155.257 53.784z" fill="#ffbe9d"/><path d="m256.019 461.475c61.929 0 134.983-10.313 127.532-77.839-8.074-73.173-59.484-168.586-127.532-168.586s-119.458 95.413-127.532 168.586c-7.452 67.527 65.603 77.839 127.532 77.839z" fill="#8de1ce"/><path d="m256.019 327.421c40.08 0 75.489-7.954 104.501-23.25-22.819-48.532-60.119-89.121-104.501-89.121s-81.681 40.589-104.501 89.121c29.012 15.296 64.421 23.25 104.501 23.25z" fill="#6fcd90"/><path d="m235.111 473.505c-6.644-22.822 6.471-46.709 29.293-53.352 46.989-13.679 71.528-28.436 106.162-50.978 19.93-12.949 46.587-7.286 59.537 12.646 12.948 19.932 7.286 46.588-12.646 59.537-41.202 26.817-72.402 44.966-128.996 61.44-22.806 6.642-46.704-6.459-53.35-29.293z" fill="#ffbe9d"/><path d="m370.567 369.175c-24.57 15.992-44.067 28.063-70.095 38.613 6.42 25.533 17.476 56.923 32.898 79.586 31.237-12.687 55.212-27.221 84.088-46.016 19.932-12.949 25.594-39.605 12.646-59.537-12.951-19.932-39.607-25.595-59.537-12.646z" fill="#7c93dd"/><path d="m223.575 502.798c-57.196-16.65-89.485-35.725-128.995-61.44-19.933-12.949-25.594-39.605-12.646-59.537 12.95-19.933 39.607-25.593 59.537-12.646 35.09 22.839 58.914 37.223 106.163 50.978 22.821 6.643 35.937 30.53 29.293 53.352-6.646 22.826-30.54 35.937-53.352 29.293z" fill="#ffd3bd"/><path d="m141.479 369.175c24.57 15.992 44.067 28.063 70.095 38.613-6.42 25.533-17.476 56.923-32.898 79.586-31.237-12.687-55.212-27.221-84.088-46.016-19.932-12.949-25.594-39.605-12.646-59.537 12.95-19.932 39.607-25.595 59.537-12.646z" fill="#7c93dd"/><ellipse cx="103.531" cy="152.286" fill="#ffd3bd" rx="45.088" ry="42.858"/><ellipse cx="408.506" cy="152.286" fill="#ffbe9d" rx="45.089" ry="42.858"/><ellipse cx="256.019" cy="162.383" fill="#ffd3bd" rx="157.114" ry="135.038"/><path d="m187.488 40.838c-52.434 21.88-88.583 68.082-88.583 121.544 0 74.579 50.774 135.038 157.114 135.038 13.156 0 25.458-.928 36.922-2.691-159.681-2.8-151.784-210.493-105.453-253.891z" fill="#ffbe9d"/><g><g><ellipse cx="172.951" cy="196.007" fill="#eda1ab" rx="30.65" ry="24.408"/><ellipse cx="339.086" cy="195.85" fill="#eda1ab" rx="30.65" ry="24.408"/><ellipse cx="256.008" cy="184.592" fill="#4b5165" rx="13.712" ry="15.725"/></g></g><path d="m257.688 12.14c105.18-23.514 165.986 47.833 172.837 100.864 1.236 9.565-6.213 18.035-15.856 17.843-53.998-1.075-125.82-27.316-152.568-46.198-3.638-2.568-8.527-2.568-12.165 0-26.747 18.883-98.57 45.124-152.568 46.198-9.642.192-17.092-8.279-15.856-17.843 6.852-53.031 67.657-124.378 172.837-100.864 1.097.245 2.241.245 3.339 0z" fill="#4b5165"/><path d="m321.187 177.533h.02c6.258-.006 12.206-2.721 16.318-7.45 2.718-3.126 2.388-7.863-.737-10.581-3.122-2.717-7.861-2.389-10.581.737-1.266 1.456-3.094 2.292-5.014 2.293h-.006c-1.919 0-3.746-.832-5.013-2.283-2.724-3.121-7.461-3.441-10.582-.719-3.121 2.724-3.442 7.461-.719 10.582 4.117 4.717 10.061 7.421 16.314 7.421zm-65.176 30.285h.019c11.696-.011 21.202-10.439 21.19-23.245-.006-6.013-2.093-11.71-5.879-16.044-3.977-4.552-9.566-7.162-15.337-7.162h-.018c-11.696.011-21.202 10.439-21.19 23.246.006 6.013 2.093 11.71 5.879 16.043 3.977 4.552 9.565 7.162 15.336 7.162zm-.01-31.451h.004c1.971 0 3.377 1.272 4.04 2.031 1.38 1.579 2.173 3.835 2.175 6.188.004 4.459-2.837 8.228-6.205 8.232h-.004c-1.971 0-3.378-1.272-4.04-2.031-1.38-1.58-2.172-3.835-2.175-6.189-.004-4.458 2.837-8.227 6.205-8.231zm-65.224 1.289h.02c6.257-.006 12.205-2.721 16.318-7.449 2.719-3.125 2.389-7.862-.736-10.581-3.125-2.718-7.861-2.389-10.581.736-1.267 1.456-3.094 2.292-5.015 2.294h-.006c-1.919 0-3.746-.832-5.013-2.284-2.724-3.121-7.463-3.441-10.582-.718-3.121 2.724-3.442 7.462-.718 10.582 4.117 4.716 10.061 7.42 16.313 7.42zm313.688 121.05c-12.783-24.837-43.222-34.592-68.065-21.803-15.798 8.131-24.728 10.878-56.324-14.039 17.369-16.506 29.381-37.086 35.603-60.711 25.62-3.337 45.415-24.316 45.415-49.867 0-16.861-8.859-32.553-23.365-41.853-4.644-31.671-25.591-63.937-55.011-84.551-24.373-17.078-66.134-34.596-126.732-21.061-53.034-11.858-102.017-1.258-137.927 29.844-3.131 2.712-3.471 7.449-.759 10.58 2.712 3.13 7.448 3.471 10.58.759 34.406-29.799 79.324-36.718 124.835-26.545 2.161.483 4.446.483 6.61 0 55.192-12.338 92.888 3.362 114.786 18.707 31.765 22.257 46.127 53.748 48.976 75.798.63 4.869-3.046 9.453-8.268 9.384-51.04-1.017-121.78-26.041-148.393-44.827-6.225-4.396-14.59-4.395-20.815 0-27.264 19.247-98.272 43.827-148.392 44.827-5.234.077-8.897-4.523-8.269-9.384 1.805-13.967 7.764-29.162 16.78-42.784 2.287-3.454 1.34-8.108-2.114-10.394-3.454-2.287-8.108-1.34-10.394 2.114-10.065 15.207-16.577 31.604-18.913 47.531-14.507 9.301-23.367 24.993-23.367 41.854 0 25.533 19.774 46.527 45.416 49.867 6.221 23.625 18.233 44.206 35.603 60.711-31.594 24.916-40.524 22.17-56.324 14.038-24.837-12.785-55.278-3.04-68.065 21.803-12.754 24.777-2.973 55.311 21.803 68.065 14.107 7.262 28.593 12.45 43.897 15.033-11.985 22.822-4.816 51.526 17.217 65.839 43.56 28.352 76.249 46.419 130.989 62.355 11.523 3.357 23.567 2.558 34.544-2.314 10.957 4.859 23.024 5.667 34.536 2.314 50.366-14.661 80.677-30.438 116.012-52.735 3.503-2.21 4.551-6.842 2.34-10.345-2.211-3.504-6.842-4.551-10.346-2.34-20.753 13.096-39.716 23.864-62.288 33.474-10.395-16.911-19.953-40.297-26.893-65.838 23.552-10.132 42.188-21.727 65.269-36.75 16.431-10.677 38.485-5.99 49.161 10.442 7.68 11.822 7.645 27.081-.087 38.873-2.271 3.464-1.305 8.113 2.159 10.385s8.114 1.304 10.384-2.159c10.126-15.442 10.959-35.062 2.496-51.2 15.29-2.582 29.764-7.758 43.897-15.034 24.778-12.751 34.558-43.285 21.803-68.063zm-69.636-171.627c20.681 19.153 11.399 51.633-15.913 59.147 2.353-15.963 2.447-32.309-.684-48.108 6.763-.961 12.902-4.875 16.597-11.039zm-341.708 59.148c-27.291-7.507-36.614-39.976-15.913-59.147 3.7 6.173 9.845 10.078 16.597 11.035-3.125 15.771-3.042 32.114-.684 48.112zm13.283-23.844c0-8.271.955-16.526 2.814-24.615 54.854-4.202 119.81-29.178 145.044-46.992 1.051-.742 2.463-.741 3.514 0 25.234 17.814 90.19 42.79 145.044 46.992 1.859 8.09 2.814 16.345 2.814 24.615 0 34.567-11.337 66.531-36.317 90.023-29.769 27.995-72.601 37.515-113.297 37.515-40.778 0-83.597-9.587-113.296-37.515-24.939-23.451-36.32-55.387-36.32-90.023zm-70.164 191.052c-17.422-8.968-24.3-30.44-15.332-47.863 8.99-17.466 30.39-24.326 47.864-15.332 25.186 12.963 41.264 9.497 74.886-17.519 3.755 2.802 7.695 5.421 11.801 7.867-13.237 22.616-23.566 48.66-29.645 74.761-15.046-2.325-30.633 2.249-42.028 12.741-16.674-1.599-32.532-6.926-47.546-14.655zm139.552 124.581c-29.064-12.379-51.594-26.33-77.126-42.948-16.433-10.675-21.117-32.729-10.442-49.161 10.691-16.456 32.751-21.103 49.156-10.446 23.088 15.027 41.726 26.623 65.282 36.756-6.934 25.521-16.483 48.891-26.87 65.799zm93.934-6.608c-5.513 18.94-25.271 29.661-44.054 24.189 0 0-.001-.001-.001-.001-13.151-3.828-24.935-7.782-35.77-11.902 13.179-22.116 21.839-48.057 26.771-65.853 8.732 3.27 18.23 6.416 28.866 9.513 18.733 5.453 29.711 25.083 24.188 44.054zm52.436 12.316c-10.835 4.107-22.601 8.031-35.798 11.872-4.781 1.392-9.704 1.75-14.51 1.123 18.727-19.214 19.492-50.774-.369-70.847 8.651-2.619 16.543-5.282 23.887-8.033 4.936 17.805 13.602 43.763 26.79 65.885zm44.314-120.834c-34.139 22.219-58.185 36.677-104.167 50.063-2.135.621-4.229 1.404-6.273 2.305-2.035-.895-4.136-1.673-6.306-2.305-45.053-13.115-68.085-26.578-104.173-50.066-1.755-1.14-3.56-2.142-5.396-3.039 5.755-25.246 15.737-50.473 28.574-72.254 24.515 11.408 54.009 17.327 87.284 17.327s62.769-5.919 87.284-17.327c12.838 21.782 22.82 47.009 28.574 72.254-1.837.897-3.644 1.9-5.401 3.042zm109.322-9.455c-14.984 7.712-30.838 13.053-47.546 14.656-11.395-10.492-26.982-15.066-42.029-12.741-6.079-26.1-16.408-52.144-29.645-74.761 4.105-2.445 8.043-5.063 11.797-7.864 32.806 26.361 49.026 30.828 74.891 17.516 17.466-8.991 38.869-2.14 47.863 15.332 8.969 17.422 2.091 38.893-15.331 47.862z"/></g></svg>